<?xml version="1.0" standalone="no"?>
<!DOCTYPE svg PUBLIC "-//W3C//DTD SVG 1.1//EN" "http://www.w3.org/Graphics/SVG/1.1/DTD/svg11.dtd" >
<svg xmlns="http://www.w3.org/2000/svg" xmlns:xlink="http://www.w3.org/1999/xlink" version="1.1">
<metadata></metadata>
<defs>
<font id="sweet_sanslight_italic" horiz-adv-x="1447" >
<font-face units-per-em="2048" ascent="1577" descent="-471" />
<missing-glyph horiz-adv-x="460" />
<glyph unicode="&#xfb01;" horiz-adv-x="1214" d="M129 840l21 100h194l43 207q14 66 42.5 119.5t63.5 88.5t77.5 58t82.5 33t80 10q41 0 87.5 -10.5t72.5 -24.5l-47 -106q-18 12 -52.5 20t-62.5 8q-73 0 -134 -49t-81 -147l-45 -207h301l-22 -100h-299l-179 -840h-127l177 840h-193zM772 0l197 940h127l-197 -940h-127z M1024 1307q0 36 28.5 62t69.5 26q34 0 57 -21.5t23 -52.5q0 -37 -29 -62.5t-69 -25.5q-34 0 -57 21.5t-23 52.5z" />
<glyph unicode="&#xfb02;" horiz-adv-x="1257" d="M129 840l21 100h194l43 207q14 66 42.5 119.5t63.5 88.5t77.5 58t82.5 33t80 10q41 0 87.5 -10.5t72.5 -24.5l-47 -106q-18 12 -52.5 20t-62.5 8q-73 0 -134 -49t-81 -147l-45 -207h301l-22 -100h-299l-179 -840h-127l177 840h-193zM797 0l305 1434h127l-305 -1434h-127z " />
<glyph unicode="&#xfb03;" horiz-adv-x="1873" d="M129 840l21 100h192l51 240q15 73 50.5 128.5t81.5 86.5t94.5 46t97.5 15q60 0 120.5 -21t90.5 -51l-51 -102q-24 26 -71 43.5t-89 17.5q-71 0 -125 -42.5t-72 -122.5l-51 -238h532l46 207q14 66 42.5 119.5t63.5 88.5t77 58t82 33t79 10q93 0 161 -35l-47 -106 q-47 28 -116 28q-72 0 -132.5 -49t-82.5 -147l-46 -207h302l-21 -100h-301l-178 -840h-127l178 840h-532l-177 -840h-127l177 840h-193zM1432 0l196 940h127l-196 -940h-127zM1683 1307q0 35 28.5 61.5t68.5 26.5q35 0 58.5 -21.5t23.5 -52.5q0 -36 -29.5 -62t-69.5 -26 q-34 0 -57 21.5t-23 52.5z" />
<glyph unicode="&#xfb04;" horiz-adv-x="1916" d="M129 840l21 100h192l51 240q15 73 50.5 128.5t81.5 86.5t94.5 46t97.5 15q60 0 120.5 -21t90.5 -51l-51 -102q-24 26 -71 43.5t-89 17.5q-71 0 -125 -42.5t-72 -122.5l-51 -238h532l46 207q14 66 42.5 119.5t63.5 88.5t77 58t82 33t79 10q93 0 161 -35l-47 -106 q-47 28 -116 28q-72 0 -132.5 -49t-82.5 -147l-46 -207h302l-21 -100h-301l-178 -840h-127l178 840h-532l-177 -840h-127l177 840h-193zM1454 0l305 1434h127l-305 -1434h-127z" />
<glyph horiz-adv-x="548" />
<glyph horiz-adv-x="548" />
<glyph horiz-adv-x="682" />
<glyph unicode="&#xd;" horiz-adv-x="741" />
<glyph unicode=" "  horiz-adv-x="460" />
<glyph unicode="&#x09;" horiz-adv-x="460" />
<glyph unicode="&#xa0;" horiz-adv-x="460" />
<glyph unicode="!" horiz-adv-x="600" d="M86 76q0 44 35 76t84 32q45 0 74.5 -28t29.5 -68q0 -45 -35 -76.5t-86 -31.5q-44 0 -73 28t-29 68zM221 401l101 613l69 323h150l-70 -323l-158 -613h-92z" />
<glyph unicode="&#x22;" horiz-adv-x="854" d="M248 866l20 285l35 186h137l-34 -186l-78 -285h-80zM666 866l22 285l33 186h137l-33 -186l-77 -285h-82z" />
<glyph unicode="#" horiz-adv-x="1748" d="M63 233l19 99h426l115 413h-400l19 99h407l103 368h104l-102 -368h399l102 368h105l-103 -368h420l-16 -99h-432l-115 -413h404l-21 -99h-410l-116 -421h-103l117 421h-397l-117 -421h-106l116 421h-418zM614 332h398l114 413h-399z" />
<glyph unicode="$" horiz-adv-x="1413" d="M59 258l97 76q159 -189 424 -238l90 436q-58 11 -97 20t-88.5 23.5t-82 29.5t-67 37.5t-54.5 48.5t-32.5 61.5t-12.5 78.5q0 103 64 176t163 105.5t221 32.5q54 0 109 -6l41 194h94l-43 -209q236 -52 381 -188l-97 -80q-109 114 -307 156l-76 -369q63 -12 107 -22.5 t101.5 -28t96.5 -41t74.5 -55.5t53.5 -77t18 -100q0 -111 -69 -191t-184 -118.5t-263 -38.5q-49 0 -74 2l-49 -245h-94l51 256q-302 49 -496 274zM369 854q0 -44 23 -76.5t70.5 -54.5t100 -36t131.5 -28l76 367q-50 6 -100 6q-56 0 -106 -8.5t-95.5 -28t-72.5 -55.5t-27 -86 zM672 86q20 -2 63 -2q72 0 135 11t118 34t86.5 65.5t31.5 100.5q0 50 -26 88t-77 63.5t-107.5 41.5t-135.5 30z" />
<glyph unicode="%" horiz-adv-x="2152" d="M188 848q0 97 56.5 181t152.5 133.5t207 49.5q150 0 254.5 -94t104.5 -227q0 -96 -59 -181t-157 -134.5t-208 -49.5q-150 0 -250.5 93t-100.5 229zM307 852q0 -91 69.5 -156t170.5 -65q118 0 206.5 76t88.5 180q0 91 -72 156t-176 65q-116 0 -201.5 -76t-85.5 -180z M623 0l819 1188h110l-819 -1188h-110zM1214 295q0 148 124 257.5t292 109.5q150 0 254.5 -95t104.5 -227q0 -96 -59 -181t-157 -134.5t-208 -49.5q-150 0 -250.5 93t-100.5 227zM1333 301q0 -91 69.5 -156t172.5 -65q117 0 206 76.5t89 179.5q0 90 -73 154.5t-175 64.5 q-117 0 -203 -75t-86 -179z" />
<glyph unicode="&#x26;" horiz-adv-x="1650" d="M203 328q0 77 25 142t62.5 108.5t94 80.5t106 58t111.5 41q-53 60 -76.5 109.5t-23.5 105.5q0 71 38 131.5t101.5 99.5t143 60.5t163.5 21.5q178 0 350 -100l-79 -107q-130 86 -285 86q-124 0 -209.5 -51t-85.5 -135q0 -20 5 -39.5t18 -41t23.5 -37.5t32.5 -40.5 t33 -36.5t37.5 -38.5l34.5 -34.5l367 -377q142 116 272 276l105 -57q-138 -170 -297 -299l248 -254h-179l-174 176q-155 -106 -295 -154.5t-249 -48.5q-51 0 -104 9.5t-111 35.5t-102 64.5t-72.5 102t-28.5 143.5zM340 340q0 -55 20.5 -99t51.5 -70.5t72.5 -44t80 -24 t76.5 -6.5q88 0 202.5 39t239.5 123l-368 375l-37 37q-35 -11 -60.5 -20t-63 -25.5t-65 -34t-57.5 -43.5t-48.5 -55t-31 -68t-12.5 -84z" />
<glyph unicode="'" horiz-adv-x="436" d="M248 866l20 285l35 186h137l-34 -186l-78 -285h-80z" />
<glyph unicode="(" horiz-adv-x="757" d="M100 393q0 219 87.5 424t253 365.5t382.5 244.5l49 -92q-183 -69 -328 -214t-225.5 -335t-80.5 -389q0 -201 78.5 -381t220.5 -280l-84 -76q-170 114 -261.5 312t-91.5 421z" />
<glyph unicode=")" horiz-adv-x="755" d="M-121 -248q183 70 328 214t226 333.5t81 388.5q0 202 -78.5 383t-220.5 279l84 77q170 -115 261 -313t91 -422q0 -219 -87.5 -423.5t-253 -364.5t-382.5 -244z" />
<glyph unicode="*" horiz-adv-x="1202" d="M244 1159l49 84l336 -182l90 373l98 -21l-69 -377l378 31l13 -98l-383 -47l149 -357l-90 -41l-166 348l-291 -251l-65 73l278 264z" />
<glyph unicode="+" d="M172 461v112h490v447h124v-447h486v-112h-486v-445h-124v445h-490z" />
<glyph unicode="," horiz-adv-x="618" d="M18 -279q39 13 78 32t80.5 47.5t68 68.5t27.5 84q0 50 -36 63q-32 -8 -50 -8q-40 0 -66 22.5t-26 57.5q0 40 32.5 68t78.5 28q73 0 123.5 -52.5t50.5 -133.5q0 -244 -332 -358z" />
<glyph unicode="-" horiz-adv-x="825" d="M127 451l23 124h526l-23 -124h-526z" />
<glyph unicode="." horiz-adv-x="563" d="M82 76q0 44 35 76t84 32q45 0 74.5 -28t29.5 -68q0 -45 -35 -76.5t-86 -31.5q-44 0 -73 28t-29 68z" />
<glyph unicode="/" horiz-adv-x="1060" d="M-63 -244l1038 1581h139l-1038 -1581h-139z" />
<glyph unicode="0" horiz-adv-x="1486" d="M133 502q0 130 57 249.5t150 205.5t217 137t254 51q152 0 277.5 -70.5t196.5 -193t71 -269.5q0 -173 -96.5 -322.5t-254 -235t-333.5 -85.5q-229 0 -384 154t-155 379zM268 514q0 -180 119 -301t299 -121q136 0 259 68.5t198.5 187t75.5 254.5q0 178 -122.5 300 t-301.5 122q-136 0 -257.5 -69t-195.5 -187.5t-74 -253.5z" />
<glyph unicode="1" horiz-adv-x="761" d="M127 852v113l373 151h137l-244 -1116h-137l221 991z" />
<glyph unicode="2" horiz-adv-x="1216" d="M16 0l39 172q77 347 584 430q33 5 46.5 7.5t50 9.5t56.5 13t53.5 16.5t53 21.5t44 27.5t37.5 34.5t22.5 42t9.5 51q0 54 -31 95t-79.5 62.5t-98 31.5t-96.5 10q-104 0 -194 -31.5t-189 -89.5l-60 103q121 66 225 102.5t226 36.5q68 0 139 -15.5t140 -48.5t113 -95 t44 -144q0 -64 -24 -116.5t-66.5 -87.5t-92 -61.5t-110.5 -43.5t-111.5 -28t-103.5 -20q-17 -3 -25 -4q-69 -12 -123.5 -28t-106.5 -41t-89.5 -57.5t-66 -79.5t-42.5 -105l-14 -61h795l-27 -109h-928z" />
<glyph unicode="3" horiz-adv-x="1378" d="M25 262l102 86q93 -125 233 -191.5t308 -66.5q69 0 135 14t125.5 42.5t96 80t36.5 119.5q0 48 -24.5 87t-60 60.5t-70 32.5t-60.5 11h-223l26 110h211q83 0 148 47.5t65 126.5q0 51 -27.5 91.5t-71.5 64t-92.5 35.5t-95.5 12q-203 0 -438 -139l-59 90q271 170 510 170 q64 0 134.5 -18.5t135.5 -53t107.5 -94t42.5 -133.5q0 -85 -60.5 -154.5t-148.5 -95.5q32 -10 62.5 -29.5t59.5 -49t46.5 -74.5t17.5 -97q0 -98 -49.5 -173.5t-131 -118.5t-174 -64t-190.5 -21q-190 0 -352 72.5t-274 220.5z" />
<glyph unicode="4" horiz-adv-x="1384" d="M8 270l27 101l1034 745h133l-164 -737h228l-27 -109h-225l-60 -270h-135l60 270h-871zM236 379h665l125 563h-18q-122 -89 -384.5 -277.5t-385.5 -279.5z" />
<glyph unicode="5" horiz-adv-x="1323" d="M35 207l92 88q86 -99 215.5 -152t284.5 -53q67 0 132 15t126 46.5t99 90t38 135.5q0 66 -39 116t-101 76.5t-126 39t-127 12.5q-146 0 -340 -68l-68 72l105 491h876l-28 -121h-750l-68 -325q162 65 306 65q53 0 107.5 -7.5t111.5 -23.5t106 -43.5t88 -64.5t61.5 -91 t22.5 -118q0 -86 -31.5 -157t-84.5 -118.5t-123.5 -80.5t-147 -47.5t-156.5 -14.5q-357 0 -581 238z" />
<glyph unicode="6" horiz-adv-x="1355" d="M133 487q0 181 90.5 332.5t246.5 238.5t341 87q262 0 444 -162l-94 -88q-65 62 -161 95.5t-203 33.5q-125 0 -237 -52t-191 -149t-103 -219q246 123 459 123q84 0 165 -20t151.5 -59t113.5 -106.5t43 -154.5q0 -96 -45 -176.5t-119 -132t-166.5 -80.5t-189.5 -29 q-105 0 -202 34t-174 97.5t-123 164t-46 222.5zM258 504q0 -128 60 -224.5t156.5 -144t211.5 -45.5q64 2 128 20t120 51.5t90.5 89.5t34.5 126q0 63 -34.5 111.5t-90.5 75t-116.5 39.5t-123.5 13q-201 0 -436 -110v-2z" />
<glyph unicode="7" horiz-adv-x="1210" d="M152 0l876 995h-835l28 121h993l-28 -123l-854 -993h-180z" />
<glyph unicode="8" horiz-adv-x="1370" d="M88 332q0 74 34.5 133.5t92 96t124.5 57.5t140 26q-92 26 -144 79.5t-52 133.5q0 65 31 117t78 83.5t108.5 53t118 29.5t110.5 8q58 0 121 -10t130 -34t119.5 -58.5t86 -88.5t33.5 -120q0 -80 -46 -135.5t-111 -79.5t-144 -27q113 -30 188.5 -104t75.5 -181 q0 -74 -36 -134.5t-92 -99t-128 -64.5t-140.5 -37t-132.5 -11q-55 0 -115.5 9.5t-124.5 28t-121.5 49t-103.5 69.5t-73 93.5t-27 117.5zM240 354q-4 -53 24 -98.5t74 -75.5t105 -51.5t115 -31t104 -9.5q54 0 113 11.5t119.5 36.5t100 73.5t39.5 112.5t-45 114t-113.5 77.5 t-138 41.5t-129.5 14q-52 0 -107.5 -9.5t-115.5 -31.5t-100.5 -67t-44.5 -107zM428 852q0 -55 40.5 -95t103.5 -58.5t118.5 -26.5t106.5 -8q44 0 85.5 6.5t86.5 22.5t72.5 51t27.5 85q0 53 -34.5 95.5t-88 66t-109.5 35.5t-108 12q-45 0 -92.5 -9t-96.5 -28.5t-80.5 -58 t-31.5 -90.5z" />
<glyph unicode="9" horiz-adv-x="1355" d="M102 133l95 86q67 -63 161 -96t201 -33q190 0 340 116.5t188 301.5q-233 -121 -456 -121q-83 0 -163 20t-150.5 59t-114 107.5t-43.5 155.5q0 95 45 175t119 132t167.5 80.5t192.5 28.5q82 0 160.5 -21t147.5 -64t121 -103.5t82 -145t30 -182.5q0 -182 -91 -334 t-247 -239t-340 -87q-264 0 -445 164zM299 737q0 -63 34.5 -111.5t90.5 -75t116.5 -39.5t123.5 -13q199 0 434 108v6q0 190 -123 302.5t-301 109.5q-65 -2 -128.5 -19.5t-120 -51t-91.5 -90t-35 -126.5z" />
<glyph unicode=":" horiz-adv-x="673" d="M133 76q0 45 35 76.5t86 31.5q44 0 74 -28t30 -68q0 -44 -35.5 -76t-86.5 -32q-44 0 -73.5 28t-29.5 68zM258 721q0 45 34.5 77.5t84.5 32.5q45 0 74.5 -28t29.5 -68q0 -45 -35 -76.5t-86 -31.5q-44 0 -73 27.5t-29 66.5z" />
<glyph unicode=";" horiz-adv-x="700" d="M61 -279q39 13 78 32t81 47.5t68 68.5t27 84q0 49 -34 63q-32 -8 -52 -8q-40 0 -66 22.5t-26 57.5q0 40 32.5 68t78.5 28q73 0 123.5 -52.5t50.5 -133.5q0 -244 -332 -358zM260 721q0 45 35.5 77.5t85.5 32.5q44 0 74 -28t30 -68q0 -45 -34.5 -76.5t-85.5 -31.5 q-45 0 -75 27.5t-30 66.5z" />
<glyph unicode="&#x3c;" d="M172 455v127l1100 403v-129l-942 -330v-18l942 -328v-129z" />
<glyph unicode="=" d="M172 213v115h1100v-115h-1100zM172 709v114h1100v-114h-1100z" />
<glyph unicode="&#x3e;" d="M172 51v129l944 328v18l-944 330v129l1100 -403v-127z" />
<glyph unicode="?" horiz-adv-x="1239" d="M238 1188q118 87 237.5 133.5t272.5 46.5q58 0 116 -8.5t119 -30t107.5 -54.5t76 -86.5t29.5 -121.5q0 -103 -57 -178.5t-160 -136.5q-39 -23 -105.5 -57t-110 -58t-92.5 -59t-82.5 -79t-51.5 -98h-123q14 65 45.5 119t68 90t88.5 70t94.5 55t99.5 49.5t91 49.5 q39 21 63 37t51.5 42t40.5 59.5t13 76.5q0 57 -31.5 99.5t-82.5 65t-104.5 33t-107.5 10.5q-130 0 -233.5 -40t-204.5 -115zM319 76q0 45 35 76.5t86 31.5q44 0 74.5 -28t30.5 -68q0 -44 -35.5 -76t-85.5 -32q-45 0 -75 28t-30 68z" />
<glyph unicode="@" horiz-adv-x="2035" d="M123 442q0 165 60 314t164.5 262t242 197t298 127.5t326.5 43.5q167 0 305.5 -46t232 -126t145 -191t51.5 -239q0 -95 -28 -185.5t-75.5 -161t-109 -130t-129 -98.5t-135.5 -60.5t-128 -21.5q-86 0 -135 41.5t-49 112.5q0 16 2 22q-168 -174 -346 -174 q-109 0 -182.5 72.5t-73.5 210.5q0 96 36 188t95 162.5t131.5 125t149 83t143.5 28.5q95 0 155.5 -56t71.5 -138l70 162h117l-252 -580q-12 -27 -12 -55q0 -51 30.5 -79t83.5 -28q68 0 148 41t151 110t118.5 174.5t47.5 221.5q0 225 -173.5 370.5t-463.5 145.5 q-123 0 -243 -27.5t-227 -78t-198 -126t-157 -166.5t-103.5 -204.5t-37.5 -236.5q0 -125 41.5 -231.5t111 -180t161.5 -125t193.5 -76t206.5 -24.5q138 0 299.5 36.5t251.5 81.5l29 -84q-97 -50 -269.5 -92.5t-324.5 -42.5q-118 0 -233 27.5t-221 87t-186.5 143.5 t-128.5 206.5t-48 266.5zM686 436q0 -98 47 -147t123 -49q70 0 150 40t157 117l125 289q-5 85 -54 144t-130 59q-62 0 -134 -34t-135.5 -91.5t-106 -144.5t-42.5 -183z" />
<glyph unicode="A" horiz-adv-x="1527" d="M-43 0l905 1337h135l338 -1337h-143l-107 434h-688l-288 -434h-152zM471 545h588l-154 633h-10z" />
<glyph unicode="B" horiz-adv-x="1658" d="M143 0l283 1337h690q114 0 187.5 -25.5t126.5 -78.5q43 -43 66.5 -99.5t23.5 -111.5q0 -107 -77 -198t-188 -119q90 -23 145.5 -105.5t55.5 -185.5q0 -154 -119 -273q-144 -141 -397 -141h-797zM305 123h629q102 0 172.5 22.5t122.5 73.5q82 79 82 187q0 94 -62 162.5 t-149 68.5h-684zM440 748h662q105 0 187.5 73.5t82.5 175.5q0 88 -59 150q-40 40 -92.5 53.5t-128.5 13.5h-553z" />
<glyph unicode="C" horiz-adv-x="1601" d="M158 608q0 151 65.5 292t175 243t259 163.5t309.5 61.5q182 0 346.5 -76t275.5 -215l-108 -69q-92 110 -229.5 174.5t-290.5 64.5q-128 0 -249.5 -50.5t-212 -135t-145.5 -201.5t-55 -244q0 -111 44.5 -209.5t120.5 -167.5t180 -109t220 -40q134 0 263.5 47.5 t234.5 128.5l74 -92q-124 -95 -273 -151t-307 -56q-190 0 -348.5 79t-254 227t-95.5 335z" />
<glyph unicode="D" horiz-adv-x="1681" d="M143 0l285 1337h479q174 0 284 -44t206 -132q84 -84 128 -193t44 -229q0 -138 -59.5 -272.5t-166.5 -239.5q-125 -113 -264 -170t-340 -57h-596zM305 123h453q166 0 273.5 45t211.5 139q86 86 134 195.5t48 228.5q0 96 -35.5 186.5t-101.5 157.5q-79 72 -162 105.5 t-225 33.5h-362z" />
<glyph unicode="E" horiz-adv-x="1464" d="M143 0l285 1337h1067l-27 -123h-929l-97 -446h564l-27 -121h-561l-113 -524h975l-27 -123h-1110z" />
<glyph unicode="F" horiz-adv-x="1341" d="M143 0l285 1337h1040l-26 -123h-903l-101 -469h563l-26 -122h-561l-133 -623h-138z" />
<glyph unicode="G" horiz-adv-x="1687" d="M156 610q0 150 67 290t178 242.5t261 164t309 61.5q172 0 328.5 -63.5t277.5 -180.5l-98 -86q-90 96 -227.5 152.5t-288.5 56.5q-128 0 -249.5 -50.5t-212.5 -135t-146.5 -203t-55.5 -246.5q0 -153 77.5 -273t211.5 -184.5t299 -64.5q103 0 209.5 28t187.5 77l86 399 h-450l26 121h576l-127 -600q-119 -71 -257.5 -109.5t-271.5 -38.5q-191 0 -352 78t-259.5 226.5t-98.5 338.5z" />
<glyph unicode="H" horiz-adv-x="1689" d="M143 0l285 1337h137l-119 -553h893l119 553h137l-284 -1337h-137l139 664h-893l-139 -664h-138z" />
<glyph unicode="I" horiz-adv-x="659" d="M143 0l285 1337h137l-284 -1337h-138z" />
<glyph unicode="J" horiz-adv-x="1378" d="M4 360l125 46q34 -154 141.5 -234t278.5 -80q159 0 277.5 89.5t154.5 250.5l190 905h138l-193 -919q-46 -215 -202.5 -333t-372.5 -118q-215 0 -354.5 98.5t-182.5 294.5z" />
<glyph unicode="K" horiz-adv-x="1501" d="M143 0l285 1337h137l-172 -792l967 792h172l-627 -520l447 -817h-158l-393 735l-441 -360l-79 -375h-138z" />
<glyph unicode="L" horiz-adv-x="1271" d="M143 0l285 1337h137l-258 -1214h860l-26 -123h-998z" />
<glyph unicode="M" horiz-adv-x="1875" d="M143 0l285 1337h143l338 -880h4l711 880h156l-283 -1337h-137l231 1094h-10l-696 -861h-37l-332 861h-10l-232 -1094h-131z" />
<glyph unicode="N" horiz-adv-x="1699" d="M143 0l285 1337h129l670 -1124h2l239 1124h138l-285 -1337h-129l-672 1124h-2l-237 -1124h-138z" />
<glyph unicode="O" horiz-adv-x="1746" d="M158 612q0 152 64.5 292t172.5 241.5t254.5 162t304.5 60.5q145 0 272 -50t216.5 -135.5t141.5 -203.5t52 -250q0 -204 -111 -380.5t-296 -279t-395 -102.5q-145 0 -271 50.5t-214.5 137t-139.5 205.5t-51 252zM303 612q0 -143 68 -262.5t190.5 -189.5t272.5 -70 q173 0 324.5 86t242 234t90.5 319q0 142 -70 260.5t-193.5 188t-273.5 69.5q-174 0 -324 -85.5t-238.5 -232t-88.5 -317.5z" />
<glyph unicode="P" horiz-adv-x="1531" d="M143 0l285 1337h682q108 0 184 -24.5t131 -81.5q103 -103 103 -248q0 -157 -125 -276q-138 -138 -397 -138h-605l-120 -569h-138zM428 690h584q199 0 303 101q76 76 76 182q0 104 -68 172q-69 69 -225 69h-559z" />
<glyph unicode="Q" horiz-adv-x="1746" d="M158 614q0 152 65.5 292.5t174 241t254.5 160.5t300 60q182 0 338 -81t251 -230.5t95 -333.5q0 -192 -100.5 -358.5t-267.5 -272.5l205 -285l-134 -43l-190 267q-153 -64 -313 -64q-183 0 -337.5 82t-247.5 231.5t-93 333.5zM301 623q0 -147 70 -269t193 -193t272 -71 q119 0 237 45l-180 254l131 43l168 -235q135 88 217 224t82 294q0 146 -71 268.5t-195 193t-273 70.5q-167 0 -317 -83t-242 -227.5t-92 -313.5z" />
<glyph unicode="R" horiz-adv-x="1622" d="M143 0l285 1337h700q213 0 318 -108q100 -100 100 -246q0 -152 -112.5 -267t-292.5 -136l211 -580h-152l-196 569h-603l-120 -569h-138zM428 690h653q140 0 234 82t94 203q0 100 -68 168q-40 39 -93 55t-142 16h-567z" />
<glyph unicode="S" horiz-adv-x="1519" d="M66 309l102 84q110 -143 270.5 -225t366.5 -82q83 0 156 15t134.5 46t97.5 85t36 126q0 47 -15.5 85.5t-49 66.5t-69.5 48t-93.5 37t-103.5 27t-116 23q-79 15 -133 27.5t-118.5 32.5t-106 45t-78.5 59.5t-54.5 81t-17.5 104.5q0 75 26.5 137.5t72 105.5t108.5 72.5 t134 43.5t149 14q182 0 355.5 -64.5t293.5 -189.5l-104 -84q-89 109 -240 165t-309 56q-51 0 -98.5 -7.5t-93 -25t-79.5 -43.5t-54.5 -66t-20.5 -89q0 -31 7 -56.5t24.5 -46t35 -36t50 -29.5t56.5 -23.5t69.5 -20t73 -16.5t81.5 -16q214 -39 312 -77q235 -92 246 -293 q1 -11 1 -21q0 -135 -76.5 -231t-202.5 -141.5t-288 -45.5q-461 0 -737 342z" />
<glyph unicode="T" horiz-adv-x="1269" d="M176 1214l27 123h1169l-26 -123h-515l-258 -1214h-137l256 1214h-516z" />
<glyph unicode="U" horiz-adv-x="1632" d="M219 410q0 97 33 254q5 22 30.5 143t59.5 285.5t51 244.5h137l-143 -688q-31 -153 -31 -219q0 -106 58 -184.5t152.5 -117t211.5 -38.5q175 0 299 90t160 260l188 897h140l-193 -913q-48 -222 -208.5 -339.5t-385.5 -117.5q-154 0 -280.5 53t-202.5 155.5t-76 234.5z" />
<glyph unicode="V" horiz-adv-x="1523" d="M238 1337h147l287 -1167h10l780 1167h156l-905 -1337h-138z" />
<glyph unicode="W" horiz-adv-x="2062" d="M262 1337h146l116 -1132h11q129 241 602 1132h110l121 -1132h12q433 824 596 1132h150l-717 -1337h-145l-117 1085h-12q-345 -643 -578 -1085h-147z" />
<glyph unicode="X" horiz-adv-x="1433" d="M-57 0l723 696l-379 641h166l313 -544l557 544h174l-659 -637l415 -700h-166l-350 604l-618 -604h-176z" />
<glyph unicode="Y" horiz-adv-x="1353" d="M225 1337h162l326 -579l575 579h172l-698 -702l-135 -635h-138l136 637z" />
<glyph unicode="Z" horiz-adv-x="1378" d="M-2 0l18 88l1139 1126h-891l27 123h1089l-20 -88l-1137 -1126h977l-26 -123h-1176z" />
<glyph unicode="[" horiz-adv-x="702" d="M25 -315l366 1726h414l-25 -111h-286l-320 -1505h287l-23 -110h-413z" />
<glyph unicode="\" horiz-adv-x="1019" d="M281 1337h118l367 -1581h-119z" />
<glyph unicode="]" horiz-adv-x="704" d="M-104 -315l24 110h287l319 1505h-286l22 111h414l-367 -1726h-413z" />
<glyph unicode="^" d="M213 434l442 821h140l438 -821h-141l-361 688h-12l-363 -688h-143z" />
<glyph unicode="_" horiz-adv-x="1228" d="M-190 -295l18 90h1251l-18 -90h-1251z" />
<glyph unicode="`" horiz-adv-x="1024" d="M399 1409l144 4l182 -299l-115 -4z" />
<glyph unicode="a" horiz-adv-x="1218" d="M51 279q0 103 60 180t156.5 115t213.5 38q109 0 220.5 -37.5t177.5 -123.5l34 153q9 53 9 66q0 50 -28.5 88t-75 59t-98 31t-106.5 10q-91 0 -180.5 -24.5t-150.5 -55.5l-27 109q178 80 362 80q70 0 141.5 -13.5t140 -42t111.5 -81.5t44 -123q0 -17 -2.5 -35t-9.5 -51.5 t-11 -55.5l-86 -411q-13 -64 -13 -112q0 -23 3 -42h-129q-2 16 -2 34q0 40 8 91q-73 -57 -177 -101t-218 -44q-71 0 -135.5 18.5t-117 54t-83.5 94t-31 132.5zM180 289q0 -68 42 -116t103.5 -68.5t135.5 -20.5q120 0 231 54t137 87l27 125q-49 83 -156 123.5t-213 40.5 q-129 0 -218 -59t-89 -166z" />
<glyph unicode="b" horiz-adv-x="1273" d="M68 0q34 86 65 225l256 1209h127l-133 -627q166 160 360 160q171 0 280.5 -124t109.5 -311q0 -105 -39.5 -206t-107 -178.5t-166.5 -125.5t-210 -49h-10q-114 -1 -208 45q-98 48 -156 136q-16 -73 -50 -154h-118zM266 244q53 -73 143 -116.5t193 -43.5q84 1 157.5 38 t124 98.5t80 141t29.5 164.5q0 144 -79 237t-205 93q-87 0 -179.5 -42.5t-173.5 -125.5z" />
<glyph unicode="c" horiz-adv-x="1144" d="M104 426q0 141 74.5 265.5t204 200t281.5 75.5q124 0 233 -48.5t188 -140.5l-100 -73q-61 71 -146.5 111t-181.5 40q-113 0 -209 -60.5t-150 -159t-54 -210.5q0 -147 98 -244.5t248 -97.5q163 0 315 117l68 -88q-51 -46 -157.5 -93t-240.5 -47q-207 0 -339 124.5 t-132 328.5z" />
<glyph unicode="d" horiz-adv-x="1273" d="M102 406q0 139 66.5 266.5t189 210.5t269.5 84h8q220 0 360 -170l135 637h127l-258 -1211q-28 -143 -30 -223h-119q0 61 16 139q-179 -166 -370 -166q-171 0 -282.5 124.5t-111.5 308.5zM244 420q0 -141 80 -238.5t211 -97.5q174 0 344 170l94 444q-56 71 -145 114.5 t-191 43.5q-111 -1 -203 -65t-141 -163t-49 -208z" />
<glyph unicode="e" horiz-adv-x="1206" d="M104 412q0 150 75.5 278.5t201.5 202.5t272 74q91 0 169.5 -25.5t138.5 -75t94.5 -128.5t34.5 -179q0 -39 -9 -92h-848q-2 -16 -2 -47q0 -144 93.5 -240t244.5 -96q177 0 351 113l67 -88q-211 -136 -440 -136q-200 0 -321.5 124.5t-121.5 314.5zM256 567h696q1 13 1 26 q0 117 -77 189q-85 80 -223 80q-137 0 -245 -82.5t-152 -212.5z" />
<glyph unicode="f" horiz-adv-x="706" d="M129 840l21 100h192l51 240q15 73 50.5 128.5t81.5 86.5t94.5 46t97.5 15q60 0 120.5 -21t90.5 -51l-51 -102q-24 26 -71 43.5t-89 17.5q-71 0 -125 -42.5t-72 -122.5l-51 -238h303l-22 -100h-301l-177 -840h-127l177 840h-193z" />
<glyph unicode="g" horiz-adv-x="1271" d="M14 -291l72 86q59 -73 158.5 -113t212.5 -40q144 0 232.5 71.5t113.5 186.5l51 233q-170 -160 -358 -160q-173 0 -283.5 123.5t-110.5 309.5q0 143 66.5 271t187.5 208.5t267 81.5h13q111 0 205 -47q100 -50 160 -136q17 85 58 156h119q-51 -105 -74 -223l-176 -832 q-35 -162 -163.5 -256t-313.5 -94q-132 0 -246.5 43.5t-190.5 130.5zM244 414q0 -143 78.5 -236.5t205.5 -93.5q86 0 178 43t173 127l92 440q-52 73 -144 118q-90 44 -190 44h-4q-168 -3 -278.5 -134.5t-110.5 -307.5z" />
<glyph unicode="h" horiz-adv-x="1236" d="M82 0l305 1434h127l-135 -629q190 162 366 162q138 0 230 -82.5t92 -214.5q0 -41 -18 -133l-115 -537h-127l117 551q16 78 16 115q0 90 -65.5 140t-165.5 50q-168 0 -355 -170l-145 -686h-127z" />
<glyph unicode="i" horiz-adv-x="528" d="M84 0l197 940h127l-197 -940h-127zM336 1307q0 36 28.5 62t67.5 26q35 0 58.5 -21.5t23.5 -52.5q0 -37 -29 -62.5t-69 -25.5q-35 0 -57.5 21.5t-22.5 52.5z" />
<glyph unicode="j" horiz-adv-x="528" d="M-203 -365q210 32 256 240l230 1065h127l-230 -1065q-15 -74 -47 -133.5t-71 -97t-85 -63t-87 -36t-80 -10.5zM336 1307q0 36 28.5 62t67.5 26q35 0 58.5 -21.5t23.5 -52.5q0 -37 -29 -62.5t-69 -25.5q-35 0 -57.5 21.5t-22.5 52.5z" />
<glyph unicode="k" horiz-adv-x="1120" d="M82 0l305 1434h129l-207 -967l629 473h174l-453 -336l312 -604h-142l-270 530l-280 -206l-68 -324h-129z" />
<glyph unicode="l" horiz-adv-x="561" d="M98 0l305 1434h127l-305 -1434h-127z" />
<glyph unicode="m" horiz-adv-x="1826" d="M86 0l154 731q19 93 19 174q0 18 -1 35h115q3 -26 3 -54q0 -42 -7 -91q180 172 362 172q102 0 174 -53t94 -142q83 86 181.5 140.5t195.5 54.5q119 0 201 -83t82 -214q0 -42 -21 -135l-112 -535h-129l114 537q19 100 19 127q0 89 -55 140.5t-140 51.5q-157 0 -323 -170 l-142 -686h-129l140 666q2 14 2 27q0 71 -46 113q-54 50 -147 50q-162 0 -332 -170l-145 -686h-127z" />
<glyph unicode="n" horiz-adv-x="1241" d="M86 0l154 731q19 93 19 174q0 18 -1 35h115q3 -26 3 -54q0 -42 -7 -91q192 172 379 172q139 0 231 -83.5t92 -215.5q0 -41 -18 -133l-115 -535h-129l115 537q18 104 18 127q0 90 -66 141t-169 51q-171 0 -349 -170l-145 -686h-127z" />
<glyph unicode="o" horiz-adv-x="1263" d="M106 434q0 142 72 264.5t198.5 195.5t276.5 73q207 0 338 -131.5t131 -327.5q0 -107 -43.5 -205.5t-117 -171t-177 -115.5t-217.5 -43q-203 0 -332 131t-129 330zM238 438q0 -152 95 -255t245 -103q115 0 210.5 59.5t149 156.5t53.5 208q0 151 -97 254.5t-251 103.5 q-112 0 -206 -60t-146.5 -157t-52.5 -207z" />
<glyph unicode="p" horiz-adv-x="1271" d="M-8 -434l244 1143q25 114 25 202q0 15 -1 29h119q1 -17 1 -35q0 -47 -9 -104q170 166 370 166q171 0 282.5 -124t111.5 -308q0 -139 -66.5 -266.5t-189 -210.5t-269.5 -85h-8q-220 0 -360 168l-123 -575h-127zM266 244q57 -71 145.5 -115.5t188.5 -44.5q109 1 200.5 64 t142 162.5t50.5 209.5q0 142 -79.5 239t-208.5 97q-176 0 -345 -166z" />
<glyph unicode="q" horiz-adv-x="1273" d="M104 408q0 142 65.5 269t187.5 208t270 82h9q113 0 208 -46q99 -48 157 -137q17 72 58 156h119q-49 -107 -76 -233l-242 -1141h-127l121 565q-168 -158 -358 -158q-172 0 -282 124t-110 311zM244 414q0 -143 78.5 -236.5t205.5 -93.5q87 0 178.5 42.5t172.5 125.5l94 442 q-55 73 -146 117.5t-192 44.5q-84 -1 -157.5 -38t-124 -98.5t-80 -141t-29.5 -164.5z" />
<glyph unicode="r" horiz-adv-x="794" d="M86 0l152 717q19 99 19 186q0 19 -1 37h119q1 -18 1 -37q0 -58 -11 -129q39 45 65 72t65.5 59t81.5 47t89 15q46 0 85.5 -14.5t59.5 -41.5l-33 -112q-19 22 -56 33.5t-73 11.5q-133 0 -295 -180l-141 -664h-127z" />
<glyph unicode="s" horiz-adv-x="1124" d="M31 168l69 88q84 -83 198.5 -131.5t231.5 -48.5q72 0 135.5 18t110.5 62.5t47 109.5q0 35 -15 61.5t-36.5 43t-60 30.5t-70 21t-82.5 16h-1h-1l-1 1h-1h-1h-1h-1h-1q-169 30 -235 59q-135 62 -136 196q0 130 107 203.5t268 73.5q119 0 236.5 -43t203.5 -119l-69 -90 q-70 65 -173.5 105t-199.5 40q-98 0 -171 -39.5t-73 -115.5q0 -37 19 -63.5t59.5 -43.5t77 -25.5t98.5 -19.5q42 -8 62.5 -11.5t60.5 -12.5t61 -16.5t54 -20.5t51 -26t40.5 -33t34 -42.5t19.5 -52t8 -63.5q0 -99 -61.5 -170.5t-157 -104.5t-211.5 -33q-137 0 -267 50.5 t-226 146.5z" />
<glyph unicode="t" horiz-adv-x="774" d="M115 840l22 100h193l61 289h127l-61 -289h311l-23 -100h-309l-123 -582q-12 -54 -12 -74q0 -52 36.5 -78t96.5 -26q37 0 89 10.5t81 24.5l-2 -101q-34 -20 -97.5 -33.5t-115.5 -13.5q-58 0 -105 17.5t-79.5 62.5t-32.5 113q0 38 10 90l125 590h-192z" />
<glyph unicode="u" horiz-adv-x="1239" d="M133 274q0 37 19 134l114 532h127l-112 -537q-21 -95 -21 -120q0 -94 67 -146.5t169 -52.5q164 0 348 168l147 688h127l-151 -717q-31 -144 -33 -223h-117v9q0 43 17 134q-194 -170 -379 -170q-140 0 -231 83.5t-91 217.5z" />
<glyph unicode="v" horiz-adv-x="1095" d="M143 940h136l163 -770h13l499 770h140l-617 -940h-119z" />
<glyph unicode="w" horiz-adv-x="1587" d="M168 940h131l84 -776h10l412 776h131l90 -776h10l400 776h139l-518 -940h-137l-82 760h-13l-407 -760h-137z" />
<glyph unicode="x" horiz-adv-x="1110" d="M-45 0l510 483l-295 457h158l225 -377l385 377h166l-483 -459l301 -481h-156l-236 399l-407 -399h-168z" />
<glyph unicode="y" horiz-adv-x="1103" d="M27 -434l331 469l-217 905h135l173 -772h8l530 772h141l-960 -1374h-141z" />
<glyph unicode="z" horiz-adv-x="1054" d="M-10 0l18 78l780 762h-604l23 100h780l-18 -78l-781 -762h680l-22 -100h-856z" />
<glyph unicode="{" horiz-adv-x="759" d="M45 502l27 125q96 0 182 66.5t108 170.5l46 211q18 86 42.5 143.5t58 96.5t86 60t116 29.5t157.5 8.5l-24 -110q-155 0 -217 -44t-92 -184l-46 -211q-27 -123 -116 -204t-187 -87q0 -2 -1 -7.5t-1 -8.5q189 -4 189 -182q0 -48 -11 -99l-55 -260q-12 -61 -12 -100 q0 -71 51.5 -96t177.5 -25l-24 -110q-189 0 -263.5 38t-74.5 150q0 61 18 143l56 260q8 39 8 74q0 152 -199 152z" />
<glyph unicode="|" horiz-adv-x="716" d="M301 -625v2472h119v-2472h-119z" />
<glyph unicode="}" horiz-adv-x="759" d="M-109 -315l23 110q154 0 217.5 42.5t91.5 178.5l56 260q59 277 301 281l2 16q-80 5 -134.5 65t-54.5 155q0 21 8 71l45 211q13 63 13 101q0 75 -51.5 101t-176.5 26l25 110q187 0 261.5 -39.5t74.5 -152.5q0 -59 -19 -146l-45 -211q-6 -27 -6 -51q0 -84 57 -135t142 -51 l-29 -125q-238 0 -286 -226l-56 -260q-23 -105 -54 -168t-86.5 -100t-128 -50t-190.5 -13z" />
<glyph unicode="~" d="M123 477q95 106 178 159.5t170 53.5q148 0 281 -129q25 -23 32 -29t32.5 -25.5t41.5 -27t43 -15t55 -7.5q59 0 129 41.5t140 117.5l98 -59q-94 -109 -189.5 -165t-181.5 -56q-52 0 -96.5 12t-84.5 39t-57 41t-52 47q-51 45 -95 69.5t-100 24.5q-107 0 -250 -153z" />
<glyph unicode="&#xa1;" horiz-adv-x="573" d="M-31 -393l70 323l158 613h92l-101 -613l-69 -323h-150zM201 856q0 45 35 77t86 32q44 0 73 -28.5t29 -68.5q0 -44 -35 -76t-84 -32q-45 0 -74.5 28t-29.5 68z" />
<glyph unicode="&#xa2;" horiz-adv-x="1153" d="M98 387q0 94 41 182t110.5 154t168 105.5t207.5 39.5q8 0 25.5 -1t25.5 -1l59 185h94l-63 -199q155 -38 266 -152l-98 -73q-81 81 -203 116l-207 -655q14 -2 43 -2q154 0 301 100l68 -86q-46 -41 -145.5 -83t-225.5 -42q-15 0 -73 5l-80 -252h-95l84 270 q-139 39 -221 141.5t-82 247.5zM238 387q0 -95 53.5 -169.5t144.5 -108.5l205 649h-23q-159 0 -269.5 -111.5t-110.5 -259.5z" />
<glyph unicode="&#xa3;" horiz-adv-x="1464" d="M35 0l20 109h78q126 0 177.5 48.5t76.5 186.5l35 203h-272l18 100h272l31 170q14 81 62 145.5t114 103.5t138.5 59t142.5 20q100 0 216.5 -37.5t217.5 -101.5l-88 -95q-87 50 -187.5 81.5t-177.5 31.5q-65 0 -127.5 -21t-113 -69.5t-62.5 -116.5l-31 -170h545l-20 -100 h-541l-35 -203q-18 -105 -61.5 -158.5t-138.5 -76.5h905l-21 -109h-1173z" />
<glyph unicode="&#xa4;" horiz-adv-x="1650" d="M104 47l226 174q-72 116 -72 260q0 115 46.5 220t129.5 186l-184 215l104 67l176 -202q160 112 349 112q105 0 198 -39t162 -108l219 170l88 -90l-229 -178q76 -123 76 -261q0 -115 -47.5 -219t-131.5 -186l187 -215l-109 -66l-174 203q-163 -113 -354 -113 q-213 0 -358 148l-213 -168zM395 483q0 -159 107.5 -270t263.5 -111q126 0 238.5 62.5t180.5 171.5t68 235q0 160 -109.5 271.5t-266.5 111.5q-126 0 -237.5 -63.5t-178 -172.5t-66.5 -235z" />
<glyph unicode="&#xa5;" horiz-adv-x="1531" d="M117 393l16 88h545l10 45l-78 123h-442l16 88h371l-236 379h162l295 -469l496 469h174l-397 -379h366l-18 -88h-441l-131 -125l-10 -43h549l-18 -88h-549l-86 -393h-136l84 393h-542z" />
<glyph unicode="&#xa6;" horiz-adv-x="716" d="M301 397h119v-860h-119v860zM301 782v846h119v-846h-119z" />
<glyph unicode="&#xa7;" horiz-adv-x="1439" d="M100 438q0 149 140 256q70 51 188 80q-23 14 -37 39q-18 32 -18 78q0 65 36 116.5t95 81.5t127 45t139 15q121 0 240 -41.5t213 -116.5l-76 -86q-77 61 -178.5 97t-206.5 36q-42 0 -81 -6t-77 -20t-62 -41.5t-28 -65.5q-5 -35 14 -57q18 -22 64.5 -40.5t85.5 -27.5 t133 -28q319 -66 420 -201q49 -64 49 -152q0 -77 -37 -145t-104 -115q-66 -48 -187 -78q20 -17 33 -36q23 -38 23 -78q0 -67 -34.5 -118.5t-92.5 -81t-125 -44t-140 -14.5q-127 0 -246.5 40t-211.5 115l78 86q165 -131 380 -131q44 0 85 6.5t81 21.5t64 44.5t24 69.5 q0 31 -20 51q-14 15 -35.5 27t-56 22t-56.5 15.5t-70.5 15t-64.5 12.5q-88 21 -153 41.5t-142.5 62t-117.5 93.5q-54 69 -54 157zM240 455q0 -64 39 -109q41 -54 117.5 -84.5t195.5 -58.5q6 -1 29.5 -6t31 -6.5t29.5 -6t31.5 -6.5t29 -6.5t30.5 -8t28 -8.5t29 -9t26 -9.5 t27 -11.5q80 12 141 55q119 87 119 199q0 61 -37 108q-39 53 -120 86.5t-198 59.5q-207 41 -288 80q-85 -17 -146 -60q-114 -81 -114 -198z" />
<glyph unicode="&#xa8;" horiz-adv-x="1024" d="M367 1214q0 34 27 59t65 25q32 0 54 -21t22 -50q0 -33 -28 -57.5t-65 -24.5q-33 0 -54 19.5t-21 49.5zM762 1214q0 34 27 59t65 25q32 0 54 -21t22 -50q0 -34 -27 -58t-65 -24q-33 0 -54.5 19.5t-21.5 49.5z" />
<glyph unicode="&#xa9;" horiz-adv-x="2093" d="M141 555q0 170 72.5 324.5t194 265t289 176t350.5 65.5q184 0 351 -65.5t288.5 -176t193.5 -265t72 -324.5t-72 -325t-193.5 -266.5t-288.5 -177t-351 -65.5q-244 0 -452.5 111t-331 303.5t-122.5 419.5zM246 555q0 -152 64 -289.5t172 -237t255.5 -158t309.5 -58.5 q163 0 311 58.5t255 158t170.5 237t63.5 289.5q0 150 -63.5 287.5t-170.5 237.5t-255 159t-311 59q-161 0 -309.5 -59t-256 -159t-171.5 -237.5t-64 -287.5zM569 555q0 190 136.5 317t355.5 127q108 0 214.5 -41.5t188.5 -107.5l-49 -84q-72 63 -165 98t-189 35 q-166 0 -271.5 -99.5t-105.5 -244.5q0 -140 110.5 -227.5t272.5 -87.5q120 0 198 31.5t160 93.5l50 -86q-89 -69 -178.5 -104.5t-229.5 -35.5q-136 0 -249 51t-181 147t-68 218z" />
<glyph unicode="&#xaa;" horiz-adv-x="929" d="M98 657q0 112 96.5 178t235.5 66q81 0 164.5 -25t136.5 -83l25 104q6 30 6 43q0 44 -38.5 75t-90 43.5t-107.5 12.5q-69 0 -138.5 -18t-113.5 -41l-20 92q125 59 274 59q55 0 112 -10.5t112 -31.5t90 -60t35 -90q0 -19 -19 -105l-63 -301q-14 -65 -7 -114h-112 q-4 29 4 90q-146 -111 -295 -111q-115 0 -201 60t-86 167zM213 668q-3 -72 58 -108t147 -36q64 0 130 23.5t100.5 45.5t45.5 34l19 80q-34 51 -116.5 79.5t-162.5 28.5q-88 0 -154 -37.5t-67 -109.5z" />
<glyph unicode="&#xab;" horiz-adv-x="1089" d="M96 459l15 71l268 250h156l-312 -284l-2 -15l193 -272h-144zM530 483l5 23l294 274h154l-309 -284l-2 -15l190 -272h-141z" />
<glyph unicode="&#xac;" d="M172 713v114h1100v-610h-125v496h-975z" />
<glyph unicode="&#xad;" horiz-adv-x="825" d="M127 451l23 124h526l-23 -124h-526z" />
<glyph unicode="&#xae;" horiz-adv-x="1320" d="M209 858q0 136 76.5 254.5t208 189t282.5 70.5q203 0 339 -127.5t136 -308.5q0 -140 -79 -258.5t-211.5 -187t-284.5 -68.5q-203 0 -335 125t-132 311zM268 864q0 -164 117 -275.5t297 -111.5q134 0 251 61t187 166t70 226q0 162 -119.5 275.5t-300.5 113.5 q-133 0 -249 -62.5t-184.5 -167.5t-68.5 -225zM444 670l115 481h303q66 0 108 -38t42 -91q0 -54 -43.5 -96.5t-112.5 -51.5l80 -204h-80l-74 200h-217l-49 -200h-72zM580 930h241q48 0 83.5 25t35.5 61q0 31 -24 53.5t-60 22.5h-240z" />
<glyph unicode="&#xaf;" horiz-adv-x="1024" d="M383 1180l20 100h512l-20 -100h-512z" />
<glyph unicode="&#xb0;" horiz-adv-x="1026" d="M195 913q0 158 115 267.5t311 109.5q171 0 266.5 -89t95.5 -224q0 -154 -119.5 -264.5t-314.5 -110.5q-169 0 -261.5 89t-92.5 222zM309 922q0 -94 65.5 -157t184.5 -63q138 0 223.5 78.5t85.5 188.5q0 95 -68.5 159t-189.5 64q-139 0 -220 -78.5t-81 -191.5z" />
<glyph unicode="&#xb1;" d="M172 0v115h1100v-115h-1100zM172 608v115h490v375h124v-375h486v-115h-486v-375h-124v375h-490z" />
<glyph unicode="&#xb2;" horiz-adv-x="972" d="M70 451l30 145q62 275 480 340q31 4 48 7t53 10.5t58.5 15t52.5 21t47 29t29.5 37.5t12.5 48q0 41 -25 72.5t-65 47.5t-80.5 23.5t-79.5 7.5q-87 0 -162 -25.5t-158 -72.5l-51 92q71 36 116 56t117.5 38.5t143.5 18.5q44 0 91 -7t97 -25.5t89.5 -45t64.5 -70t25 -96.5 q0 -45 -16 -83t-42 -64.5t-63.5 -49t-74.5 -36.5t-81.5 -25.5t-78.5 -18t-72 -12.5q-9 -1 -13 -2q-146 -24 -231.5 -76t-112.5 -159l-10 -45h655l-20 -96h-774z" />
<glyph unicode="&#xb3;" horiz-adv-x="1110" d="M82 659l88 76q79 -99 195.5 -151t255.5 -52q57 0 111 10.5t102.5 32.5t78 60t29.5 88q0 38 -20.5 68.5t-51 47t-59.5 25t-51 8.5h-185l21 97h176q67 0 119.5 36t52.5 93q0 53 -40.5 90t-92 52t-104.5 15q-176 0 -359 -110l-57 82q220 135 424 135q54 0 113 -14.5 t114 -42.5t91 -76.5t36 -108.5q0 -66 -48 -120.5t-118 -75.5q62 -19 110 -69.5t48 -133.5q0 -76 -41 -134.5t-108 -92.5t-145 -51t-161 -17q-159 0 -294 57t-230 176z" />
<glyph unicode="&#xb4;" horiz-adv-x="1024" d="M524 1114l183 299l143 -4l-213 -299z" />
<glyph unicode="&#xb5;" horiz-adv-x="1245" d="M-35 -471l301 1411h127l-112 -537q-21 -79 -21 -120q0 -88 67.5 -143.5t170.5 -55.5q165 0 346 168l147 688h127l-151 -717q-31 -144 -33 -223h-119q0 57 16 143q-190 -170 -376 -170q-88 0 -152 38t-84 106l-125 -588h-129z" />
<glyph unicode="&#xb6;" horiz-adv-x="1755" d="M190 909q0 204 126 316t346 112h1013l-375 -1759h-114l350 1649h-250l-350 -1649h-115l207 969h-455q-71 0 -139 25t-122.5 70t-88 114.5t-33.5 152.5zM315 924q0 -81 42.5 -143.5t105.5 -93t133 -30.5h455l120 570h-507q-72 0 -133 -17t-110.5 -52t-77.5 -95t-28 -139z " />
<glyph unicode="&#xb7;" d="M600 518q0 46 35.5 79.5t87.5 33.5t87.5 -33.5t35.5 -79.5q0 -47 -35 -78.5t-88 -31.5q-51 0 -87 31.5t-36 78.5z" />
<glyph unicode="&#xb8;" horiz-adv-x="1024" d="M14 -379l37 70q68 -25 102.5 -36.5t95.5 -24.5t113 -13q82 0 134.5 25.5t52.5 74.5q0 43 -37.5 63.5t-95.5 20.5q-50 0 -90 -6l-31 49l113 176h90l-101 -163q27 6 76 6q78 0 135.5 -38t57.5 -108q0 -86 -84.5 -133t-216.5 -47q-64 0 -135 15.5t-105 27.5t-111 41z" />
<glyph unicode="&#xb9;" horiz-adv-x="608" d="M154 1120v99l307 118h121l-187 -886h-121l164 778z" />
<glyph unicode="&#xba;" horiz-adv-x="958" d="M137 770q0 105 59 196t157 144t208 53q152 0 257.5 -98t105.5 -240q0 -161 -128 -278t-300 -117q-152 0 -255.5 97.5t-103.5 242.5zM252 774q0 -107 70 -177.5t182 -70.5q130 0 218.5 87.5t88.5 207.5q0 106 -72.5 177t-187.5 71q-128 0 -213.5 -87.5t-85.5 -207.5z" />
<glyph unicode="&#xbb;" horiz-adv-x="1091" d="M80 209l311 287l2 14l-190 270h141l191 -272l-5 -23l-294 -276h-156zM530 209l310 287l2 14l-191 270h142l176 -248l-15 -71l-270 -252h-154z" />
<glyph unicode="&#xbc;" horiz-adv-x="2119" d="M154 1120v99l305 118h123l-187 -886h-121l164 778zM350 0l899 1337h111l-899 -1337h-111zM965 211l20 88l850 588h115l-123 -578h182l-20 -98h-183l-45 -211h-119l44 211h-721zM1165 309h541l90 424h-14l-617 -420v-4z" />
<glyph unicode="&#xbd;" horiz-adv-x="2027" d="M154 1120v99l305 118h123l-187 -886h-121l164 778zM350 0l899 1337h111l-899 -1337h-111zM1028 0l33 145q60 275 477 340q31 4 48 7t53 10.5t58.5 15t52.5 21t47 29t29.5 37.5t12.5 48q0 41 -25 72.5t-65 48t-80.5 24t-79.5 7.5q-86 0 -160 -25.5t-157 -72.5l-53 92 q70 36 115.5 56t117.5 38t143 18q57 0 116.5 -12.5t118 -38.5t95.5 -76t37 -116q0 -191 -289 -262q-50 -12 -151 -29q-70 -12 -122 -28t-98.5 -42.5t-77 -68t-44.5 -97.5l-13 -45h658l-21 -96h-776z" />
<glyph unicode="&#xbe;" horiz-adv-x="2625" d="M82 659l88 76q79 -99 194.5 -151t253.5 -52q57 0 112 10.5t104 32.5t78.5 60t29.5 88q0 38 -20.5 68.5t-51 47t-59.5 25t-51 8.5h-185l21 97h176q67 0 119.5 36t52.5 93q0 53 -40.5 90t-92 52t-104.5 15q-176 0 -359 -110l-57 82q220 135 424 135q54 0 113 -14.5 t114 -42.5t91 -76.5t36 -108.5q0 -66 -48 -120.5t-118 -75.5q37 -12 70 -34t60.5 -67t27.5 -102q0 -76 -41 -134.5t-108 -92.5t-145 -51t-161 -17q-159 0 -294 57t-230 176zM856 0l899 1337h111l-899 -1337h-111zM1470 211l21 88l850 588h115l-123 -578h182l-21 -98h-182 l-45 -211h-119l43 211h-721zM1671 309h541l90 424h-14l-617 -420v-4z" />
<glyph unicode="&#xbf;" horiz-adv-x="1234" d="M-6 -123q0 103 57 179t160 137q39 23 105.5 56.5t110 58t92.5 59t82.5 78.5t51.5 98h123q-17 -77 -55 -137t-94.5 -103t-106.5 -71.5t-122 -63t-109 -57.5q-39 -21 -63 -37t-51.5 -42t-40.5 -59.5t-13 -76.5q0 -57 31.5 -99.5t82 -65.5t104 -33.5t107.5 -10.5 q130 0 234 40t205 115l67 -86q-118 -87 -237.5 -133.5t-272.5 -46.5q-58 0 -116 8.5t-119 30t-107.5 54.5t-76 86.5t-29.5 121.5zM645 856q0 44 36 76.5t85 32.5q45 0 74.5 -28.5t29.5 -68.5q0 -45 -34.5 -76.5t-85.5 -31.5q-44 0 -74.5 28t-30.5 68z" />
<glyph unicode="&#xc0;" horiz-adv-x="1527" d="M-43 0l905 1337h135l338 -1337h-143l-107 434h-688l-288 -434h-152zM471 545h588l-154 633h-10zM666 1751l168 6l268 -241l-117 -9z" />
<glyph unicode="&#xc1;" horiz-adv-x="1527" d="M-43 0l905 1337h135l338 -1337h-143l-107 434h-688l-288 -434h-152zM471 545h588l-154 633h-10zM838 1516l268 241l168 -6l-320 -244z" />
<glyph unicode="&#xc2;" horiz-adv-x="1527" d="M-43 0l905 1337h135l338 -1337h-143l-107 434h-688l-288 -434h-152zM471 545h588l-154 633h-10zM676 1513l278 246h138l172 -246l-95 -6l-155 176l-232 -176z" />
<glyph unicode="&#xc3;" horiz-adv-x="1527" d="M-43 0l905 1337h135l338 -1337h-143l-107 434h-688l-288 -434h-152zM471 545h588l-154 633h-10zM655 1563q62 75 115 111t107 36q37 0 64.5 -14.5t62.5 -46.5q21 -18 34 -28t33 -19t39 -9q54 0 137 95l70 -43q-120 -150 -223 -150q-68 0 -131 55q-49 47 -68 56 q-17 8 -33 8q-9 0 -18 -2.5t-16.5 -5.5t-17.5 -10.5t-15.5 -12t-17 -15.5t-16 -15.5t-17 -18t-15.5 -16.5z" />
<glyph unicode="&#xc4;" horiz-adv-x="1527" d="M-43 0l905 1337h135l338 -1337h-143l-107 434h-688l-288 -434h-152zM471 545h588l-154 633h-10zM713 1610q0 35 26.5 60.5t65.5 25.5q32 0 54 -22t22 -52q0 -34 -27.5 -58t-65.5 -24q-33 0 -54 20t-21 50zM1108 1610q0 35 26.5 60.5t65.5 25.5q32 0 54 -22t22 -52 q0 -34 -27 -58t-65 -24q-33 0 -54.5 20t-21.5 50z" />
<glyph unicode="&#xc5;" horiz-adv-x="1527" d="M-43 0l905 1337h135l338 -1337h-143l-107 434h-688l-288 -434h-152zM471 545h588l-154 633h-10zM758 1597q0 89 68.5 150t183.5 61q100 0 157.5 -51t57.5 -127q0 -87 -71 -146t-185 -59q-99 0 -155 49t-56 123zM838 1604q0 -51 37.5 -83t99.5 -32q72 0 120 38.5t48 98.5 q0 52 -38.5 86.5t-100.5 34.5q-73 0 -119.5 -41t-46.5 -102z" />
<glyph unicode="&#xc6;" horiz-adv-x="2195" d="M-102 0l1155 1337h1173l-26 -123h-930l-96 -450h563l-27 -123h-563l-111 -518h975l-26 -123h-1111l93 434h-533l-366 -434h-170zM528 545h463l146 669h-41z" />
<glyph unicode="&#xc7;" horiz-adv-x="1601" d="M158 608q0 151 65.5 292t175 243t259 163.5t309.5 61.5q182 0 346.5 -76t275.5 -215l-108 -69q-92 110 -229.5 174.5t-290.5 64.5q-128 0 -249.5 -50.5t-212 -135t-145.5 -201.5t-55 -244q0 -111 44.5 -209.5t120.5 -167.5t180 -109t220 -40q134 0 263.5 47.5 t234.5 128.5l74 -92q-124 -95 -273 -151t-307 -56q-54 0 -106 6l-72 -116q27 6 76 6q78 0 135 -38t57 -108q0 -86 -84.5 -133t-216.5 -47q-64 0 -135 15.5t-104 27t-111 41.5l37 70q68 -25 102.5 -36.5t95.5 -24.5t113 -13q82 0 134 25.5t52 74.5q0 43 -37.5 63.5 t-95.5 20.5q-50 0 -90 -6l-31 49l93 146q-225 53 -367.5 219t-142.5 399z" />
<glyph unicode="&#xc8;" horiz-adv-x="1464" d="M143 0l285 1337h1067l-27 -123h-929l-97 -446h564l-27 -121h-561l-113 -524h975l-27 -123h-1110zM696 1751l168 6l269 -241l-117 -9z" />
<glyph unicode="&#xc9;" horiz-adv-x="1464" d="M143 0l285 1337h1067l-27 -123h-929l-97 -446h564l-27 -121h-561l-113 -524h975l-27 -123h-1110zM866 1516l269 241l168 -6l-320 -244z" />
<glyph unicode="&#xca;" horiz-adv-x="1464" d="M143 0l285 1337h1067l-27 -123h-929l-97 -446h564l-27 -121h-561l-113 -524h975l-27 -123h-1110zM705 1513l278 246h137l172 -246l-94 -6l-156 176l-231 -176z" />
<glyph unicode="&#xcb;" horiz-adv-x="1464" d="M143 0l285 1337h1067l-27 -123h-929l-97 -446h564l-27 -121h-561l-113 -524h975l-27 -123h-1110zM741 1610q0 34 27 60t66 26q32 0 53.5 -22t21.5 -52q0 -34 -27 -58t-65 -24q-33 0 -54.5 20t-21.5 50zM1137 1610q0 35 26.5 60.5t65.5 25.5q32 0 54 -22t22 -52 q0 -34 -27.5 -58t-65.5 -24q-33 0 -54 20t-21 50z" />
<glyph unicode="&#xcc;" horiz-adv-x="659" d="M143 0l285 1337h137l-284 -1337h-138zM229 1751l168 6l269 -241l-117 -9z" />
<glyph unicode="&#xcd;" horiz-adv-x="659" d="M143 0l285 1337h137l-284 -1337h-138zM399 1516l269 241l170 -6l-322 -244z" />
<glyph unicode="&#xce;" horiz-adv-x="659" d="M143 0l285 1337h137l-284 -1337h-138zM238 1513l278 246h137l172 -246l-94 -6l-156 176l-229 -176z" />
<glyph unicode="&#xcf;" horiz-adv-x="659" d="M143 0l285 1337h137l-284 -1337h-138zM274 1610q0 34 27 60t66 26q32 0 53.5 -22t21.5 -52q0 -34 -27 -58t-65 -24q-33 0 -54.5 20t-21.5 50zM670 1610q0 34 27 60t65 26q32 0 54 -22t22 -52q0 -34 -27.5 -58t-65.5 -24q-33 0 -54 20t-21 50z" />
<glyph unicode="&#xd0;" horiz-adv-x="1734" d="M127 647l23 111h204l123 579h481q173 0 284 -44t206 -132q83 -84 126.5 -193.5t43.5 -228.5q0 -139 -59.5 -273t-165.5 -239q-123 -112 -263 -169.5t-342 -57.5h-595l137 647h-203zM354 123h453q166 0 273.5 45t211.5 139q88 86 136.5 195.5t48.5 228.5q0 96 -36.5 186.5 t-103.5 157.5q-77 72 -160.5 105.5t-226.5 33.5h-360l-101 -456h451l-22 -111h-451z" />
<glyph unicode="&#xd1;" horiz-adv-x="1699" d="M143 0l285 1337h129l670 -1124h2l239 1124h138l-285 -1337h-129l-672 1124h-2l-237 -1124h-138zM735 1563q62 75 114.5 111t106.5 36q37 0 64.5 -14.5t62.5 -46.5q64 -56 107 -56q54 0 137 95l70 -43q-120 -150 -223 -150q-69 0 -132 55q-3 3 -13.5 13t-13.5 13 t-11.5 10.5t-12.5 9.5t-11 7t-12.5 6.5t-12 3t-13.5 1.5q-9 0 -18 -2.5t-16.5 -5.5t-17.5 -10.5t-15.5 -12t-17 -15.5t-16 -15.5t-17 -18t-15.5 -16.5z" />
<glyph unicode="&#xd2;" horiz-adv-x="1746" d="M158 612q0 152 64.5 292t172.5 241.5t254.5 162t304.5 60.5q145 0 272 -50t216.5 -135.5t141.5 -203.5t52 -250q0 -204 -111 -380.5t-296 -279t-395 -102.5q-145 0 -271 50.5t-214.5 137t-139.5 205.5t-51 252zM303 612q0 -143 68 -262.5t190.5 -189.5t272.5 -70 q173 0 324.5 86t242 234t90.5 319q0 142 -70 260.5t-193.5 188t-273.5 69.5q-174 0 -324 -85.5t-238.5 -232t-88.5 -317.5zM743 1751l168 6l269 -241l-117 -9z" />
<glyph unicode="&#xd3;" horiz-adv-x="1746" d="M158 612q0 152 64.5 292t172.5 241.5t254.5 162t304.5 60.5q145 0 272 -50t216.5 -135.5t141.5 -203.5t52 -250q0 -204 -111 -380.5t-296 -279t-395 -102.5q-145 0 -271 50.5t-214.5 137t-139.5 205.5t-51 252zM303 612q0 -143 68 -262.5t190.5 -189.5t272.5 -70 q173 0 324.5 86t242 234t90.5 319q0 142 -70 260.5t-193.5 188t-273.5 69.5q-174 0 -324 -85.5t-238.5 -232t-88.5 -317.5zM913 1516l269 241l168 -6l-320 -244z" />
<glyph unicode="&#xd4;" horiz-adv-x="1746" d="M158 612q0 152 64.5 292t172.5 241.5t254.5 162t304.5 60.5q145 0 272 -50t216.5 -135.5t141.5 -203.5t52 -250q0 -204 -111 -380.5t-296 -279t-395 -102.5q-145 0 -271 50.5t-214.5 137t-139.5 205.5t-51 252zM303 612q0 -143 68 -262.5t190.5 -189.5t272.5 -70 q173 0 324.5 86t242 234t90.5 319q0 142 -70 260.5t-193.5 188t-273.5 69.5q-174 0 -324 -85.5t-238.5 -232t-88.5 -317.5zM752 1513l278 246h137l172 -246l-94 -6l-155 176l-232 -176z" />
<glyph unicode="&#xd5;" horiz-adv-x="1746" d="M158 612q0 152 64.5 292t172.5 241.5t254.5 162t304.5 60.5q145 0 272 -50t216.5 -135.5t141.5 -203.5t52 -250q0 -204 -111 -380.5t-296 -279t-395 -102.5q-145 0 -271 50.5t-214.5 137t-139.5 205.5t-51 252zM303 612q0 -143 68 -262.5t190.5 -189.5t272.5 -70 q173 0 324.5 86t242 234t90.5 319q0 142 -70 260.5t-193.5 188t-273.5 69.5q-174 0 -324 -85.5t-238.5 -232t-88.5 -317.5zM731 1563q62 75 114.5 111t106.5 36q37 0 64.5 -14.5t62.5 -46.5q64 -56 107 -56q54 0 137 95l70 -43q-120 -150 -224 -150q-68 0 -131 55 q-3 3 -13.5 13t-13.5 13t-11.5 10.5t-12.5 9.5t-11 7t-12.5 6.5t-12 3t-13.5 1.5q-9 0 -18 -2.5t-16.5 -5.5t-17.5 -10.5t-15.5 -12t-17 -15.5t-16 -15.5t-17 -18t-15.5 -16.5z" />
<glyph unicode="&#xd6;" horiz-adv-x="1746" d="M158 612q0 152 64.5 292t172.5 241.5t254.5 162t304.5 60.5q145 0 272 -50t216.5 -135.5t141.5 -203.5t52 -250q0 -204 -111 -380.5t-296 -279t-395 -102.5q-145 0 -271 50.5t-214.5 137t-139.5 205.5t-51 252zM303 612q0 -143 68 -262.5t190.5 -189.5t272.5 -70 q173 0 324.5 86t242 234t90.5 319q0 142 -70 260.5t-193.5 188t-273.5 69.5q-174 0 -324 -85.5t-238.5 -232t-88.5 -317.5zM788 1610q0 34 27 60t66 26q32 0 53.5 -22t21.5 -52q0 -34 -27 -58t-65 -24q-33 0 -54.5 20t-21.5 50zM1184 1610q0 35 26.5 60.5t65.5 25.5 q32 0 54 -22t22 -52q0 -34 -27 -58t-65 -24q-33 0 -54.5 20t-21.5 50z" />
<glyph unicode="&#xd7;" d="M211 129l424 387l-424 387l86 84l428 -391l426 391l82 -82l-424 -387l426 -387l-86 -82l-428 389l-426 -389z" />
<glyph unicode="&#xd8;" horiz-adv-x="1746" d="M158 612q0 152 64.5 292t172.5 241.5t254.5 162t304.5 60.5q214 0 381 -104l168 194l80 -63l-166 -191q104 -89 161.5 -212t57.5 -263q0 -204 -111 -380.5t-296 -279t-395 -102.5q-218 0 -388 109l-167 -195l-82 62l168 194q-98 89 -152.5 212.5t-54.5 262.5zM303 612 q0 -108 39.5 -203.5t112.5 -166.5l794 921q-133 84 -295 84q-174 0 -324 -85.5t-238.5 -232t-88.5 -317.5zM532 176q131 -86 302 -86q173 0 324.5 86t242 234t90.5 319q0 107 -43 204t-119 169z" />
<glyph unicode="&#xd9;" horiz-adv-x="1632" d="M219 410q0 97 33 254q5 22 30.5 143t59.5 285.5t51 244.5h137l-143 -688q-31 -153 -31 -219q0 -106 58 -184.5t152.5 -117t211.5 -38.5q175 0 299 90t160 260l188 897h140l-193 -913q-48 -222 -208.5 -339.5t-385.5 -117.5q-154 0 -280.5 53t-202.5 155.5t-76 234.5z M715 1751l168 6l268 -241l-117 -9z" />
<glyph unicode="&#xda;" horiz-adv-x="1632" d="M219 410q0 97 33 254q5 22 30.5 143t59.5 285.5t51 244.5h137l-143 -688q-31 -153 -31 -219q0 -106 58 -184.5t152.5 -117t211.5 -38.5q175 0 299 90t160 260l188 897h140l-193 -913q-48 -222 -208.5 -339.5t-385.5 -117.5q-154 0 -280.5 53t-202.5 155.5t-76 234.5z M885 1516l268 241l168 -6l-320 -244z" />
<glyph unicode="&#xdb;" horiz-adv-x="1632" d="M219 410q0 97 33 254q5 22 30.5 143t59.5 285.5t51 244.5h137l-143 -688q-31 -153 -31 -219q0 -106 58 -184.5t152.5 -117t211.5 -38.5q175 0 299 90t160 260l188 897h140l-193 -913q-48 -222 -208.5 -339.5t-385.5 -117.5q-154 0 -280.5 53t-202.5 155.5t-76 234.5z M723 1513l278 246h138l172 -246l-94 -6l-156 176l-232 -176z" />
<glyph unicode="&#xdc;" horiz-adv-x="1632" d="M219 410q0 97 33 254q5 22 30.5 143t59.5 285.5t51 244.5h137l-143 -688q-31 -153 -31 -219q0 -106 58 -184.5t152.5 -117t211.5 -38.5q175 0 299 90t160 260l188 897h140l-193 -913q-48 -222 -208.5 -339.5t-385.5 -117.5q-154 0 -280.5 53t-202.5 155.5t-76 234.5z M760 1610q0 35 26.5 60.5t65.5 25.5q32 0 54 -22t22 -52q0 -34 -27 -58t-65 -24q-33 0 -54.5 20t-21.5 50zM1155 1610q0 35 26.5 60.5t65.5 25.5q32 0 54 -22t22 -52q0 -34 -27 -58t-65 -24q-33 0 -54.5 20t-21.5 50z" />
<glyph unicode="&#xdd;" horiz-adv-x="1353" d="M225 1337h162l326 -579l575 579h172l-698 -702l-135 -635h-138l136 637zM754 1516l268 241l168 -6l-320 -244z" />
<glyph unicode="&#xde;" horiz-adv-x="1558" d="M143 0l285 1337h137l-59 -274h559q116 0 192 -27.5t132 -85.5q102 -105 102 -252q0 -159 -129 -282q-75 -72 -167 -106t-222 -34h-635l-57 -276h-138zM365 397h610q194 0 299 105q82 82 82 186q0 103 -70 176q-73 76 -233 76h-574z" />
<glyph unicode="&#xdf;" horiz-adv-x="1218" d="M84 0l233 1110q16 75 48.5 135t73.5 98.5t90.5 64.5t98.5 37t99 11q144 0 242 -77.5t98 -202.5q0 -123 -88 -226t-203 -139q31 -12 64.5 -31t74.5 -53.5t72 -75.5t52.5 -101.5t21.5 -127.5q0 -123 -64 -223.5t-183 -160.5t-271 -61q-8 0 -33 5l-2 98q196 0 309 94.5 t113 241.5q0 60 -21 113.5t-51 90t-69.5 66.5t-71.5 46.5t-62 27.5l23 102q87 15 170.5 103.5t83.5 195.5q0 82 -55 135.5t-152 53.5q-96 0 -176 -63.5t-107 -190.5l-233 -1096h-125z" />
<glyph unicode="&#xe0;" horiz-adv-x="1218" d="M51 279q0 103 60 180t156.5 115t213.5 38q109 0 220.5 -37.5t177.5 -123.5l34 153q9 53 9 66q0 50 -28.5 88t-75 59t-98 31t-106.5 10q-91 0 -180.5 -24.5t-150.5 -55.5l-27 109q178 80 362 80q70 0 141.5 -13.5t140 -42t111.5 -81.5t44 -123q0 -17 -2.5 -35t-9.5 -51.5 t-11 -55.5l-86 -411q-19 -94 -10 -154h-129q-5 51 6 125q-73 -57 -177 -101t-218 -44q-71 0 -135.5 18.5t-117 54t-83.5 94t-31 132.5zM180 289q0 -68 42 -116t103.5 -68.5t135.5 -20.5q120 0 231 54t137 87l27 125q-49 83 -156 123.5t-213 40.5q-129 0 -218 -59t-89 -166z M504 1409l143 4l182 -299l-114 -4z" />
<glyph unicode="&#xe1;" horiz-adv-x="1218" d="M51 279q0 103 60 180t156.5 115t213.5 38q109 0 220.5 -37.5t177.5 -123.5l34 153q9 53 9 66q0 50 -28.5 88t-75 59t-98 31t-106.5 10q-91 0 -180.5 -24.5t-150.5 -55.5l-27 109q178 80 362 80q70 0 141.5 -13.5t140 -42t111.5 -81.5t44 -123q0 -17 -2.5 -35t-9.5 -51.5 t-11 -55.5l-86 -411q-19 -94 -10 -154h-129q-5 51 6 125q-73 -57 -177 -101t-218 -44q-71 0 -135.5 18.5t-117 54t-83.5 94t-31 132.5zM180 289q0 -68 42 -116t103.5 -68.5t135.5 -20.5q120 0 231 54t137 87l27 125q-49 83 -156 123.5t-213 40.5q-129 0 -218 -59t-89 -166z M629 1114l182 299l143 -4l-213 -299z" />
<glyph unicode="&#xe2;" horiz-adv-x="1218" d="M51 279q0 103 60 180t156.5 115t213.5 38q109 0 220.5 -37.5t177.5 -123.5l34 153q9 53 9 66q0 50 -28.5 88t-75 59t-98 31t-106.5 10q-91 0 -180.5 -24.5t-150.5 -55.5l-27 109q178 80 362 80q70 0 141.5 -13.5t140 -42t111.5 -81.5t44 -123q0 -17 -2.5 -35t-9.5 -51.5 t-11 -55.5l-86 -411q-19 -94 -10 -154h-129q-5 51 6 125q-73 -57 -177 -101t-218 -44q-71 0 -135.5 18.5t-117 54t-83.5 94t-31 132.5zM180 289q0 -68 42 -116t103.5 -68.5t135.5 -20.5q120 0 231 54t137 87l27 125q-49 83 -156 123.5t-213 40.5q-129 0 -218 -59t-89 -166z M434 1118l281 258h137l172 -258l-98 -6l-152 188l-235 -188z" />
<glyph unicode="&#xe3;" horiz-adv-x="1218" d="M51 279q0 103 60 180t156.5 115t213.5 38q109 0 220.5 -37.5t177.5 -123.5l34 153q9 53 9 66q0 50 -28.5 88t-75 59t-98 31t-106.5 10q-91 0 -180.5 -24.5t-150.5 -55.5l-27 109q178 80 362 80q70 0 141.5 -13.5t140 -42t111.5 -81.5t44 -123q0 -17 -2.5 -35t-9.5 -51.5 t-11 -55.5l-86 -411q-19 -94 -10 -154h-129q-5 51 6 125q-73 -57 -177 -101t-218 -44q-71 0 -135.5 18.5t-117 54t-83.5 94t-31 132.5zM180 289q0 -68 42 -116t103.5 -68.5t135.5 -20.5q120 0 231 54t137 87l27 125q-49 83 -156 123.5t-213 40.5q-129 0 -218 -59t-89 -166z M412 1167q63 75 115 111.5t106 36.5q37 0 64 -15t63 -47q22 -19 34 -28.5t32.5 -19t39.5 -9.5q54 0 138 96l69 -45q-120 -147 -223 -147q-68 0 -131 55q-3 3 -15.5 14t-15.5 14t-13 11t-14.5 10t-12.5 6.5t-15 5.5t-15 1q-10 0 -19.5 -2.5t-20.5 -9.5t-18 -11.5t-19.5 -16.5 t-18 -17.5t-19.5 -20.5t-18 -19z" />
<glyph unicode="&#xe4;" horiz-adv-x="1218" d="M51 279q0 103 60 180t156.5 115t213.5 38q109 0 220.5 -37.5t177.5 -123.5l34 153q9 53 9 66q0 50 -28.5 88t-75 59t-98 31t-106.5 10q-91 0 -180.5 -24.5t-150.5 -55.5l-27 109q178 80 362 80q70 0 141.5 -13.5t140 -42t111.5 -81.5t44 -123q0 -17 -2.5 -35t-9.5 -51.5 t-11 -55.5l-86 -411q-19 -94 -10 -154h-129q-5 51 6 125q-73 -57 -177 -101t-218 -44q-71 0 -135.5 18.5t-117 54t-83.5 94t-31 132.5zM180 289q0 -68 42 -116t103.5 -68.5t135.5 -20.5q120 0 231 54t137 87l27 125q-49 83 -156 123.5t-213 40.5q-129 0 -218 -59t-89 -166z M471 1214q0 34 27 59t65 25q32 0 54 -21t22 -50q0 -34 -27.5 -58t-64.5 -24q-33 0 -54.5 19.5t-21.5 49.5zM866 1214q0 34 27 59t65 25q32 0 54 -21t22 -50q0 -34 -27 -58t-65 -24q-33 0 -54.5 19.5t-21.5 49.5z" />
<glyph unicode="&#xe5;" horiz-adv-x="1218" d="M51 279q0 103 60 180t156.5 115t213.5 38q109 0 220.5 -37.5t177.5 -123.5l34 153q9 53 9 66q0 50 -28.5 88t-75 59t-98 31t-106.5 10q-91 0 -180.5 -24.5t-150.5 -55.5l-27 109q178 80 362 80q70 0 141.5 -13.5t140 -42t111.5 -81.5t44 -123q0 -17 -2.5 -35t-9.5 -51.5 t-11 -55.5l-86 -411q-19 -94 -10 -154h-129q-5 51 6 125q-73 -57 -177 -101t-218 -44q-71 0 -135.5 18.5t-117 54t-83.5 94t-31 132.5zM180 289q0 -68 42 -116t103.5 -68.5t135.5 -20.5q120 0 231 54t137 87l27 125q-49 83 -156 123.5t-213 40.5q-129 0 -218 -59t-89 -166z M528 1268q0 88 68.5 149.5t183.5 61.5q99 0 157 -51.5t58 -127.5q0 -87 -70.5 -145.5t-185.5 -58.5q-99 0 -155 48.5t-56 123.5zM608 1272q0 -50 37.5 -82.5t99.5 -32.5q72 0 120 39t48 98q0 54 -38 88.5t-101 34.5q-72 0 -119 -41.5t-47 -103.5z" />
<glyph unicode="&#xe6;" horiz-adv-x="1986" d="M51 279q0 103 60 180t156 115t212 38q70 0 139 -11.5t146 -46.5t125 -91q1 27 17.5 98.5t15.5 106.5q0 50 -28.5 88.5t-75 59.5t-98 31.5t-106.5 10.5q-91 0 -180.5 -24.5t-150.5 -55.5l-27 109q178 80 365 80q56 0 112.5 -9t115.5 -29.5t102.5 -61t58.5 -95.5 q6 -15 6 -37q67 111 180.5 171.5t241.5 60.5q87 0 163.5 -25t136.5 -73.5t95.5 -126.5t36.5 -177q0 -51 -8 -98h-850q-4 -32 -4 -49q0 -139 94.5 -236.5t257.5 -97.5q169 0 340 113l69 -88q-198 -136 -421 -136q-143 0 -243.5 53t-152.5 142q-96 -76 -240.5 -135.5 t-281.5 -59.5q-75 0 -142.5 19.5t-120.5 56.5t-84.5 96.5t-31.5 133.5zM180 289q0 -68 42.5 -116t103 -68.5t129.5 -20.5q122 0 253 56.5t203 113.5q-19 53 -22 92q-138 168 -402 168q-57 0 -109.5 -13t-98 -39t-72.5 -71t-27 -102zM1028 567h705q9 135 -75.5 215t-223.5 80 q-143 0 -252.5 -82.5t-153.5 -212.5z" />
<glyph unicode="&#xe7;" horiz-adv-x="1144" d="M70 -379l36 70q67 -24 102.5 -36t96.5 -25t113 -13q82 0 134 25.5t52 74.5q0 43 -37.5 63.5t-95.5 20.5q-49 0 -90 -6l-31 49l92 146q-155 36 -246.5 151.5t-91.5 284.5q0 141 74.5 265.5t204 200t281.5 75.5q124 0 233 -48.5t188 -140.5l-100 -73q-61 71 -146.5 111 t-181.5 40q-113 0 -209 -60.5t-150 -159t-54 -210.5q0 -147 98 -244.5t248 -97.5q163 0 315 117l68 -88q-51 -46 -157.5 -93t-240.5 -47q-9 0 -26 1t-25 1l-71 -118q27 6 75 6q78 0 135.5 -38t57.5 -108q0 -86 -84.5 -133t-216.5 -47q-64 0 -135 15.5t-104 27t-111 41.5z " />
<glyph unicode="&#xe8;" horiz-adv-x="1206" d="M104 412q0 150 75.5 278.5t201.5 202.5t272 74q91 0 169.5 -25.5t138.5 -75t94.5 -128.5t34.5 -179q0 -39 -9 -92h-848q-2 -16 -2 -47q0 -144 93.5 -240t244.5 -96q177 0 351 113l67 -88q-211 -136 -440 -136q-200 0 -321.5 124.5t-121.5 314.5zM256 567h696 q9 136 -76 215.5t-223 79.5q-137 0 -245 -82.5t-152 -212.5zM496 1409l143 4l182 -299l-114 -4z" />
<glyph unicode="&#xe9;" horiz-adv-x="1206" d="M104 412q0 150 75.5 278.5t201.5 202.5t272 74q91 0 169.5 -25.5t138.5 -75t94.5 -128.5t34.5 -179q0 -39 -9 -92h-848q-2 -16 -2 -47q0 -144 93.5 -240t244.5 -96q177 0 351 113l67 -88q-211 -136 -440 -136q-200 0 -321.5 124.5t-121.5 314.5zM256 567h696 q9 136 -76 215.5t-223 79.5q-137 0 -245 -82.5t-152 -212.5zM621 1114l182 299l143 -4l-213 -299z" />
<glyph unicode="&#xea;" horiz-adv-x="1206" d="M104 412q0 150 75.5 278.5t201.5 202.5t272 74q91 0 169.5 -25.5t138.5 -75t94.5 -128.5t34.5 -179q0 -39 -9 -92h-848q-2 -16 -2 -47q0 -144 93.5 -240t244.5 -96q177 0 351 113l67 -88q-211 -136 -440 -136q-200 0 -321.5 124.5t-121.5 314.5zM256 567h696 q9 136 -76 215.5t-223 79.5q-137 0 -245 -82.5t-152 -212.5zM426 1118l281 258h137l172 -258l-98 -6l-152 188l-236 -188z" />
<glyph unicode="&#xeb;" horiz-adv-x="1206" d="M104 412q0 150 75.5 278.5t201.5 202.5t272 74q91 0 169.5 -25.5t138.5 -75t94.5 -128.5t34.5 -179q0 -39 -9 -92h-848q-2 -16 -2 -47q0 -144 93.5 -240t244.5 -96q177 0 351 113l67 -88q-211 -136 -440 -136q-200 0 -321.5 124.5t-121.5 314.5zM256 567h696 q9 136 -76 215.5t-223 79.5q-137 0 -245 -82.5t-152 -212.5zM463 1214q0 34 27 59t65 25q32 0 54 -21t22 -50q0 -34 -27.5 -58t-64.5 -24q-33 0 -54.5 19.5t-21.5 49.5zM858 1214q0 34 27 59t65 25q32 0 54 -21t22 -50q0 -34 -27 -58t-65 -24q-33 0 -54.5 19.5t-21.5 49.5z " />
<glyph unicode="&#xec;" horiz-adv-x="528" d="M84 0l197 940h127l-197 -940h-127zM156 1409l143 4l182 -299l-112 -4z" />
<glyph unicode="&#xed;" horiz-adv-x="528" d="M84 0l197 940h127l-197 -940h-127zM281 1114l182 299l143 -4l-211 -299z" />
<glyph unicode="&#xee;" horiz-adv-x="528" d="M84 0l197 940h127l-197 -940h-127zM88 1118l281 258h137l170 -258l-98 -6l-152 188l-233 -188z" />
<glyph unicode="&#xef;" horiz-adv-x="528" d="M84 0l197 940h127l-197 -940h-127zM123 1214q0 34 27 59t65 25q33 0 54.5 -20.5t21.5 -50.5q0 -34 -27 -58t-65 -24q-33 0 -54.5 19.5t-21.5 49.5zM520 1214q0 34 26 59t64 25q33 0 54.5 -20.5t21.5 -50.5q0 -34 -27 -58t-65 -24q-33 0 -53.5 19.5t-20.5 49.5z" />
<glyph unicode="&#xf0;" horiz-adv-x="1275" d="M106 420q0 144 71 265t191 190t261 69q131 0 224 -57.5t124 -157.5q-22 258 -195 449l-10 10l-352 -117l-21 86l301 100q-88 73 -239 152l137 31q131 -66 225 -142l258 86l23 -86l-211 -69l4 -4q217 -236 217 -604q0 -333 -174 -502q-75 -70 -175.5 -108t-209.5 -38 q-198 0 -323.5 129t-125.5 318zM238 424q0 -143 92 -240.5t235 -97.5q170 0 289 119q121 124 121 301q0 145 -94 236.5t-240 91.5q-163 0 -283 -121t-120 -289z" />
<glyph unicode="&#xf1;" horiz-adv-x="1241" d="M86 0l154 731q23 113 18 209h115q8 -64 -4 -145q192 172 379 172q139 0 231 -83.5t92 -215.5q0 -41 -18 -133l-115 -535h-129l115 537q18 104 18 127q0 90 -66 141t-169 51q-171 0 -349 -170l-145 -686h-127zM422 1167q63 75 115 111.5t106 36.5q37 0 64 -15t63 -47 q21 -19 34 -29t33.5 -19t39.5 -9q33 0 65.5 25.5t71.5 70.5l69 -45q-120 -147 -223 -147q-68 0 -131 55q-5 4 -15.5 14t-15 14t-13 11t-14 10t-13 6.5t-14.5 5t-15 1.5q-10 0 -19.5 -2.5t-20.5 -9.5t-18 -11.5t-19.5 -16.5t-18 -17.5t-19.5 -20.5t-18 -19z" />
<glyph unicode="&#xf2;" horiz-adv-x="1263" d="M106 434q0 142 72 264.5t198.5 195.5t276.5 73q207 0 338 -131.5t131 -327.5q0 -107 -43.5 -205.5t-117 -171t-177 -115.5t-217.5 -43q-203 0 -332 131t-129 330zM238 438q0 -152 95 -255t245 -103q115 0 210.5 59.5t149 156.5t53.5 208q0 151 -97 254.5t-251 103.5 q-112 0 -206 -60t-146.5 -157t-52.5 -207zM506 1409l143 4l182 -299l-114 -4z" />
<glyph unicode="&#xf3;" horiz-adv-x="1263" d="M106 434q0 142 72 264.5t198.5 195.5t276.5 73q207 0 338 -131.5t131 -327.5q0 -107 -43.5 -205.5t-117 -171t-177 -115.5t-217.5 -43q-203 0 -332 131t-129 330zM238 438q0 -152 95 -255t245 -103q115 0 210.5 59.5t149 156.5t53.5 208q0 151 -97 254.5t-251 103.5 q-112 0 -206 -60t-146.5 -157t-52.5 -207zM631 1114l182 299l143 -4l-213 -299z" />
<glyph unicode="&#xf4;" horiz-adv-x="1263" d="M106 434q0 142 72 264.5t198.5 195.5t276.5 73q207 0 338 -131.5t131 -327.5q0 -107 -43.5 -205.5t-117 -171t-177 -115.5t-217.5 -43q-203 0 -332 131t-129 330zM238 438q0 -152 95 -255t245 -103q115 0 210.5 59.5t149 156.5t53.5 208q0 151 -97 254.5t-251 103.5 q-112 0 -206 -60t-146.5 -157t-52.5 -207zM436 1118l281 258h137l172 -258l-98 -6l-152 188l-235 -188z" />
<glyph unicode="&#xf5;" horiz-adv-x="1263" d="M106 434q0 142 72 264.5t198.5 195.5t276.5 73q207 0 338 -131.5t131 -327.5q0 -107 -43.5 -205.5t-117 -171t-177 -115.5t-217.5 -43q-203 0 -332 131t-129 330zM238 438q0 -152 95 -255t245 -103q115 0 210.5 59.5t149 156.5t53.5 208q0 151 -97 254.5t-251 103.5 q-112 0 -206 -60t-146.5 -157t-52.5 -207zM414 1167q63 75 115 111.5t106 36.5q37 0 64 -15t63 -47q22 -19 34 -28.5t32.5 -19t39.5 -9.5q54 0 138 96l69 -45q-120 -147 -223 -147q-68 0 -131 55q-5 4 -15.5 14t-15 14t-13 11t-14 10t-13 6.5t-14.5 5t-15 1.5q-9 0 -18 -2.5 t-16.5 -6t-17.5 -11l-16 -12t-17.5 -15.5t-16 -15.5t-17 -18t-15.5 -16.5z" />
<glyph unicode="&#xf6;" horiz-adv-x="1263" d="M106 434q0 142 72 264.5t198.5 195.5t276.5 73q207 0 338 -131.5t131 -327.5q0 -107 -43.5 -205.5t-117 -171t-177 -115.5t-217.5 -43q-203 0 -332 131t-129 330zM238 438q0 -152 95 -255t245 -103q115 0 210.5 59.5t149 156.5t53.5 208q0 151 -97 254.5t-251 103.5 q-112 0 -206 -60t-146.5 -157t-52.5 -207zM473 1214q0 34 27 59t65 25q32 0 54 -21t22 -50q0 -34 -27.5 -58t-64.5 -24q-33 0 -54.5 19.5t-21.5 49.5zM868 1214q0 34 27.5 59t65.5 25q32 0 53.5 -20.5t21.5 -50.5q0 -34 -27 -58t-65 -24q-33 0 -54.5 19.5t-21.5 49.5z" />
<glyph unicode="&#xf7;" d="M172 461v112h1100v-112h-1100zM618 88q0 40 31 69t76 29q44 0 74 -29t30 -69q0 -41 -30 -68.5t-74 -27.5q-45 0 -76 27.5t-31 68.5zM618 946q0 41 31 68.5t76 27.5q44 0 74 -27.5t30 -68.5q0 -40 -30 -68t-74 -28q-45 0 -76 28t-31 68z" />
<glyph unicode="&#xf8;" horiz-adv-x="1263" d="M70 -57l157 172q-121 131 -121 319q0 106 42.5 204t115.5 170.5t175.5 115.5t215.5 43q155 0 277 -82l149 164l62 -52l-150 -163q62 -62 95.5 -146.5t33.5 -179.5q0 -107 -43.5 -205.5t-117 -171t-176.5 -115.5t-216 -43q-160 0 -282 88l-154 -167zM238 438 q0 -133 73 -231l541 590q-90 65 -207 65q-113 0 -207.5 -60t-147 -157t-52.5 -207zM369 150q90 -70 209 -70q174 0 294.5 127t120.5 297q0 137 -84 237z" />
<glyph unicode="&#xf9;" horiz-adv-x="1239" d="M133 274q0 37 19 134l114 532h127l-112 -537q-21 -95 -21 -120q0 -94 67 -146.5t169 -52.5q164 0 348 168l147 688h127l-151 -717q-31 -144 -33 -223h-117q-2 42 17 143q-194 -170 -379 -170q-140 0 -231 83.5t-91 217.5zM512 1409l143 4l183 -299l-115 -4z" />
<glyph unicode="&#xfa;" horiz-adv-x="1239" d="M133 274q0 37 19 134l114 532h127l-112 -537q-21 -95 -21 -120q0 -94 67 -146.5t169 -52.5q164 0 348 168l147 688h127l-151 -717q-31 -144 -33 -223h-117q-2 42 17 143q-194 -170 -379 -170q-140 0 -231 83.5t-91 217.5zM637 1114l182 299l144 -4l-213 -299z" />
<glyph unicode="&#xfb;" horiz-adv-x="1239" d="M133 274q0 37 19 134l114 532h127l-112 -537q-21 -95 -21 -120q0 -94 67 -146.5t169 -52.5q164 0 348 168l147 688h127l-151 -717q-31 -144 -33 -223h-117q-2 42 17 143q-194 -170 -379 -170q-140 0 -231 83.5t-91 217.5zM442 1118l281 258h137l172 -258l-98 -6l-152 188 l-235 -188z" />
<glyph unicode="&#xfc;" horiz-adv-x="1239" d="M133 274q0 37 19 134l114 532h127l-112 -537q-21 -95 -21 -120q0 -94 67 -146.5t169 -52.5q164 0 348 168l147 688h127l-151 -717q-31 -144 -33 -223h-117q-2 42 17 143q-194 -170 -379 -170q-140 0 -231 83.5t-91 217.5zM479 1214q0 34 27 59t65 25q32 0 54 -21t22 -50 q0 -34 -27.5 -58t-64.5 -24q-33 0 -54.5 19.5t-21.5 49.5zM874 1214q0 34 27.5 59t65.5 25q32 0 53.5 -20.5t21.5 -50.5q0 -34 -27 -58t-65 -24q-33 0 -54.5 19.5t-21.5 49.5z" />
<glyph unicode="&#xfd;" horiz-adv-x="1103" d="M27 -434l331 469l-217 905h135l173 -772h8l530 772h141l-960 -1374h-141zM569 1114l183 299l143 -4l-213 -299z" />
<glyph unicode="&#xfe;" horiz-adv-x="1269" d="M-10 -434l397 1868h127l-133 -621q163 154 356 154q172 0 282.5 -123.5t110.5 -308.5q0 -103 -39.5 -203.5t-107.5 -179.5t-167 -128.5t-210 -50.5q-223 -3 -368 168l-121 -575h-127zM262 244q57 -71 145.5 -115.5t188.5 -44.5q110 1 201.5 64t141.5 162.5t50 209.5 q0 142 -80 239t-209 97q-175 0 -344 -166z" />
<glyph unicode="&#xff;" horiz-adv-x="1103" d="M27 -434l331 469l-217 905h135l173 -772h8l530 772h141l-960 -1374h-141zM412 1214q0 34 27 59t65 25q32 0 54 -21t22 -50q0 -33 -28 -57.5t-65 -24.5q-33 0 -54 19.5t-21 49.5zM807 1214q0 34 27 59t65 25q32 0 54 -21t22 -50q0 -34 -27 -58t-65 -24q-33 0 -54.5 19.5 t-21.5 49.5z" />
<glyph unicode="&#x152;" horiz-adv-x="2686" d="M158 612q0 152 64.5 292t172.5 241.5t254.5 162t304.5 60.5q227 0 389.5 -114.5t217.5 -323.5l88 407h1067l-27 -123h-930l-96 -450h563l-26 -123h-564l-110 -518h975l-27 -123h-1100l62 297q-99 -158 -259.5 -244t-342.5 -86q-145 0 -271 50.5t-214.5 137t-139.5 205.5 t-51 252zM303 612q0 -143 68 -262.5t190.5 -189.5t272.5 -70q176 0 330.5 86t246.5 234t92 319q0 142 -71.5 260.5t-197.5 188t-280 69.5q-174 0 -324 -85.5t-238.5 -232t-88.5 -317.5z" />
<glyph unicode="&#x153;" horiz-adv-x="2088" d="M106 430q0 145 78.5 269.5t207 196t272.5 71.5q143 0 258.5 -82t150.5 -213q55 132 185.5 213.5t277.5 81.5q91 0 168.5 -25.5t137.5 -74t94.5 -126.5t35.5 -176q0 -28 -8 -98h-844q-6 -24 -6 -51q2 -142 95 -237t243 -95q176 0 350 113l68 -88q-204 -136 -428 -136 q-156 0 -268 78t-146 209q-56 -127 -189 -207t-280 -80q-191 0 -322 132t-131 325zM238 434q0 -149 92 -251.5t237 -102.5q177 0 300.5 126.5t123.5 301.5q0 148 -94.5 251t-243.5 103q-113 0 -209 -59t-151 -157.5t-55 -211.5zM1137 567h698q9 136 -79.5 215.5t-229.5 79.5 q-136 0 -242.5 -82.5t-146.5 -212.5z" />
<glyph unicode="&#x178;" horiz-adv-x="1353" d="M225 1337h162l326 -579l575 579h172l-698 -702l-135 -635h-138l136 637zM629 1610q0 35 26.5 60.5t65.5 25.5q32 0 54 -22t22 -52q0 -34 -27 -58t-65 -24q-33 0 -54.5 20t-21.5 50zM1024 1610q0 35 26.5 60.5t65.5 25.5q32 0 54 -22t22 -52q0 -34 -27 -58t-65 -24 q-33 0 -54.5 20t-21.5 50z" />
<glyph unicode="&#x2c6;" horiz-adv-x="1024" d="M330 1118l280 258h138l172 -258l-99 -6l-151 188l-236 -188z" />
<glyph unicode="&#x2dc;" horiz-adv-x="1024" d="M307 1167q63 75 115 111.5t106 36.5q37 0 64 -15t63 -47q21 -19 34 -29t33.5 -19t39.5 -9q33 0 65.5 25.5t71.5 70.5l70 -45q-120 -147 -224 -147q-68 0 -131 55q-5 4 -15.5 14t-15 14t-13 11t-14 10t-13 6.5t-14.5 5t-15 1.5q-10 0 -19.5 -2.5t-20.5 -9.5t-18 -11.5 t-19.5 -16.5t-18 -17.5t-19.5 -20.5t-18 -19z" />
<glyph unicode="&#x2000;" horiz-adv-x="923" />
<glyph unicode="&#x2001;" horiz-adv-x="1847" />
<glyph unicode="&#x2002;" horiz-adv-x="923" />
<glyph unicode="&#x2003;" horiz-adv-x="1847" />
<glyph unicode="&#x2004;" horiz-adv-x="615" />
<glyph unicode="&#x2005;" horiz-adv-x="461" />
<glyph unicode="&#x2006;" horiz-adv-x="307" />
<glyph unicode="&#x2007;" horiz-adv-x="307" />
<glyph unicode="&#x2008;" horiz-adv-x="230" />
<glyph unicode="&#x2009;" horiz-adv-x="369" />
<glyph unicode="&#x200a;" horiz-adv-x="102" />
<glyph unicode="&#x2010;" horiz-adv-x="825" d="M127 451l23 124h526l-23 -124h-526z" />
<glyph unicode="&#x2011;" horiz-adv-x="825" d="M127 451l23 124h526l-23 -124h-526z" />
<glyph unicode="&#x2012;" horiz-adv-x="825" d="M127 451l23 124h526l-23 -124h-526z" />
<glyph unicode="&#x2013;" horiz-adv-x="1310" d="M129 463l23 112h1011l-22 -112h-1012z" />
<glyph unicode="&#x2014;" horiz-adv-x="2293" d="M129 463l23 112h1994l-22 -112h-1995z" />
<glyph unicode="&#x2018;" horiz-adv-x="548" d="M225 1047q0 234 314 342l30 -78q-30 -9 -60 -22t-63.5 -33.5t-59 -44t-42.5 -55.5t-18 -66q0 -45 36 -58q40 10 50 10q39 0 64.5 -21.5t25.5 -55.5q0 -38 -32 -64.5t-77 -26.5q-70 0 -119 49.5t-49 123.5z" />
<glyph unicode="&#x2019;" horiz-adv-x="544" d="M213 932q29 9 59 22t63.5 33.5t59 44t42.5 55.5t18 66q0 44 -37 57q-40 -10 -49 -10q-38 0 -64 22t-26 56q0 38 31.5 64t76.5 26q71 0 119.5 -48.5t48.5 -121.5q0 -236 -313 -344z" />
<glyph unicode="&#x201a;" horiz-adv-x="612" d="M27 -254q37 11 75 29.5t77 45.5t63.5 65.5t25.5 80.5q0 49 -35 58q-36 -9 -51 -9q-37 0 -62.5 22t-25.5 54q0 38 32 65t75 27q71 0 119.5 -49t48.5 -123q0 -238 -314 -344z" />
<glyph unicode="&#x201c;" horiz-adv-x="1009" d="M225 1047q0 234 314 342l30 -78q-30 -9 -60 -22t-63.5 -33.5t-59 -44t-42.5 -55.5t-18 -66q0 -45 36 -58q40 10 50 10q39 0 64.5 -21.5t25.5 -55.5q0 -38 -32 -64.5t-77 -26.5q-70 0 -119 49.5t-49 123.5zM686 1047q0 234 313 342l29 -78q-29 -9 -59 -22t-63.5 -33.5 t-59 -44t-42.5 -55.5t-18 -66q0 -45 37 -58q40 10 49 10q39 0 65 -22t26 -55q0 -38 -32 -64.5t-77 -26.5q-70 0 -119 49.5t-49 123.5z" />
<glyph unicode="&#x201d;" horiz-adv-x="1007" d="M213 932q29 9 59 22t63.5 33.5t59 44t42.5 55.5t18 66q0 44 -37 57q-40 -10 -49 -10q-38 0 -64 22t-26 56q0 38 31.5 64t76.5 26q71 0 119.5 -48.5t48.5 -121.5q0 -236 -313 -344zM674 932q38 11 76 29.5t76.5 45.5t63 65.5t25.5 80.5q0 45 -34 57q-40 -10 -52 -10 q-37 0 -62.5 22.5t-25.5 55.5q0 38 32 64t77 26q70 0 118 -48.5t48 -121.5q0 -238 -314 -344z" />
<glyph unicode="&#x201e;" horiz-adv-x="1075" d="M27 -254q37 11 75 29.5t77 45.5t63.5 65.5t25.5 80.5q0 49 -35 58q-36 -9 -51 -9q-37 0 -62.5 22t-25.5 54q0 38 32 65t75 27q71 0 119.5 -49t48.5 -123q0 -238 -314 -344zM487 -254q30 9 60 22t64 33.5t59.5 44t42.5 55.5t18 66q0 48 -37 58q-36 -9 -49 -9q-38 0 -64 22 t-26 54q0 38 32.5 65t76.5 27q70 0 118.5 -49t48.5 -123q0 -236 -313 -344z" />
<glyph unicode="&#x2022;" horiz-adv-x="907" d="M141 604q0 126 94 214.5t226 88.5q131 0 224 -88.5t93 -214.5t-93 -214.5t-224 -88.5q-132 0 -226 88.5t-94 214.5z" />
<glyph unicode="&#x2026;" horiz-adv-x="2048" d="M174 76q0 45 35 76.5t86 31.5q44 0 73 -28t29 -68q0 -45 -35 -76.5t-86 -31.5q-44 0 -73 28t-29 68zM825 76q0 45 35 76.5t86 31.5q44 0 74.5 -28t30.5 -68q0 -44 -35.5 -76t-85.5 -32q-45 0 -75 28t-30 68zM1477 76q0 45 34.5 76.5t85.5 31.5q45 0 75 -28t30 -68 q0 -45 -35 -76.5t-86 -31.5q-45 0 -74.5 28t-29.5 68z" />
<glyph unicode="&#x202f;" horiz-adv-x="369" />
<glyph unicode="&#x2039;" horiz-adv-x="638" d="M98 459l11 71l270 250h156l-312 -284l-2 -15l191 -272h-142z" />
<glyph unicode="&#x203a;" horiz-adv-x="641" d="M80 209l311 287l2 14l-190 270h141l172 -248l-12 -71l-268 -252h-156z" />
<glyph unicode="&#x205f;" horiz-adv-x="461" />
<glyph unicode="&#x20ac;" horiz-adv-x="1601" d="M102 393l17 88h149v31q0 73 17 137h-129l14 88h143q75 177 245.5 291.5t373.5 114.5q165 0 315.5 -64t251.5 -182l-106 -68q-86 88 -208.5 140.5t-256.5 52.5q-147 0 -273 -79t-190 -206h657l-16 -88h-676q-18 -65 -18 -131v-37h659l-16 -88h-625q40 -134 157 -217.5 t269 -83.5q230 0 442 146l76 -88q-111 -81 -245.5 -130t-278.5 -49q-209 0 -368.5 115.5t-200.5 306.5h-179z" />
<glyph unicode="&#x2122;" horiz-adv-x="1763" d="M262 1260l14 77h572l-17 -77h-237l-125 -592h-94l125 592h-238zM899 668l143 669h93l155 -415h2l336 415h103l-142 -669h-94l104 506h-4l-321 -398h-19l-153 398h-4l-109 -506h-90z" />
<glyph unicode="&#x25fc;" horiz-adv-x="942" d="M0 0v942h942v-942h-942z" />
</font>
</defs>
</svg>
