<?xml version="1.0" standalone="no"?>
<!DOCTYPE svg PUBLIC "-//W3C//DTD SVG 1.1//EN" "http://www.w3.org/Graphics/SVG/1.1/DTD/svg11.dtd" >
<svg xmlns="http://www.w3.org/2000/svg" xmlns:xlink="http://www.w3.org/1999/xlink" version="1.1">
<metadata></metadata>
<defs>
<font id="sweet_sansbold_italic" horiz-adv-x="1542" >
<font-face units-per-em="2048" ascent="1577" descent="-471" />
<missing-glyph horiz-adv-x="460" />
<glyph unicode="&#xfb01;" horiz-adv-x="1361" d="M113 797l43 202h172l34 158q17 81 57.5 141t94.5 93.5t110 49t115 15.5q51 0 115 -11t90 -24l-74 -209q-25 9 -67.5 16t-65.5 7q-40 0 -67 -21t-33 -57l-35 -158h246l-43 -202h-246l-168 -797h-274l168 797h-172zM811 0l209 999h272l-207 -999h-274zM1059 1294 q0 64 51.5 111t124.5 47q64 0 107.5 -40.5t43.5 -98.5q0 -65 -52.5 -110.5t-123.5 -45.5q-66 0 -108.5 39.5t-42.5 97.5z" />
<glyph unicode="&#xfb02;" horiz-adv-x="1386" d="M113 797l43 202h172l34 158q17 81 57.5 141t94.5 93.5t110 49t115 15.5q51 0 115 -11t90 -24l-74 -209q-25 9 -67.5 16t-65.5 7q-40 0 -67 -21t-33 -57l-35 -158h246l-43 -202h-246l-168 -797h-274l168 797h-172zM815 0l305 1434h273l-306 -1434h-272z" />
<glyph unicode="&#xfb03;" horiz-adv-x="2050" d="M113 797l43 202h172l34 158q17 81 57.5 141t94.5 93.5t110 49t115 15.5q51 0 115 -11t90 -24l-74 -209q-25 9 -67.5 16t-65.5 7q-40 0 -67 -21t-33 -57l-35 -158h414l35 158q17 81 57.5 141t94 93.5t109.5 49t115 15.5q51 0 115 -11t90 -24l-73 -209q-25 9 -68 16t-66 7 q-40 0 -67 -21t-33 -57l-35 -158h246l-43 -202h-246l-168 -797h-274l168 797h-414l-168 -797h-274l168 797h-172zM1499 0l209 999h272l-206 -999h-275zM1747 1294q0 64 51.5 111t124.5 47q64 0 108 -41t44 -98q0 -65 -52.5 -110.5t-124.5 -45.5q-66 0 -108.5 39.5 t-42.5 97.5z" />
<glyph unicode="&#xfb04;" horiz-adv-x="2074" d="M113 797l43 202h172l34 158q17 81 57.5 141t94.5 93.5t110 49t115 15.5q51 0 115 -11t90 -24l-74 -209q-25 9 -67.5 16t-65.5 7q-40 0 -67 -21t-33 -57l-35 -158h414l35 158q17 81 57.5 141t94 93.5t109.5 49t115 15.5q51 0 115 -11t90 -24l-73 -209q-25 9 -68 16t-66 7 q-40 0 -67 -21t-33 -57l-35 -158h246l-43 -202h-246l-168 -797h-274l168 797h-414l-168 -797h-274l168 797h-172zM1503 0l305 1434h273l-303 -1434h-275z" />
<glyph horiz-adv-x="501" />
<glyph horiz-adv-x="501" />
<glyph horiz-adv-x="682" />
<glyph unicode="&#xd;" horiz-adv-x="495" />
<glyph unicode=" "  horiz-adv-x="460" />
<glyph unicode="&#x09;" horiz-adv-x="460" />
<glyph unicode="&#xa0;" horiz-adv-x="460" />
<glyph unicode="!" horiz-adv-x="663" d="M53 127q0 76 61.5 132t147.5 56q74 0 124 -47t50 -114q0 -76 -62.5 -130.5t-148.5 -54.5q-74 0 -123 45.5t-49 112.5zM211 446l53 537l76 354h309l-76 -354l-172 -537h-190z" />
<glyph unicode="&#x22;" horiz-adv-x="1073" d="M207 731l18 359l49 247h291l-49 -247l-123 -359h-186zM750 731l18 359l49 247h291l-49 -247l-123 -359h-186z" />
<glyph unicode="#" horiz-adv-x="1757" d="M27 190l39 209h415l88 326h-381l41 205h398l92 334h184l-92 -334h332l92 334h184l-92 -334h402l-39 -205h-420l-90 -326h383l-41 -209h-400l-106 -389h-182l106 389h-334l-106 -389h-183l107 389h-397zM664 399h333l88 326h-331z" />
<glyph unicode="$" horiz-adv-x="1452" d="M37 256l170 166q150 -154 350 -213l74 287q-52 10 -93 19.5t-89 25t-84 33.5t-71 44.5t-57.5 57.5t-36.5 73t-14 91q0 89 41 159t112 114t161.5 66.5t193.5 22.5q54 0 109 -6l45 174h192l-55 -209q194 -53 346 -172l-186 -168q-84 82 -227 123l-60 -235q76 -15 131.5 -30 t119 -43.5t104 -64t67.5 -91.5t27 -126q0 -123 -73.5 -213t-199 -135t-286.5 -45q-26 0 -76 4l-58 -229h-192l67 258q-261 65 -452 262zM471 872q0 -54 56 -82.5t167 -50.5l62 238q-58 4 -82 4q-203 0 -203 -109zM721 180h39q66 0 122 12.5t97 45t41 81.5q0 56 -56.5 89 t-168.5 57z" />
<glyph unicode="%" horiz-adv-x="2215" d="M168 885q0 155 132 270t312 115q163 0 276 -100t113 -240q0 -102 -62.5 -191.5t-167 -141.5t-222.5 -52q-163 0 -272 99t-109 241zM412 893q0 -61 43.5 -104.5t107.5 -43.5q77 0 136 52.5t59 122.5q0 61 -46.5 105t-111.5 44q-77 0 -132.5 -51.5t-55.5 -124.5zM575 0 l855 1239h231l-850 -1239h-236zM1239 311q0 155 132 269t312 114q163 0 276.5 -100t113.5 -240q0 -102 -63 -191.5t-167.5 -141.5t-222.5 -52q-163 0 -272 99t-109 243zM1483 319q0 -61 43.5 -104t107.5 -43q77 0 136 52t59 122q0 61 -46.5 104.5t-111.5 43.5 q-77 0 -132.5 -51.5t-55.5 -123.5z" />
<glyph unicode="&#x26;" horiz-adv-x="1609" d="M117 348q0 86 28.5 156t81 120t111.5 84t135 62q-49 79 -49 164q0 106 64.5 190t169 128t227.5 44q183 0 393 -100l-145 -219q-49 28 -125 52t-140 24q-71 0 -110 -31t-39 -74q0 -22 10 -47t31.5 -54t36 -47t43.5 -50.5t34 -38.5l220 -256q129 114 258 288l207 -106 q-159 -205 -320 -350l248 -287h-361l-106 121q-124 -78 -248 -115t-225 -37q-58 0 -115 11.5t-115 39.5t-101.5 70t-71 108.5t-27.5 149.5zM410 381q0 -49 19 -85t50.5 -54.5t63.5 -26.5t65 -8q114 0 264 84q-244 283 -278 323q-184 -84 -184 -233z" />
<glyph unicode="'" horiz-adv-x="532" d="M209 731l16 359l49 247h291l-49 -247l-121 -359h-186z" />
<glyph unicode="(" horiz-adv-x="831" d="M59 412q0 324 211 596.5t566 418.5l96 -184q-249 -106 -415.5 -333.5t-166.5 -491.5q0 -177 76 -342t203 -269l-166 -147q-191 132 -297.5 333t-106.5 419z" />
<glyph unicode=")" horiz-adv-x="829" d="M-113 -156q249 104 415.5 332t166.5 492q0 177 -76 342t-203 270l166 147q191 -133 297.5 -333t106.5 -418q0 -324 -210.5 -597t-565.5 -419z" />
<glyph unicode="*" horiz-adv-x="1222" d="M209 1112l92 160l301 -164l86 336l195 -41l-58 -340l340 24l19 -180l-344 -53l129 -315l-170 -80l-156 303l-264 -215l-123 143l246 236z" />
<glyph unicode="+" d="M154 426v233h462v385h269v-385h458v-233h-458v-385h-269v385h-462z" />
<glyph unicode="," horiz-adv-x="649" d="M-43 -238q53 14 114.5 46t113 84.5t53.5 103.5v14q-32 -8 -60 -8q-63 0 -104 39t-41 98q0 73 62 124.5t147 51.5q88 0 149.5 -66.5t61.5 -170.5q0 -96 -42 -178t-111.5 -138.5t-139.5 -93.5t-146 -61z" />
<glyph unicode="-" horiz-adv-x="827" d="M96 406l47 253h574l-49 -253h-572z" />
<glyph unicode="." horiz-adv-x="610" d="M33 129q0 75 60.5 130.5t144.5 55.5q76 0 127 -47.5t51 -115.5q0 -75 -61 -129t-146 -54q-76 0 -126 46t-50 114z" />
<glyph unicode="/" horiz-adv-x="1171" d="M-94 -244l1040 1581h301l-1038 -1581h-303z" />
<glyph unicode="0" horiz-adv-x="1490" d="M100 528q0 136 59.5 262t157 215.5t227.5 143t267 53.5q123 0 232.5 -44.5t187 -120t123 -180t45.5 -220.5q0 -137 -60 -263t-158.5 -216.5t-230.5 -144.5t-270 -54q-122 0 -230 45t-184.5 121t-121 181t-44.5 222zM381 547q0 -144 90.5 -244t230.5 -100q106 0 201 57 t153 153.5t58 204.5q0 142 -95 242.5t-233 100.5q-161 0 -283 -124t-122 -290z" />
<glyph unicode="1" horiz-adv-x="823" d="M121 780l2 232l371 151h256l-246 -1163h-283l193 897z" />
<glyph unicode="2" horiz-adv-x="1245" d="M-6 0l55 248q72 342 598 434q137 25 193 55q79 42 80 109q0 36 -21 62t-54.5 39t-64 18.5t-59.5 5.5q-92 0 -186 -36t-205 -101l-109 200q102 55 163 84t160 56.5t193 27.5q56 0 114 -9t122.5 -33t114 -60.5t82 -97t32.5 -136.5q0 -71 -25 -130t-69.5 -99.5t-96 -71.5 t-115.5 -52t-116 -35t-108 -26q-20 -4 -29 -6q-59 -13 -95.5 -22.5t-76 -25t-63.5 -34t-44 -47t-32 -65.5l-8 -31h714l-51 -221h-993z" />
<glyph unicode="3" horiz-adv-x="1376" d="M-12 291l198 166q87 -128 211.5 -197.5t264.5 -69.5q80 0 144 19t105 61t41 101q0 48 -29 79.5t-62 41.5t-66 10h-234l47 213h219q61 0 98.5 35t37.5 90q0 46 -30.5 77t-70 42.5t-82.5 11.5q-177 0 -424 -150l-118 191q314 190 569 190q81 0 159.5 -21.5t143.5 -60.5 t105 -102t40 -139q0 -86 -48.5 -153.5t-129.5 -98.5q152 -80 152 -260q0 -99 -49.5 -178.5t-133 -128.5t-187 -75t-216.5 -26q-195 0 -363.5 81t-291.5 251z" />
<glyph unicode="4" horiz-adv-x="1441" d="M-12 242l39 168l1005 753h254l-156 -710h216l-50 -211h-211l-53 -242h-280l51 242h-815zM442 453h408l80 364h-19q-78 -62 -239.5 -183t-227.5 -173z" />
<glyph unicode="5" horiz-adv-x="1351" d="M0 201l152 190q94 -97 222 -149t273 -52q48 0 95 9.5t92.5 30t73.5 60t28 91.5q0 46 -27 81.5t-69 54t-85 27.5t-83 9q-60 0 -125 -12t-110.5 -26t-114.5 -38l-134 135l119 551h948l-67 -231h-678l-51 -240q150 78 305 78q59 0 120 -10.5t124 -37.5t111 -66.5t79 -102.5 t31 -141q0 -91 -33 -166.5t-89.5 -127.5t-133 -88t-161.5 -52.5t-177 -16.5q-199 0 -351 59.5t-284 180.5z" />
<glyph unicode="6" horiz-adv-x="1378" d="M100 504q0 194 95.5 354.5t259 252t356.5 91.5q270 0 500 -149l-162 -189q-156 107 -350 107q-142 0 -264 -91.5t-156 -240.5q218 125 422 125q63 0 126.5 -14t122.5 -43.5t104.5 -71t73 -101.5t27.5 -131q0 -103 -48.5 -189t-128.5 -140.5t-179 -84.5t-203 -30 q-87 0 -172 22.5t-161.5 68t-135 109t-93 153t-34.5 192.5zM371 473q19 -132 113 -209t231 -74q40 2 82 13.5t83 34t67 61.5t26 88q0 46 -25 79.5t-66.5 51t-84.5 25.5t-88 8q-155 0 -338 -78z" />
<glyph unicode="7" horiz-adv-x="1251" d="M61 0l838 922h-743l53 241h1083l-51 -225l-817 -938h-363z" />
<glyph unicode="8" horiz-adv-x="1402" d="M61 354q0 126 87.5 214t232.5 118q-145 62 -145 193q0 72 34 129.5t87 93t122 59.5t133.5 33.5t126.5 9.5q65 0 135.5 -10.5t146.5 -37t135 -65.5t97.5 -101.5t38.5 -139.5q0 -98 -63 -161t-176 -85q85 -37 139.5 -109t54.5 -161q0 -79 -37.5 -144t-96.5 -107.5 t-135 -71.5t-150.5 -41.5t-145.5 -12.5q-73 0 -153 13t-164.5 44t-151 75t-109.5 113t-43 152zM367 387q-7 -50 26 -90.5t87.5 -63t110 -34t101.5 -11.5q37 0 78 8t83.5 24.5t69.5 49.5t27 76q0 49 -34 87t-86.5 58t-104 29.5t-96.5 9.5q-35 0 -72.5 -6t-80.5 -20.5 t-73 -44.5t-36 -72zM530 868q0 -42 30.5 -72t78 -43.5t88 -19.5t76.5 -6q31 0 59 4t59.5 15t50.5 34.5t19 57.5q0 53 -44 89.5t-98 50t-108 13.5q-31 0 -64.5 -6t-68 -19t-56.5 -38.5t-22 -59.5z" />
<glyph unicode="9" horiz-adv-x="1380" d="M76 111l162 186q158 -107 346 -107q142 0 264 90.5t158 239.5q-214 -123 -422 -123q-80 0 -158.5 23t-145.5 66t-108 114.5t-41 159.5q0 103 48.5 188.5t128 140t178.5 84t204 29.5q108 0 212.5 -36t191 -102t139.5 -171.5t53 -233.5q0 -145 -57 -275.5t-153.5 -223 t-228 -147t-276.5 -54.5q-264 0 -495 152zM412 776q0 -46 25.5 -80t66.5 -52t83.5 -26t86.5 -8q154 0 340 78q-20 132 -113.5 209t-228.5 74q-40 -2 -82.5 -13.5t-83.5 -33t-67.5 -60.5t-26.5 -88z" />
<glyph unicode=":" horiz-adv-x="688" d="M76 129q0 75 60.5 130.5t144.5 55.5q76 0 127 -47.5t51 -115.5q0 -75 -61 -129t-146 -54q-76 0 -126 46t-50 114zM197 823q0 76 60 131.5t144 55.5q76 0 127.5 -47t51.5 -115q0 -76 -61 -130t-146 -54q-76 0 -126 45.5t-50 113.5z" />
<glyph unicode=";" horiz-adv-x="696" d="M-14 -238q53 14 114.5 46t112.5 84.5t53 103.5q0 5 1 10l1 4q-32 -8 -61 -8q-61 0 -102.5 39t-41.5 98q0 73 61 124.5t146 51.5q89 0 150 -66.5t61 -170.5q0 -96 -42 -178t-111 -138.5t-139 -93.5t-146 -61zM197 823q0 76 60 131.5t144 55.5q76 0 127.5 -47t51.5 -115 q0 -76 -61 -130t-146 -54q-76 0 -126 45.5t-50 113.5z" />
<glyph unicode="&#x3c;" d="M154 428v231l1189 383v-264l-794 -223v-25l794 -223v-262z" />
<glyph unicode="=" d="M154 178v236h1189v-236h-1189zM154 672v235h1189v-235h-1189z" />
<glyph unicode="&#x3e;" d="M154 45v262l796 223v25l-796 223v264l1189 -383v-231z" />
<glyph unicode="?" horiz-adv-x="1185" d="M215 1186q134 95 257 143.5t288 48.5q78 0 147.5 -15.5t130.5 -49t97 -93.5t36 -141q0 -115 -65 -200t-188 -156q-32 -20 -96 -53t-102 -55.5t-77 -67t-53 -101.5h-266q10 67 37 123.5t60 94t82 73t89 57t95 51t87 50.5q67 44 88 68q35 37 35 79q0 58 -48.5 87.5 t-111.5 29.5q-102 0 -190.5 -37t-192.5 -110zM240 131q0 76 60 131t144 55q77 0 128 -47.5t51 -115.5q0 -75 -60.5 -129t-146.5 -54q-76 0 -126 46t-50 114z" />
<glyph unicode="@" horiz-adv-x="2113" d="M90 432q0 148 45.5 285.5t125.5 248t191 201.5t240.5 152.5t274.5 95t293 33.5q178 0 325 -49t246 -135.5t153 -205t54 -255.5q0 -121 -41.5 -233t-110.5 -194.5t-155.5 -144.5t-179.5 -93.5t-179 -31.5q-42 0 -79 9t-71 28t-54 55.5t-21 86.5q-162 -176 -330 -176 q-51 0 -96.5 18.5t-82 54.5t-58 96.5t-21.5 137.5q0 100 34.5 196t92 170t127.5 131t145 87t142 30q82 0 138.5 -49t82.5 -129l63 145h254l-227 -524q-29 -66 -29 -92q0 -70 78 -70q57 0 119.5 35.5t115.5 95t87.5 148.5t34.5 186q0 210 -156.5 343.5t-421.5 133.5 q-138 0 -271.5 -37t-248 -108.5t-201.5 -168t-136.5 -224.5t-49.5 -269q0 -119 37.5 -219t101.5 -169t149 -117.5t179 -71.5t192 -23q134 0 291 39t264 90l47 -170q-110 -59 -286.5 -106t-345.5 -47q-126 0 -248.5 29.5t-235.5 93t-198.5 153.5t-137 220t-51.5 284zM834 469 q0 -125 94 -125q102 0 221 113l80 184q-9 65 -45.5 109.5t-87.5 44.5q-37 0 -81.5 -23.5t-85 -64t-68 -104t-27.5 -134.5z" />
<glyph unicode="A" horiz-adv-x="1531" d="M-102 0l905 1337h252l336 -1337h-308l-61 283h-621l-182 -283h-321zM549 514h422l-105 473h-12z" />
<glyph unicode="B" horiz-adv-x="1624" d="M92 0l281 1337h743q211 0 320 -112q86 -86 86 -201q0 -91 -60 -175t-157 -128q82 -38 130 -110t48 -169q0 -162 -131 -290q-155 -152 -432 -152h-828zM432 242h477q147 0 213 63q54 51 54 121q0 58 -41 102q-46 52 -123 52h-504zM555 791h465q98 0 151 53q48 45 48 114 q0 58 -35 93q-43 43 -133 43h-433z" />
<glyph unicode="C" horiz-adv-x="1570" d="M111 602q0 148 64 289.5t172 248.5t260 172.5t317 65.5q191 0 364.5 -83t292.5 -234l-229 -143q-81 91 -197 148.5t-240 57.5q-133 0 -248.5 -71.5t-183 -189t-67.5 -247.5q0 -170 116.5 -287.5t301.5 -117.5q118 0 239.5 49t226.5 129l158 -194q-138 -105 -302 -170.5 t-339 -65.5q-147 0 -276.5 46.5t-224.5 129.5t-150 204t-55 263z" />
<glyph unicode="D" horiz-adv-x="1660" d="M88 0l287 1337h534q195 0 311 -45.5t212 -136.5q76 -80 115.5 -184t39.5 -217q0 -142 -59 -280.5t-168 -244.5q-118 -112 -264.5 -170.5t-356.5 -58.5h-651zM438 252h314q96 0 168 18t116.5 45t98.5 74q70 68 108.5 158.5t38.5 189.5q0 146 -92 246q-57 51 -123.5 75.5 t-185.5 24.5h-265z" />
<glyph unicode="E" horiz-adv-x="1447" d="M90 0l285 1337h1114l-51 -254h-822l-57 -260h494l-54 -252h-491l-70 -319h869l-56 -252h-1161z" />
<glyph unicode="F" horiz-adv-x="1361" d="M90 0l285 1337h1104l-54 -254h-811l-57 -270h492l-54 -252h-491l-121 -561h-293z" />
<glyph unicode="G" horiz-adv-x="1654" d="M111 606q0 149 66.5 290.5t177 247t262.5 170t315 64.5q182 0 350 -63t305 -174l-201 -185q-80 74 -207.5 121t-258.5 47q-98 0 -190.5 -41t-161.5 -110t-110.5 -164.5t-41.5 -198.5q0 -180 123.5 -289.5t328.5 -109.5q167 0 281 57l55 260h-401l51 242h680l-141 -668 q-128 -69 -275.5 -106t-286.5 -37q-147 0 -278 46t-229 128t-155.5 205t-57.5 268z" />
<glyph unicode="H" horiz-adv-x="1642" d="M90 0l283 1337h295l-107 -495h633l106 495h295l-284 -1337h-295l125 594h-631l-125 -594h-295z" />
<glyph unicode="I" horiz-adv-x="716" d="M90 0l285 1337h295l-285 -1337h-295z" />
<glyph unicode="J" horiz-adv-x="1329" d="M-31 387l269 105q25 -136 102 -207.5t201 -71.5q104 0 181 64t101 178l189 882h293l-191 -915q-46 -220 -206.5 -341.5t-381.5 -121.5q-222 0 -367 107t-190 321z" />
<glyph unicode="K" horiz-adv-x="1546" d="M90 0l285 1337h295l-123 -559l704 559h371l-657 -542l473 -795h-338l-363 621l-262 -205l-90 -416h-295z" />
<glyph unicode="L" horiz-adv-x="1312" d="M90 0l285 1337h295l-232 -1085h787l-54 -252h-1081z" />
<glyph unicode="M" horiz-adv-x="1853" d="M88 0l285 1337h268l283 -733h4l592 733h284l-284 -1337h-295l166 776h-11l-508 -624h-81l-242 624h-10l-166 -776h-285z" />
<glyph unicode="N" horiz-adv-x="1652" d="M90 0l285 1337h250l501 -854h2l181 854h297l-285 -1337h-252l-502 854h-2l-180 -854h-295z" />
<glyph unicode="O" horiz-adv-x="1708" d="M113 614q0 152 66 293.5t175 244.5t258 164.5t308 61.5q203 0 368 -87t257.5 -236t92.5 -328q0 -154 -67 -296.5t-178 -245.5t-261.5 -164.5t-310.5 -61.5q-152 0 -284 51t-225 138.5t-146 208.5t-53 257zM422 614q0 -167 115 -285t284 -118q135 0 252 69.5t186.5 188.5 t69.5 258q0 164 -119 280.5t-290 116.5q-204 0 -351 -150t-147 -360z" />
<glyph unicode="P" horiz-adv-x="1523" d="M90 0l285 1337h708q232 0 351 -125q108 -111 108 -268q0 -171 -137 -305q-153 -147 -424 -147h-492l-104 -492h-295zM543 739h456q130 0 197 64q53 53 53 125q0 68 -45 116q-46 46 -143 46h-445z" />
<glyph unicode="Q" horiz-adv-x="1708" d="M113 618q0 154 67.5 295.5t178 242.5t257 161.5t299.5 60.5q108 0 214 -30t197.5 -88t161.5 -136.5t110 -184t40 -222.5q0 -175 -86.5 -329.5t-232.5 -262.5l192 -281l-270 -86l-166 242q-121 -41 -250 -41q-136 0 -264 48t-227.5 132t-160 209.5t-60.5 269.5zM418 633 q0 -175 120 -298.5t289 -123.5q44 0 99 10l-152 223l270 88l123 -184q75 69 118.5 159.5t43.5 192.5q0 178 -121.5 301t-292.5 123q-92 0 -182 -38.5t-159.5 -103t-112.5 -157t-43 -192.5z" />
<glyph unicode="R" horiz-adv-x="1595" d="M88 0l287 1337h708q234 0 355 -127q104 -113 104 -264q0 -143 -102 -262.5t-262 -163.5l196 -520h-319l-170 492h-396l-104 -492h-297zM543 739h477q108 0 176 68q53 50 53 123q0 65 -45 110q-28 28 -63 39t-90 11h-435z" />
<glyph unicode="S" horiz-adv-x="1490" d="M33 297l184 182q114 -130 265 -205t315 -75q72 0 133 15t106 55t45 100q0 30 -11 54t-35 43t-52.5 33.5t-72.5 27.5t-84.5 22t-98.5 20q-81 16 -126 26.5t-116.5 32.5t-112 48.5t-83.5 65t-62.5 93.5t-19.5 123q0 103 43 184.5t117.5 132t170 77t205.5 26.5 q184 0 362.5 -64t317.5 -184l-198 -182q-86 93 -223 141t-275 48q-36 0 -70.5 -6t-70.5 -19.5t-58 -42t-22 -68.5q0 -77 99 -117q47 -19 181 -48q215 -40 310 -74q237 -85 277 -264q9 -40 9 -84q0 -144 -78.5 -248t-210.5 -155.5t-302 -51.5q-225 0 -418.5 86t-339.5 252z " />
<glyph unicode="T" horiz-adv-x="1353" d="M145 1083l56 254h1259l-53 -254h-481l-232 -1083h-295l230 1083h-484z" />
<glyph unicode="U" horiz-adv-x="1593" d="M172 424q0 103 41 297q22 109 68.5 324.5t62.5 291.5h293l-137 -653q-35 -164 -35 -229q0 -117 86 -180.5t211 -63.5t213.5 64.5t116.5 193.5l182 868h297l-191 -903q-26 -117 -84 -208.5t-140.5 -149t-183 -87.5t-214.5 -30q-159 0 -291 54t-213.5 161.5t-81.5 249.5z " />
<glyph unicode="V" horiz-adv-x="1521" d="M178 1337h318l209 -970h12l622 970h332l-905 -1337h-252z" />
<glyph unicode="W" horiz-adv-x="2048" d="M221 1337h309l72 -878h12l461 878h213l88 -878h13l442 878h317l-712 -1337h-279l-82 795h-12l-420 -795h-278z" />
<glyph unicode="X" horiz-adv-x="1531" d="M-104 0l716 690l-370 647h348l239 -440l441 440h375l-670 -645l403 -692h-348l-268 487l-490 -487h-376z" />
<glyph unicode="Y" horiz-adv-x="1357" d="M164 1337h342l225 -465l424 465h369l-690 -731l-129 -606h-295l129 614z" />
<glyph unicode="Z" horiz-adv-x="1384" d="M0 0l37 176l885 907h-715l55 254h1141l-39 -178l-885 -907h756l-55 -252h-1180z" />
<glyph unicode="[" horiz-adv-x="786" d="M-16 -315l364 1726h537l-43 -209h-267l-278 -1308h266l-45 -209h-534z" />
<glyph unicode="\" horiz-adv-x="1110" d="M248 1337h260l366 -1581h-262z" />
<glyph unicode="]" horiz-adv-x="786" d="M-109 -315l46 209h266l278 1308h-266l43 209h537l-367 -1726h-537z" />
<glyph unicode="^" d="M166 426l457 829h262l448 -829h-301l-270 522h-17l-276 -522h-303z" />
<glyph unicode="_" horiz-adv-x="1234" d="M-223 -424l41 195h1257l-41 -195h-1257z" />
<glyph unicode="`" horiz-adv-x="1015" d="M332 1430h276l185 -300h-240z" />
<glyph unicode="a" horiz-adv-x="1218" d="M20 303q0 109 63 188.5t160 116.5t214 37q202 0 338 -113l22 97q8 39 8 57q0 46 -35 76.5t-83.5 41.5t-108.5 11q-78 0 -173.5 -17t-154.5 -38l-47 213q72 22 182.5 39.5t212.5 17.5q72 0 137.5 -8t130.5 -28t112 -50.5t76.5 -80.5t29.5 -113q0 -38 -29 -183l-76 -360 q-18 -87 -18 -162q0 -23 2 -45h-270q-1 15 -1 33q0 30 3 71q-160 -129 -324 -129q-70 0 -135 21t-118.5 61t-85.5 104t-32 142zM293 315q0 -71 56.5 -106t131.5 -35q78 0 149 32.5t107 63.5l19 92q-91 93 -260 93q-86 0 -144.5 -35.5t-58.5 -104.5z" />
<glyph unicode="b" horiz-adv-x="1294" d="M25 0q11 29 20.5 58.5t15.5 50.5t13 51t10 43.5t9.5 46t8.5 41.5l242 1143h272l-112 -531q139 129 301 129q119 0 208 -61t134 -163t45 -228q0 -115 -40.5 -224.5t-110.5 -195t-174 -137.5t-222 -52q-214 0 -328 164q-20 -77 -43 -135h-249zM381 309q40 -46 104.5 -77 t132.5 -31q125 0 202 109.5t77 256.5q0 103 -45.5 168.5t-136.5 65.5q-62 0 -131 -34.5t-129 -98.5z" />
<glyph unicode="c" horiz-adv-x="1128" d="M74 455q0 111 46.5 216t125 184.5t189 128t231.5 48.5q130 0 248.5 -46t205.5 -132l-190 -168q-54 50 -123.5 82.5t-140.5 32.5q-125 0 -211 -103.5t-86 -240.5q0 -103 66 -180.5t177 -77.5q115 0 269 86l116 -197q-52 -39 -167 -79t-252 -40q-229 0 -366.5 133.5 t-137.5 352.5z" />
<glyph unicode="d" horiz-adv-x="1292" d="M70 408q0 112 40.5 223.5t110.5 200.5t174.5 144.5t222.5 55.5q173 0 310 -147q17 93 56.5 280t55.5 269h273l-244 -1155q-35 -168 -39 -279h-254v12q0 35 8 105q-151 -146 -311 -146q-92 0 -169 35.5t-127.5 95.5t-78.5 139t-28 167zM365 442q0 -98 46.5 -169.5 t137.5 -71.5q128 0 258 135l76 360q-43 43 -107 74t-129 31q-83 0 -149 -54t-99.5 -135t-33.5 -170z" />
<glyph unicode="e" horiz-adv-x="1212" d="M76 444q0 160 76 295t208.5 214t290.5 79q92 0 174 -26t148.5 -77.5t105.5 -136.5t39 -194q0 -52 -16 -166h-762q8 -105 72.5 -174.5t177.5 -69.5q149 0 325 80l109 -178q-248 -121 -473 -121q-113 0 -204 38t-149.5 103.5t-90 151t-31.5 182.5zM367 614h485v12 q0 90 -56 142q-60 56 -149 55q-99 0 -172 -57.5t-108 -151.5z" />
<glyph unicode="f" horiz-adv-x="774" d="M113 797l43 202h172l34 158q17 81 57.5 141t94.5 93.5t110 49t115 15.5q51 0 115 -11t90 -24l-74 -209q-25 9 -67.5 16t-65.5 7q-40 0 -67 -21t-33 -57l-35 -158h246l-43 -202h-246l-168 -797h-274l168 797h-172z" />
<glyph unicode="g" horiz-adv-x="1294" d="M0 -299l141 168q64 -56 156.5 -87.5t179.5 -31.5q105 0 166.5 48t77.5 126l39 185q-134 -127 -287 -127q-92 0 -168.5 35.5t-127 96t-78 140t-27.5 168.5q0 157 68.5 296.5t194 226.5t277.5 87q104 0 190 -46.5t144 -125.5q9 44 45 139h256q-55 -137 -86 -290l-170 -807 q-38 -172 -177 -270.5t-345 -98.5q-128 0 -252.5 41.5t-216.5 126.5zM367 442q0 -99 45.5 -165t132.5 -66q64 0 135.5 35t130.5 98l72 348q-42 45 -107.5 77t-132.5 32q-122 0 -199 -107.5t-77 -251.5z" />
<glyph unicode="h" horiz-adv-x="1249" d="M39 0l303 1434h274l-114 -537q79 62 150 98.5t149 36.5q132 0 225.5 -88t93.5 -227q0 -47 -20 -164l-119 -553h-274l122 580q17 66 17 106q0 57 -40 86t-97 29q-66 0 -127 -35t-129 -98l-142 -668h-272z" />
<glyph unicode="i" horiz-adv-x="591" d="M41 0l207 999h274l-209 -999h-272zM287 1294q0 63 52 110.5t124 47.5q65 0 109 -40.5t44 -98.5q0 -65 -53 -110.5t-125 -45.5q-66 0 -108.5 39.5t-42.5 97.5z" />
<glyph unicode="j" horiz-adv-x="591" d="M-209 -262q41 8 72 18.5t65 30t57 52t33 77.5l232 1083h272l-233 -1095q-17 -79 -55 -143.5t-85 -106t-104.5 -69.5t-111.5 -40t-107 -12zM285 1294q0 63 52 110.5t124 47.5q65 0 109 -40.5t44 -98.5q0 -65 -53 -110.5t-125 -45.5q-66 0 -108.5 39.5t-42.5 97.5z" />
<glyph unicode="k" horiz-adv-x="1167" d="M39 0l305 1434h274l-169 -793l409 358h359l-451 -366l311 -633h-317l-211 459l-168 -137l-68 -322h-274z" />
<glyph unicode="l" horiz-adv-x="626" d="M55 0l305 1434h275l-305 -1434h-275z" />
<glyph unicode="m" horiz-adv-x="1847" d="M43 0l156 743q25 117 28 256h248q2 -21 2 -46q0 -35 -4 -79q178 158 328 158q89 0 155.5 -48.5t104.5 -133.5q87 87 182 134.5t182 47.5q121 0 208 -85.5t87 -231.5q0 -63 -22 -164l-117 -551h-276l118 559q21 99 21 123q0 55 -37.5 87t-91.5 32q-59 0 -119.5 -39.5 t-110.5 -97.5l-137 -664h-276l141 655q3 15 3 30q0 45 -30 75q-40 42 -106 41q-105 0 -223 -131l-140 -670h-274z" />
<glyph unicode="n" horiz-adv-x="1251" d="M43 0l156 743q25 116 28 256h248q2 -22 2 -48q0 -36 -4 -79q83 74 161.5 117t168.5 43q134 0 227.5 -88.5t93.5 -226.5q0 -49 -22 -166l-117 -551h-274l118 555q1 7 7 33t10 51t4 43q0 58 -41 88.5t-100 30.5q-108 0 -252 -133l-142 -668h-272z" />
<glyph unicode="o" horiz-adv-x="1273" d="M76 459q0 158 77.5 289t215.5 207.5t307 76.5q226 0 359.5 -136.5t133.5 -346.5q0 -118 -45 -225t-123.5 -185t-190.5 -124t-239 -46q-227 0 -361 139t-134 351zM356 467q0 -116 61.5 -194t172.5 -78q133 0 217 101.5t84 244.5q0 114 -62 189t-174 75 q-130 0 -214.5 -99.5t-84.5 -238.5z" />
<glyph unicode="p" horiz-adv-x="1294" d="M-51 -424l246 1145q34 149 38 278h254v-17q0 -37 -6 -99q30 28 54.5 47.5t67 46.5t93 41t105.5 14q119 0 210.5 -62.5t138 -164t46.5 -223.5q0 -111 -41 -220t-111.5 -196t-175.5 -141t-223 -54q-90 0 -164 35.5t-143 110.5l-115 -541h-274zM383 309q43 -45 106 -76.5 t129 -31.5h2q121 0 200 108q79 109 79 250q0 99 -46 170.5t-136 71.5q-131 0 -258 -133z" />
<glyph unicode="q" horiz-adv-x="1294" d="M72 416q0 115 40 225.5t110 197.5t174 140t222 53q102 0 186 -44.5t142 -127.5q5 22 43 139h260q-50 -120 -88 -290l-239 -1133h-275l113 524q-136 -129 -287 -129q-184 0 -292.5 126.5t-108.5 318.5zM367 436q0 -99 45.5 -167t132.5 -68q63 0 134 35t130 98l74 358 q-40 45 -105.5 77t-132.5 32q-83 0 -147.5 -53.5t-97.5 -136t-33 -175.5z" />
<glyph unicode="r" horiz-adv-x="835" d="M43 0l152 717q24 125 30 282h250q-3 -66 -12 -149q36 45 62 72.5t60.5 55.5t73 41t82.5 13q36 0 73 -11t56 -30l-57 -250q-85 29 -151 29q-50 0 -98 -32t-111 -95l-138 -643h-272z" />
<glyph unicode="s" horiz-adv-x="1146" d="M-4 170l133 184q83 -77 199 -128.5t227 -51.5q42 0 79.5 10t66 37.5t28.5 67.5q0 28 -14.5 48.5t-42 33t-53.5 19.5t-64 13q-169 31 -237 58q-156 62 -173 201q-2 18 -2 38q0 156 115.5 246t304.5 90q133 0 268.5 -41.5t241.5 -113.5l-133 -183q-78 53 -183 90t-192 37 q-58 0 -100 -21t-45 -69q-1 -20 8.5 -36t23.5 -26t38.5 -18t44.5 -12.5t51 -9.5q43 -7 68 -12t69 -15.5t72.5 -22t65.5 -29t60.5 -40t45.5 -51.5t32.5 -67t10.5 -83q0 -163 -129 -255.5t-334 -92.5q-152 0 -294.5 52.5t-256.5 152.5z" />
<glyph unicode="t" horiz-adv-x="819" d="M90 797l43 202h174l60 283h272l-61 -283h247l-43 -202h-247l-107 -508q-4 -24 -4 -35q0 -64 92 -64q58 0 131 15l-24 -205q-31 -20 -100.5 -29.5t-123.5 -9.5q-110 0 -184 52.5t-74 168.5q0 36 9 76l114 539h-174z" />
<glyph unicode="u" horiz-adv-x="1251" d="M98 283q0 44 23 166l117 550h274l-119 -555q-20 -90 -20 -122q0 -63 41 -93t100 -30q110 0 252 131l141 669h273l-154 -733q-30 -144 -35 -266h-250q-1 8 -1 19q0 36 8 106q-82 -73 -160.5 -115.5t-167.5 -42.5q-135 0 -228.5 89t-93.5 227z" />
<glyph unicode="v" horiz-adv-x="1146" d="M111 999h292l107 -630h12l385 630h293l-649 -999h-219z" />
<glyph unicode="w" horiz-adv-x="1632" d="M147 999h275l33 -639h12l313 639h248l47 -639h12l291 639h289l-534 -999h-261l-43 612h-12l-307 -612h-258z" />
<glyph unicode="x" horiz-adv-x="1228" d="M-86 0l526 516l-301 483h330l164 -305l287 305h354l-504 -491l301 -508h-326l-170 328l-307 -328h-354z" />
<glyph unicode="y" horiz-adv-x="1124" d="M-55 -424l379 533l-213 890h288l119 -596h12l390 596h299l-975 -1423h-299z" />
<glyph unicode="z" horiz-adv-x="1089" d="M-14 0l32 156l609 630h-480l43 213h863l-33 -157l-608 -631h520l-45 -211h-901z" />
<glyph unicode="{" horiz-adv-x="827" d="M29 461l45 205q85 0 156.5 47.5t88.5 124.5l50 227q18 88 45.5 147t67.5 100t104 62t143 30t197 9l-43 -209q-127 0 -175.5 -24.5t-66.5 -104.5l-49 -237q-23 -101 -96.5 -171.5t-169.5 -93.5l-2 -10q159 -28 159 -178q0 -43 -8 -84l-61 -285q-4 -32 -4 -45 q0 -46 42 -61.5t152 -15.5l-45 -209q-242 0 -336 41t-94 163q0 53 16 138l60 274q4 28 4 43q0 117 -180 117z" />
<glyph unicode="|" horiz-adv-x="708" d="M219 -629v2482h258v-2482h-258z" />
<glyph unicode="}" horiz-adv-x="825" d="M-111 -315l45 209q125 0 174 23t66 99l62 285q28 126 95.5 186.5t168.5 75.5l2 10q-71 19 -115.5 73t-44.5 130q0 39 6 62l51 237q4 32 4 43q1 51 -41 68.5t-149 17.5l43 209q238 0 333 -44t95 -169q0 -64 -16 -135l-50 -227q-2 -10 -2 -31q-1 -63 51 -102t128 -39 l-45 -205q-209 0 -244 -160l-57 -274q-16 -73 -36 -125t-52 -91t-71.5 -62.5t-100 -38.5t-130.5 -20t-170 -5z" />
<glyph unicode="~" d="M66 500q125 139 225.5 206.5t208.5 67.5q46 0 91 -10.5t74 -22.5t65.5 -36t49 -34t41.5 -34q47 -40 85 -62t77 -22q90 0 244 164l209 -129q-249 -285 -459 -285q-25 0 -50 3t-44.5 7t-42 12.5t-37 14.5t-34.5 18t-29.5 18t-27.5 20t-23 17.5t-21 17.5t-17 15 q-98 78 -159 78q-75 0 -224 -155z" />
<glyph unicode="&#xa1;" horiz-adv-x="657" d="M-55 -354l75 354l173 537h190l-53 -537l-76 -354h-309zM158 829q0 76 62.5 130.5t148.5 54.5q74 0 123 -45.5t49 -112.5q0 -76 -61.5 -132t-147.5 -56q-74 0 -124 47t-50 114z" />
<glyph unicode="&#xa2;" horiz-adv-x="1241" d="M84 430q0 102 46.5 199.5t125 171t190 118t234.5 44.5q9 0 29 -1t30 -1l47 147h193l-59 -182q137 -45 235 -127l-184 -166q-66 48 -131 72l-162 -510q122 12 252 75l121 -192q-56 -35 -172 -71t-256 -36h-5l-73 -235h-193l82 260q-165 43 -257.5 157.5t-92.5 276.5z M375 430q0 -65 37.5 -122t103.5 -87l162 514q-129 -3 -216 -94t-87 -211z" />
<glyph unicode="&#xa3;" horiz-adv-x="1454" d="M6 0l43 221h86q110 0 156 43.5t69 169.5l17 103h-262l35 168h256l26 147q15 87 66.5 156t123.5 110t152.5 62.5t161.5 21.5q106 0 236.5 -36.5t240.5 -96.5l-160 -197q-81 43 -174 71t-161 28q-71 0 -131.5 -40.5t-73.5 -113.5l-21 -112h451l-35 -168h-444l-17 -103 q-15 -97 -64 -145.5t-153 -67.5h842l-43 -221h-1223z" />
<glyph unicode="&#xa4;" horiz-adv-x="1728" d="M72 90l237 184q-47 100 -47 218q0 211 141 374l-190 226l219 143l174 -205q147 80 307 80q188 0 332 -109l223 173l183 -183l-242 -186q49 -107 49 -221q0 -206 -145 -377l196 -227l-225 -136l-174 203q-147 -80 -311 -80q-186 0 -330 109l-215 -168zM553 494 q0 -114 73.5 -196.5t174.5 -82.5q147 0 255.5 108.5t108.5 258.5q0 117 -74.5 198.5t-179.5 81.5q-146 0 -252 -108.5t-106 -259.5z" />
<glyph unicode="&#xa5;" horiz-adv-x="1589" d="M78 375l28 147h531l2 10l-68 115h-438l29 150h323l-213 366h332l215 -391l381 391h359l-365 -366h317l-26 -150h-441l-120 -123v-2h534l-31 -147h-536l-80 -375h-285l78 375h-526z" />
<glyph unicode="&#xa6;" horiz-adv-x="708" d="M219 393h258v-860h-258v860zM219 788v844h258v-844h-258z" />
<glyph unicode="&#xa7;" horiz-adv-x="1449" d="M76 444q0 143 125 246q56 48 147 86q-4 8 -14 51q-6 18 -6 54q0 79 40 142.5t105.5 102.5t145 59.5t163.5 20.5q127 0 255 -40.5t239 -112.5l-146 -170q-85 48 -184.5 81t-181.5 33q-136 0 -146 -77q-6 -27 13 -46q6 -7 15 -13t22.5 -11.5t25.5 -9.5t34 -9.5t36.5 -9 t44.5 -10t47 -10.5q279 -63 387 -187q74 -81 74 -184q0 -71 -33 -135.5t-92 -110.5q-58 -50 -148 -88q12 -30 13 -35q8 -24 8 -63q0 -107 -66.5 -183.5t-166.5 -111.5t-218 -35q-127 0 -253 40t-234 112l147 170q75 -46 167.5 -78.5t181.5 -32.5q153 0 153 86q0 25 -12 37 q-28 30 -196 69q-5 1 -7.5 2t-6.5 2t-8 1.5t-7 1.5q-284 63 -389 184q-74 77 -74 182zM356 477q0 -43 31 -74q24 -27 69 -48t76.5 -29t90.5 -21q203 -41 278 -80q31 17 55 37q80 65 80 135q0 43 -30 76q-52 61 -234 98q-7 1 -53 11t-62.5 14.5t-52 13.5t-61.5 18.5t-51 20.5 q-2 -1 -56 -37q-80 -65 -80 -135z" />
<glyph unicode="&#xa8;" horiz-adv-x="1015" d="M281 1268q0 60 48 104.5t115 44.5q59 0 98.5 -38t39.5 -91q0 -60 -49 -101.5t-117 -41.5q-59 0 -97 35t-38 88zM741 1268q0 60 47.5 104.5t114.5 44.5q59 0 99 -38t40 -91q0 -60 -48.5 -101.5t-116.5 -41.5q-60 0 -98 35t-38 88z" />
<glyph unicode="&#xa9;" horiz-adv-x="2150" d="M113 549q0 184 76.5 350.5t206 286t307 190t372.5 70.5q193 0 369.5 -70.5t305 -190t204.5 -286t76 -350.5t-76 -350.5t-204.5 -286t-305 -190t-369.5 -70.5q-195 0 -372.5 70.5t-307 190t-206 286t-76.5 350.5zM317 549q0 -145 61 -277.5t163 -227.5t242 -151.5 t292 -56.5q154 0 293 56.5t239 151.5t159 227t59 278q0 143 -59 274.5t-159 228.5t-239 154.5t-293 57.5q-152 0 -292 -57.5t-242 -154t-163 -229t-61 -274.5zM571 551q0 202 143 338.5t373 136.5q108 0 218 -38.5t200 -100.5l-104 -182q-138 106 -291 106 q-119 0 -193.5 -75t-74.5 -185q0 -103 79.5 -167.5t194.5 -64.5q86 0 152 23t147 68l98 -177q-93 -65 -186 -98t-233 -33q-144 0 -263 55t-189.5 158.5t-70.5 235.5z" />
<glyph unicode="&#xaa;" horiz-adv-x="958" d="M88 674q0 117 97 182.5t235 65.5q146 0 250 -76l16 63q6 18 6 35q0 48 -47.5 69t-118.5 21q-120 0 -254 -41l-36 168q150 41 303 41q71 0 133 -10t119 -32.5t90.5 -64.5t33.5 -100q0 -36 -18 -135l-55 -256q-17 -71 -11 -153h-219v73q-58 -45 -112 -70.5t-123 -25.5 q-114 0 -201.5 66.5t-87.5 179.5zM309 686q-1 -50 39.5 -74t93.5 -24q93 0 189 69l12 56q-74 57 -194 57q-55 0 -96 -19.5t-44 -64.5z" />
<glyph unicode="&#xab;" horiz-adv-x="1267" d="M70 457l22 116l252 258h293l-313 -315l-2 -16l196 -299h-282zM598 500l2 16l307 315h293l-317 -321l-4 -16l194 -293h-282z" />
<glyph unicode="&#xac;" d="M154 627v233h1189v-629h-270v396h-919z" />
<glyph unicode="&#xad;" horiz-adv-x="827" d="M96 406l47 253h574l-49 -253h-572z" />
<glyph unicode="&#xae;" horiz-adv-x="1292" d="M174 852q0 142 79.5 266t214.5 197.5t290 73.5q140 0 254 -62.5t176.5 -167t62.5 -227.5q0 -143 -81.5 -266t-218 -194t-292.5 -71q-211 0 -348 130t-137 321zM276 862q0 -155 111.5 -259.5t282.5 -104.5q126 0 236 58t175.5 157t65.5 213q0 154 -112.5 262t-284.5 108 q-125 0 -234.5 -59.5t-174.5 -160t-65 -214.5zM414 664l118 491h304q74 0 118.5 -42.5t44.5 -100.5q0 -52 -41.5 -98.5t-103.5 -63.5l74 -186h-140l-61 174h-143l-41 -174h-129zM608 940h185q31 0 56 18t25 43q0 21 -17.5 38.5t-47.5 17.5h-174z" />
<glyph unicode="&#xaf;" horiz-adv-x="1015" d="M362 1171l41 191h549l-41 -191h-549z" />
<glyph unicode="&#xb0;" horiz-adv-x="1021" d="M160 918q9 158 137 270t319 112q173 0 279 -98t106 -241q0 -79 -35 -152t-95 -128t-145.5 -87.5t-182.5 -32.5q-180 0 -285.5 103t-97.5 254zM403 920q-5 -66 39 -112t117 -46q87 0 143 54t56 130q0 65 -43.5 109.5t-116.5 44.5q-84 0 -138 -52t-57 -128z" />
<glyph unicode="&#xb1;" d="M154 0v233h1189v-233h-1189zM154 662v235h462v317h269v-317h458v-235h-458v-318h-269v318h-462z" />
<glyph unicode="&#xb2;" horiz-adv-x="989" d="M59 451l41 198q55 260 478 330q121 21 164 49q40 25 40 62q0 26 -15.5 44.5t-40 26.5t-46.5 11.5t-43 3.5q-129 0 -318 -107l-94 168q82 43 131 66t130.5 45t158.5 22q45 0 92.5 -7t100.5 -26t93.5 -47.5t67.5 -76t27 -107.5q0 -54 -20 -99.5t-57 -77t-78 -55t-94 -40.5 t-94 -28t-88 -21l-15 -3q-53 -12 -80.5 -19t-59 -17.5t-46.5 -21.5t-28 -27.5t-20 -39.5l-6 -20h565l-39 -186h-807z" />
<glyph unicode="&#xb3;" horiz-adv-x="1095" d="M53 674l166 137q73 -96 171.5 -147.5t209.5 -51.5q95 0 158 31.5t63 89.5q0 49 -39.5 70.5t-83.5 21.5h-190l39 176h176q46 0 73 24.5t27 59.5q0 33 -23.5 54.5t-53 29t-62.5 7.5q-140 0 -336 -113l-106 158q259 147 460 147q91 0 173.5 -28t139 -87t56.5 -137 q0 -65 -35.5 -113.5t-97.5 -72.5q121 -69 121 -205q0 -97 -68.5 -168t-173.5 -104t-231 -33q-333 0 -533 254z" />
<glyph unicode="&#xb4;" horiz-adv-x="1015" d="M465 1130l184 300h275l-222 -300h-237z" />
<glyph unicode="&#xb5;" horiz-adv-x="1275" d="M-66 -449l308 1448h274l-119 -555q-20 -90 -20 -120q0 -59 42 -92t101 -33q107 0 250 131l141 669h273l-154 -733q-30 -144 -35 -266h-250q-3 34 7 125q-82 -73 -160.5 -115.5t-167.5 -42.5q-74 0 -117 37l-98 -453h-275z" />
<glyph unicode="&#xb6;" horiz-adv-x="1859" d="M166 891q0 198 119 322t336 124h1189l-376 -1761h-252l327 1532h-217l-323 -1532h-254l200 940h-354q-100 0 -188.5 42.5t-147.5 130t-59 202.5zM436 915q0 -78 50 -124t114 -46h365l77 363h-417q-73 0 -131 -49.5t-58 -143.5z" />
<glyph unicode="&#xb7;" d="M541 543q0 76 60 130t149 54q87 0 147.5 -54t60.5 -130q0 -77 -60 -130t-148 -53q-90 0 -149.5 53t-59.5 130z" />
<glyph unicode="&#xb8;" horiz-adv-x="1015" d="M-20 -403l71 141q9 -2 46.5 -11.5t52 -12.5t43 -9t50 -8t42.5 -2q61 0 96 18t35 49q0 33 -38.5 49.5t-82.5 16.5q-25 0 -35 -2l-14 61l123 162h190l-90 -121q35 -10 54.5 -16.5t48.5 -20.5t45 -29.5t28 -41t12 -56.5q0 -101 -105.5 -165t-264.5 -64q-55 0 -112 10 t-94 20.5t-101 31.5z" />
<glyph unicode="&#xb9;" horiz-adv-x="669" d="M152 1223l294 114h222l-183 -886h-243l139 663l-227 -86z" />
<glyph unicode="&#xba;" horiz-adv-x="976" d="M123 788q0 113 61 208.5t166 150.5t228 55q170 0 276.5 -100.5t106.5 -253.5q0 -175 -133.5 -297.5t-323.5 -122.5q-169 0 -275 102.5t-106 257.5zM350 793q0 -81 43.5 -134t124.5 -53q97 0 157 69t60 167q0 80 -44.5 130t-127.5 50q-96 0 -154.5 -66t-58.5 -163z" />
<glyph unicode="&#xbb;" horiz-adv-x="1269" d="M47 201l318 321l2 17l-193 292h281l194 -299l-4 -16l-307 -315h-291zM608 201l314 315l4 16l-197 299h281l168 -256l-25 -116l-250 -258h-295z" />
<glyph unicode="&#xbc;" horiz-adv-x="2230" d="M150 1223l294 114h222l-181 -886h-243l137 663l-227 -86zM342 0l903 1337h234l-899 -1337h-238zM1028 178l29 137l796 572h218l-113 -531h170l-37 -178h-170l-37 -178h-239l36 178h-653zM1417 356h301l51 242h-16l-336 -238v-4z" />
<glyph unicode="&#xbd;" horiz-adv-x="2097" d="M150 1223l294 114h222l-181 -886h-243l137 663l-227 -86zM342 0l903 1337h234l-899 -1337h-238zM1073 0l41 199q55 259 477 329q121 21 164 48q41 26 41 63q0 26 -15.5 44.5t-40 26.5t-46.5 11.5t-43 3.5q-129 0 -318 -107l-94 168q63 33 98.5 50t93 40t113.5 33.5 t115 10.5q45 0 92.5 -7t100.5 -26t93.5 -48t67.5 -76.5t27 -107.5q0 -47 -17.5 -87t-38 -68t-65 -54.5t-70.5 -40t-85.5 -31t-77 -21.5t-76.5 -17q-11 -3 -17 -4q-125 -27 -171 -49.5t-62 -75.5l-6 -21h565l-39 -186h-807z" />
<glyph unicode="&#xbe;" horiz-adv-x="2656" d="M53 674l164 137q75 -97 174 -148t209 -51q94 0 157.5 32t63.5 89q0 49 -40 70.5t-85 21.5h-188l37 176h178q45 0 71.5 24.5t26.5 59.5q0 47 -42 69t-95 22q-71 0 -161.5 -32t-176.5 -81l-104 158q259 147 460 147q91 0 173 -28t138 -87t56 -137q0 -65 -35.5 -113.5 t-97.5 -72.5q123 -68 123 -205q0 -97 -68.5 -168t-173.5 -104t-231 -33q-336 0 -533 254zM768 0l903 1337h234l-899 -1337h-238zM1454 178l29 137l796 572h218l-113 -531h170l-37 -178h-170l-37 -178h-239l36 178h-653zM1843 356h301l51 242h-16l-336 -238v-4z" />
<glyph unicode="&#xbf;" horiz-adv-x="1175" d="M-55 -96q0 115 65.5 200t188.5 156q29 19 77 43t81.5 43t70.5 45.5t61.5 63t36.5 82.5h267q-10 -67 -37 -123.5t-60.5 -94t-82 -73t-89 -57t-95.5 -51t-87 -50.5q-67 -44 -88 -68q-35 -37 -35 -79q0 -58 48.5 -87.5t111.5 -29.5q102 0 190.5 37t192.5 110l139 -174 q-134 -95 -257 -143.5t-288 -48.5q-78 0 -147.5 15.5t-130.5 49t-97 93.5t-36 141zM494 829q0 75 60 129t146 54q76 0 126.5 -46t50.5 -114q0 -75 -60.5 -130.5t-144.5 -55.5q-77 0 -127.5 47.5t-50.5 115.5z" />
<glyph unicode="&#xc0;" horiz-adv-x="1531" d="M-102 0l905 1337h252l336 -1337h-308l-61 283h-621l-182 -283h-321zM549 514h422l-105 473h-12zM643 1769h293l205 -282h-246z" />
<glyph unicode="&#xc1;" horiz-adv-x="1531" d="M-102 0l905 1337h252l336 -1337h-308l-61 283h-621l-182 -283h-321zM549 514h422l-105 473h-12zM782 1487l205 282h293l-254 -282h-244z" />
<glyph unicode="&#xc2;" horiz-adv-x="1531" d="M-102 0l905 1337h252l336 -1337h-308l-61 283h-621l-182 -283h-321zM549 514h422l-105 473h-12zM608 1487l279 285h270l156 -285h-203l-102 151l-170 -151h-230z" />
<glyph unicode="&#xc3;" horiz-adv-x="1531" d="M-102 0l905 1337h252l336 -1337h-308l-61 283h-621l-182 -283h-321zM549 514h422l-105 473h-12zM584 1565q86 108 157 154t146 46q72 0 137 -51q4 -3 18 -14.5t20 -15t17 -10t20.5 -9t20.5 -2.5q23 0 50.5 17.5t40 30t44.5 46.5l134 -82q-154 -205 -302 -205 q-70 0 -133 48q-5 4 -16.5 14t-16 13.5t-14 10.5t-16 9.5t-15.5 5t-18 2.5q-12 0 -24.5 -4.5t-21.5 -10t-22.5 -18t-20.5 -19t-22 -23t-20 -21.5z" />
<glyph unicode="&#xc4;" horiz-adv-x="1531" d="M-102 0l905 1337h252l336 -1337h-308l-61 283h-621l-182 -283h-321zM549 514h422l-105 473h-12zM612 1622q0 60 48.5 105t115.5 45q59 0 99 -38.5t40 -91.5q0 -60 -48.5 -101.5t-116.5 -41.5q-60 0 -99 35t-39 88zM1073 1622q0 61 48 105.5t116 44.5q58 0 97.5 -38.5 t39.5 -91.5q0 -60 -49 -101.5t-117 -41.5q-59 0 -97 35t-38 88z" />
<glyph unicode="&#xc5;" horiz-adv-x="1531" d="M-102 0l905 1337h252l336 -1337h-308l-61 283h-621l-182 -283h-321zM549 514h422l-105 473h-12zM713 1622q0 101 81.5 174.5t221.5 73.5q122 0 189 -61t67 -150q0 -100 -82 -170t-221 -70q-123 0 -189.5 58t-66.5 145zM872 1630q0 -41 30.5 -65.5t78.5 -24.5 q57 0 94 30.5t37 80.5q0 43 -30.5 72.5t-77.5 29.5q-54 0 -93 -36t-39 -87z" />
<glyph unicode="&#xc6;" horiz-adv-x="2185" d="M-158 0l1096 1337h1288l-53 -254h-819l-58 -260h492l-51 -252h-494l-69 -319h868l-53 -252h-1162l60 283h-477l-230 -283h-338zM592 514h344l123 569h-10z" />
<glyph unicode="&#xc7;" horiz-adv-x="1570" d="M111 602q0 148 64 289.5t172 248.5t260 172.5t317 65.5q191 0 364.5 -83t292.5 -234l-229 -143q-81 91 -197 148.5t-240 57.5q-133 0 -248.5 -71.5t-183 -189t-67.5 -247.5q0 -170 116.5 -287.5t301.5 -117.5q118 0 239.5 49t226.5 129l158 -194q-138 -105 -302 -170.5 t-339 -65.5q-9 0 -27 1t-26 1l-25 -33q35 -10 54.5 -16.5t49 -20.5t45.5 -29.5t28 -41t12 -56.5q0 -101 -106 -165t-265 -64q-55 0 -112 10t-94 20.5t-101 31.5l72 141q11 -3 47 -12t51 -12.5t42.5 -9t49.5 -7.5t43 -2q61 0 96 18t35 49q0 33 -38.5 49.5t-82.5 16.5 q-25 0 -35 -2l-14 61l76 103q-217 58 -349 221t-132 391z" />
<glyph unicode="&#xc8;" horiz-adv-x="1447" d="M90 0l285 1337h1114l-51 -254h-822l-57 -260h494l-54 -252h-491l-70 -319h869l-56 -252h-1161zM645 1769h293l205 -282h-246z" />
<glyph unicode="&#xc9;" horiz-adv-x="1447" d="M90 0l285 1337h1114l-51 -254h-822l-57 -260h494l-54 -252h-491l-70 -319h869l-56 -252h-1161zM784 1487l205 282h293l-254 -282h-244z" />
<glyph unicode="&#xca;" horiz-adv-x="1447" d="M90 0l285 1337h1114l-51 -254h-822l-57 -260h494l-54 -252h-491l-70 -319h869l-56 -252h-1161zM610 1487l279 285h270l156 -285h-203l-102 151l-170 -151h-230z" />
<glyph unicode="&#xcb;" horiz-adv-x="1447" d="M90 0l285 1337h1114l-51 -254h-822l-57 -260h494l-54 -252h-491l-70 -319h869l-56 -252h-1161zM614 1622q0 60 48.5 105t115.5 45q59 0 99.5 -38.5t40.5 -91.5q0 -60 -49 -101.5t-117 -41.5q-60 0 -99 35t-39 88zM1075 1622q0 61 48 105.5t116 44.5q58 0 97.5 -38.5 t39.5 -91.5q0 -60 -49 -101.5t-117 -41.5q-59 0 -97 35t-38 88z" />
<glyph unicode="&#xcc;" horiz-adv-x="716" d="M90 0l285 1337h295l-285 -1337h-295zM233 1769h293l205 -282h-246z" />
<glyph unicode="&#xcd;" horiz-adv-x="716" d="M90 0l285 1337h295l-285 -1337h-295zM373 1487l205 282h292l-254 -282h-243z" />
<glyph unicode="&#xce;" horiz-adv-x="716" d="M90 0l285 1337h295l-285 -1337h-295zM199 1487l278 285h271l155 -285h-203l-102 151l-170 -151h-229z" />
<glyph unicode="&#xcf;" horiz-adv-x="716" d="M90 0l285 1337h295l-285 -1337h-295zM203 1622q0 60 48.5 105t115.5 45q59 0 99 -38.5t40 -91.5q0 -60 -49 -101.5t-117 -41.5q-60 0 -98.5 35t-38.5 88zM664 1622q0 61 47.5 105.5t115.5 44.5q58 0 98 -38.5t40 -91.5q0 -60 -49 -101.5t-117 -41.5q-59 0 -97 35t-38 88z " />
<glyph unicode="&#xd0;" horiz-adv-x="1722" d="M74 575l45 213h196l117 549h537q193 0 309.5 -45.5t210.5 -136.5q77 -81 117.5 -185t40.5 -216q0 -140 -60 -279t-168 -246q-120 -112 -265 -170.5t-355 -58.5h-652l123 575h-196zM496 252h315q139 0 220.5 33t160.5 104q71 68 110 158.5t39 189.5q0 148 -94 246 q-57 52 -123 76t-186 24h-262l-66 -295h357l-45 -213h-357z" />
<glyph unicode="&#xd1;" horiz-adv-x="1652" d="M90 0l285 1337h250l501 -854h2l181 854h297l-285 -1337h-252l-502 854h-2l-180 -854h-295zM641 1565q86 108 157 154t146 46q72 0 137 -51q2 -2 18 -14.5t20.5 -15t16.5 -10t21.5 -9.5t20.5 -2q23 0 50.5 17.5t40 30t44.5 46.5l133 -82q-154 -205 -301 -205 q-70 0 -133 48q-4 3 -16.5 13.5t-16.5 14t-14.5 10.5t-16.5 9.5t-15 5t-18 2.5q-12 0 -24.5 -4.5t-21.5 -10t-22.5 -18t-20.5 -19t-22 -23t-20 -21.5z" />
<glyph unicode="&#xd2;" horiz-adv-x="1708" d="M113 614q0 152 66 293.5t175 244.5t258 164.5t308 61.5q203 0 368 -87t257.5 -236t92.5 -328q0 -154 -67 -296.5t-178 -245.5t-261.5 -164.5t-310.5 -61.5q-152 0 -284 51t-225 138.5t-146 208.5t-53 257zM422 614q0 -167 115 -285t284 -118q135 0 252 69.5t186.5 188.5 t69.5 258q0 164 -119 280.5t-290 116.5q-204 0 -351 -150t-147 -360zM700 1769h293l205 -282h-246z" />
<glyph unicode="&#xd3;" horiz-adv-x="1708" d="M113 614q0 152 66 293.5t175 244.5t258 164.5t308 61.5q203 0 368 -87t257.5 -236t92.5 -328q0 -154 -67 -296.5t-178 -245.5t-261.5 -164.5t-310.5 -61.5q-152 0 -284 51t-225 138.5t-146 208.5t-53 257zM422 614q0 -167 115 -285t284 -118q135 0 252 69.5t186.5 188.5 t69.5 258q0 164 -119 280.5t-290 116.5q-204 0 -351 -150t-147 -360zM840 1487l204 282h293l-254 -282h-243z" />
<glyph unicode="&#xd4;" horiz-adv-x="1708" d="M113 614q0 152 66 293.5t175 244.5t258 164.5t308 61.5q203 0 368 -87t257.5 -236t92.5 -328q0 -154 -67 -296.5t-178 -245.5t-261.5 -164.5t-310.5 -61.5q-152 0 -284 51t-225 138.5t-146 208.5t-53 257zM422 614q0 -167 115 -285t284 -118q135 0 252 69.5t186.5 188.5 t69.5 258q0 164 -119 280.5t-290 116.5q-204 0 -351 -150t-147 -360zM666 1487l278 285h270l156 -285h-203l-102 151l-170 -151h-229z" />
<glyph unicode="&#xd5;" horiz-adv-x="1708" d="M113 614q0 152 66 293.5t175 244.5t258 164.5t308 61.5q203 0 368 -87t257.5 -236t92.5 -328q0 -154 -67 -296.5t-178 -245.5t-261.5 -164.5t-310.5 -61.5q-152 0 -284 51t-225 138.5t-146 208.5t-53 257zM422 614q0 -167 115 -285t284 -118q135 0 252 69.5t186.5 188.5 t69.5 258q0 164 -119 280.5t-290 116.5q-204 0 -351 -150t-147 -360zM641 1565q86 108 157 154t146 46q72 0 137 -51q2 -2 18 -14.5t20.5 -15t16.5 -10t21.5 -9.5t20.5 -2q23 0 50.5 17.5t40 30t44.5 46.5l133 -82q-154 -205 -301 -205q-70 0 -133 48q-4 3 -16.5 13.5 t-16.5 14t-14.5 10.5t-16.5 9.5t-15 5t-18 2.5q-12 0 -24.5 -4.5t-21.5 -10t-22.5 -18t-20.5 -19t-22 -23t-20 -21.5z" />
<glyph unicode="&#xd6;" horiz-adv-x="1708" d="M113 614q0 152 66 293.5t175 244.5t258 164.5t308 61.5q203 0 368 -87t257.5 -236t92.5 -328q0 -154 -67 -296.5t-178 -245.5t-261.5 -164.5t-310.5 -61.5q-152 0 -284 51t-225 138.5t-146 208.5t-53 257zM422 614q0 -167 115 -285t284 -118q135 0 252 69.5t186.5 188.5 t69.5 258q0 164 -119 280.5t-290 116.5q-204 0 -351 -150t-147 -360zM670 1622q0 60 48.5 105t115.5 45q59 0 99 -38.5t40 -91.5q0 -60 -49 -101.5t-117 -41.5q-60 0 -98.5 35t-38.5 88zM1130 1622q0 61 48 105.5t116 44.5q58 0 98 -38.5t40 -91.5q0 -60 -49 -101.5 t-117 -41.5q-60 0 -98 35t-38 88z" />
<glyph unicode="&#xd7;" d="M158 883l182 174l412 -352l409 352l178 -172l-399 -342l401 -342l-182 -172l-411 350l-412 -350l-176 170l399 342z" />
<glyph unicode="&#xd8;" horiz-adv-x="1708" d="M96 -20l185 200q-168 182 -168 434q0 152 66 293.5t175 244.5t258 164.5t308 61.5q203 0 370 -90l172 189l150 -119l-166 -182q92 -89 142 -204.5t50 -244.5q0 -154 -67 -296.5t-178 -245.5t-261.5 -164.5t-310.5 -61.5q-215 0 -391 102l-182 -200zM422 614 q0 -121 59 -213l621 680q-88 43 -182 43q-204 0 -351 -150t-147 -360zM616 266q88 -55 205 -55q135 0 252 69.5t186.5 188.5t69.5 258q0 130 -80 234z" />
<glyph unicode="&#xd9;" horiz-adv-x="1593" d="M172 424q0 103 41 297q22 109 68.5 324.5t62.5 291.5h293l-137 -653q-35 -164 -35 -229q0 -117 86 -180.5t211 -63.5t213.5 64.5t116.5 193.5l182 868h297l-191 -903q-26 -117 -84 -208.5t-140.5 -149t-183 -87.5t-214.5 -30q-159 0 -291 54t-213.5 161.5t-81.5 249.5z M670 1769h293l204 -282h-245z" />
<glyph unicode="&#xda;" horiz-adv-x="1593" d="M172 424q0 103 41 297q22 109 68.5 324.5t62.5 291.5h293l-137 -653q-35 -164 -35 -229q0 -117 86 -180.5t211 -63.5t213.5 64.5t116.5 193.5l182 868h297l-191 -903q-26 -117 -84 -208.5t-140.5 -149t-183 -87.5t-214.5 -30q-159 0 -291 54t-213.5 161.5t-81.5 249.5z M809 1487l205 282h293l-254 -282h-244z" />
<glyph unicode="&#xdb;" horiz-adv-x="1593" d="M172 424q0 103 41 297q22 109 68.5 324.5t62.5 291.5h293l-137 -653q-35 -164 -35 -229q0 -117 86 -180.5t211 -63.5t213.5 64.5t116.5 193.5l182 868h297l-191 -903q-26 -117 -84 -208.5t-140.5 -149t-183 -87.5t-214.5 -30q-159 0 -291 54t-213.5 161.5t-81.5 249.5z M635 1487l278 285h271l155 -285h-202l-103 151l-170 -151h-229z" />
<glyph unicode="&#xdc;" horiz-adv-x="1593" d="M172 424q0 103 41 297q22 109 68.5 324.5t62.5 291.5h293l-137 -653q-35 -164 -35 -229q0 -117 86 -180.5t211 -63.5t213.5 64.5t116.5 193.5l182 868h297l-191 -903q-26 -117 -84 -208.5t-140.5 -149t-183 -87.5t-214.5 -30q-159 0 -291 54t-213.5 161.5t-81.5 249.5z M639 1622q0 60 48.5 105t115.5 45q59 0 99 -38.5t40 -91.5q0 -60 -49 -101.5t-117 -41.5q-60 0 -98.5 35t-38.5 88zM1100 1622q0 61 48 105.5t116 44.5q58 0 97.5 -38.5t39.5 -91.5q0 -60 -49 -101.5t-117 -41.5q-59 0 -97 35t-38 88z" />
<glyph unicode="&#xdd;" horiz-adv-x="1357" d="M164 1337h342l225 -465l424 465h369l-690 -731l-129 -606h-295l129 614zM696 1487l205 282h293l-254 -282h-244z" />
<glyph unicode="&#xde;" horiz-adv-x="1562" d="M90 0l285 1337h295l-54 -245h457q231 0 350 -125q109 -112 109 -269q0 -170 -139 -303q-77 -76 -176 -112.5t-242 -36.5h-539l-51 -246h-295zM492 494h497q127 0 195 65q55 49 55 123q0 69 -45 117q-45 45 -143 45h-486z" />
<glyph unicode="&#xdf;" horiz-adv-x="1257" d="M39 0l227 1065q23 105 74.5 184t120 123t142 65t151.5 21q73 0 145 -19.5t133.5 -57t100 -100t38.5 -140.5q0 -117 -81.5 -211.5t-215.5 -132.5q39 -15 80 -46.5t81.5 -78t66.5 -115t26 -143.5q0 -81 -29 -152t-78.5 -122t-115 -87.5t-140 -54.5t-151.5 -18q-32 0 -90 4 l-2 206q64 -2 121.5 9t105.5 35.5t76.5 68.5t28.5 103q1 56 -23 105t-62.5 81.5t-77 53t-73.5 30.5l48 207q91 11 158 76.5t67 148.5q0 59 -41 96t-109 37q-70 0 -128.5 -51t-80.5 -156l-221 -1034h-272z" />
<glyph unicode="&#xe0;" horiz-adv-x="1218" d="M20 303q0 109 63 188.5t160 116.5t214 37q202 0 338 -113l22 97q8 39 8 57q0 46 -35 76.5t-83.5 41.5t-108.5 11q-78 0 -173.5 -17t-154.5 -38l-47 213q72 22 182.5 39.5t212.5 17.5q72 0 137.5 -8t130.5 -28t112 -50.5t76.5 -80.5t29.5 -113q0 -38 -29 -183l-76 -360 q-23 -113 -16 -207h-270q-3 39 2 104q-160 -129 -324 -129q-70 0 -135 21t-118.5 61t-85.5 104t-32 142zM293 315q0 -71 56.5 -106t131.5 -35q78 0 149 32.5t107 63.5l19 92q-91 93 -260 93q-86 0 -144.5 -35.5t-58.5 -104.5zM436 1430h277l184 -300h-240z" />
<glyph unicode="&#xe1;" horiz-adv-x="1218" d="M20 303q0 109 63 188.5t160 116.5t214 37q202 0 338 -113l22 97q8 39 8 57q0 46 -35 76.5t-83.5 41.5t-108.5 11q-78 0 -173.5 -17t-154.5 -38l-47 213q72 22 182.5 39.5t212.5 17.5q72 0 137.5 -8t130.5 -28t112 -50.5t76.5 -80.5t29.5 -113q0 -38 -29 -183l-76 -360 q-23 -113 -16 -207h-270q-3 39 2 104q-160 -129 -324 -129q-70 0 -135 21t-118.5 61t-85.5 104t-32 142zM293 315q0 -71 56.5 -106t131.5 -35q78 0 149 32.5t107 63.5l19 92q-91 93 -260 93q-86 0 -144.5 -35.5t-58.5 -104.5zM569 1130l185 300h274l-221 -300h-238z" />
<glyph unicode="&#xe2;" horiz-adv-x="1218" d="M20 303q0 109 63 188.5t160 116.5t214 37q202 0 338 -113l22 97q8 39 8 57q0 46 -35 76.5t-83.5 41.5t-108.5 11q-78 0 -173.5 -17t-154.5 -38l-47 213q72 22 182.5 39.5t212.5 17.5q72 0 137.5 -8t130.5 -28t112 -50.5t76.5 -80.5t29.5 -113q0 -38 -29 -183l-76 -360 q-23 -113 -16 -207h-270q-3 39 2 104q-160 -129 -324 -129q-70 0 -135 21t-118.5 61t-85.5 104t-32 142zM293 315q0 -71 56.5 -106t131.5 -35q78 0 149 32.5t107 63.5l19 92q-91 93 -260 93q-86 0 -144.5 -35.5t-58.5 -104.5zM381 1133l278 288h271l155 -288h-206l-101 155 l-170 -155h-227z" />
<glyph unicode="&#xe3;" horiz-adv-x="1218" d="M20 303q0 109 63 188.5t160 116.5t214 37q202 0 338 -113l22 97q8 39 8 57q0 46 -35 76.5t-83.5 41.5t-108.5 11q-78 0 -173.5 -17t-154.5 -38l-47 213q72 22 182.5 39.5t212.5 17.5q72 0 137.5 -8t130.5 -28t112 -50.5t76.5 -80.5t29.5 -113q0 -38 -29 -183l-76 -360 q-23 -113 -16 -207h-270q-3 39 2 104q-160 -129 -324 -129q-70 0 -135 21t-118.5 61t-85.5 104t-32 142zM293 315q0 -71 56.5 -106t131.5 -35q78 0 149 32.5t107 63.5l19 92q-91 93 -260 93q-86 0 -144.5 -35.5t-58.5 -104.5zM354 1210q86 108 157.5 154.5t145.5 46.5 q76 0 138 -51q5 -4 23.5 -18t25.5 -18t21 -9.5t26 -5.5q24 0 51.5 17.5t40.5 30t45 46.5l133 -82q-154 -205 -303 -205q-73 0 -131 47q-7 5 -20.5 16.5t-20 16.5t-17 11.5t-20 9t-20.5 2.5q-14 0 -27.5 -5t-28 -17.5t-23.5 -21t-26.5 -27.5t-23.5 -26z" />
<glyph unicode="&#xe4;" horiz-adv-x="1218" d="M20 303q0 109 63 188.5t160 116.5t214 37q202 0 338 -113l22 97q8 39 8 57q0 46 -35 76.5t-83.5 41.5t-108.5 11q-78 0 -173.5 -17t-154.5 -38l-47 213q72 22 182.5 39.5t212.5 17.5q72 0 137.5 -8t130.5 -28t112 -50.5t76.5 -80.5t29.5 -113q0 -38 -29 -183l-76 -360 q-23 -113 -16 -207h-270q-3 39 2 104q-160 -129 -324 -129q-70 0 -135 21t-118.5 61t-85.5 104t-32 142zM293 315q0 -71 56.5 -106t131.5 -35q78 0 149 32.5t107 63.5l19 92q-91 93 -260 93q-86 0 -144.5 -35.5t-58.5 -104.5zM385 1268q0 60 48.5 104.5t115.5 44.5 q59 0 98 -38t39 -91q0 -60 -49 -101.5t-117 -41.5q-59 0 -97 35t-38 88zM846 1268q0 60 47.5 104.5t114.5 44.5q59 0 99 -38t40 -91q0 -60 -49 -101.5t-117 -41.5q-59 0 -97 35t-38 88z" />
<glyph unicode="&#xe5;" horiz-adv-x="1218" d="M20 303q0 109 63 188.5t160 116.5t214 37q202 0 338 -113l22 97q8 39 8 57q0 46 -35 76.5t-83.5 41.5t-108.5 11q-78 0 -173.5 -17t-154.5 -38l-47 213q72 22 182.5 39.5t212.5 17.5q72 0 137.5 -8t130.5 -28t112 -50.5t76.5 -80.5t29.5 -113q0 -38 -29 -183l-76 -360 q-23 -113 -16 -207h-270q-3 39 2 104q-160 -129 -324 -129q-70 0 -135 21t-118.5 61t-85.5 104t-32 142zM293 315q0 -71 56.5 -106t131.5 -35q78 0 149 32.5t107 63.5l19 92q-91 93 -260 93q-86 0 -144.5 -35.5t-58.5 -104.5zM487 1313q0 101 82 174.5t222 73.5 q122 0 189 -60.5t67 -148.5q0 -100 -82.5 -170t-221.5 -70q-123 0 -189.5 57t-66.5 144zM647 1323q0 -41 30.5 -66.5t78.5 -25.5q56 0 93.5 30.5t37.5 79.5q0 45 -30 75t-79 30q-54 0 -92.5 -36t-38.5 -87z" />
<glyph unicode="&#xe6;" horiz-adv-x="1927" d="M20 303q0 82 36 148.5t97.5 108t138.5 63.5t163 22q208 0 344 -113q2 17 14 73.5t12 78.5q0 37 -19.5 63.5t-53 40.5t-71.5 20.5t-83 6.5q-78 0 -173.5 -17t-154.5 -38l-47 213q72 23 182.5 40t215.5 17q281 0 380 -127q10 -15 13 -18q138 147 358 147q88 0 168.5 -25.5 t147 -76t106.5 -136t41 -194.5q0 -54 -16 -168h-766q8 -107 76.5 -175.5t185.5 -68.5q69 0 158 24t159 56l109 -178q-249 -121 -457 -121q-265 0 -395 172q-102 -74 -233.5 -122t-252.5 -48q-100 0 -185.5 36.5t-141.5 114t-56 181.5zM293 315q0 -70 56 -105.5t128 -35.5 q70 0 166.5 37t167.5 84q-1 8 -5 25t-5 22q-143 113 -305 113q-51 0 -94 -12t-76 -45t-33 -83zM1077 614h492q4 96 -55.5 152.5t-151.5 56.5q-102 0 -175.5 -58t-109.5 -151z" />
<glyph unicode="&#xe7;" horiz-adv-x="1128" d="M35 -403l71 141q9 -2 46.5 -11.5t52 -12.5t43 -9t50 -8t42.5 -2q61 0 96 18t35 49q0 33 -38.5 49.5t-82.5 16.5q-25 0 -35 -2l-14 61l84 113q-147 47 -229 167t-82 288q0 111 46.5 216t125 184.5t189 128t231.5 48.5q130 0 248.5 -46t205.5 -132l-190 -168 q-54 50 -123.5 82.5t-140.5 32.5q-125 0 -211 -103.5t-86 -240.5q0 -103 66 -180.5t177 -77.5q115 0 269 86l116 -197q-52 -39 -167 -79t-252 -40h-23l-31 -41q35 -10 54.5 -16.5t49 -20.5t45.5 -29.5t28 -41t12 -56.5q0 -101 -106 -165t-265 -64q-55 0 -112 10t-94 20.5 t-101 31.5z" />
<glyph unicode="&#xe8;" horiz-adv-x="1212" d="M76 444q0 160 76 295t208.5 214t290.5 79q92 0 174 -26t148.5 -77.5t105.5 -136.5t39 -194q0 -52 -16 -166h-762q8 -105 72.5 -174.5t177.5 -69.5q149 0 325 80l109 -178q-248 -121 -473 -121q-113 0 -204 38t-149.5 103.5t-90 151t-31.5 182.5zM367 614h485 q4 98 -56 153.5t-149 55.5q-99 0 -172 -57.5t-108 -151.5zM432 1430h277l184 -300h-240z" />
<glyph unicode="&#xe9;" horiz-adv-x="1212" d="M76 444q0 160 76 295t208.5 214t290.5 79q92 0 174 -26t148.5 -77.5t105.5 -136.5t39 -194q0 -52 -16 -166h-762q8 -105 72.5 -174.5t177.5 -69.5q149 0 325 80l109 -178q-248 -121 -473 -121q-113 0 -204 38t-149.5 103.5t-90 151t-31.5 182.5zM367 614h485 q4 98 -56 153.5t-149 55.5q-99 0 -172 -57.5t-108 -151.5zM565 1130l185 300h274l-221 -300h-238z" />
<glyph unicode="&#xea;" horiz-adv-x="1212" d="M76 444q0 160 76 295t208.5 214t290.5 79q92 0 174 -26t148.5 -77.5t105.5 -136.5t39 -194q0 -52 -16 -166h-762q8 -105 72.5 -174.5t177.5 -69.5q149 0 325 80l109 -178q-248 -121 -473 -121q-113 0 -204 38t-149.5 103.5t-90 151t-31.5 182.5zM367 614h485 q4 98 -56 153.5t-149 55.5q-99 0 -172 -57.5t-108 -151.5zM377 1133l278 288h271l155 -288h-207l-100 155l-170 -155h-227z" />
<glyph unicode="&#xeb;" horiz-adv-x="1212" d="M76 444q0 160 76 295t208.5 214t290.5 79q92 0 174 -26t148.5 -77.5t105.5 -136.5t39 -194q0 -52 -16 -166h-762q8 -105 72.5 -174.5t177.5 -69.5q149 0 325 80l109 -178q-248 -121 -473 -121q-113 0 -204 38t-149.5 103.5t-90 151t-31.5 182.5zM367 614h485 q4 98 -56 153.5t-149 55.5q-99 0 -172 -57.5t-108 -151.5zM381 1268q0 60 48.5 104.5t115.5 44.5q59 0 98 -38t39 -91q0 -60 -49 -101.5t-117 -41.5q-59 0 -97 35t-38 88zM842 1268q0 60 47.5 104.5t114.5 44.5q59 0 99 -38t40 -91q0 -60 -49 -101.5t-117 -41.5 q-59 0 -97 35t-38 88z" />
<glyph unicode="&#xec;" horiz-adv-x="591" d="M41 0l207 999h274l-209 -999h-272zM117 1430h276l185 -300h-240z" />
<glyph unicode="&#xed;" horiz-adv-x="591" d="M41 0l207 999h274l-209 -999h-272zM250 1130l184 300h275l-222 -300h-237z" />
<glyph unicode="&#xee;" horiz-adv-x="591" d="M41 0l207 999h274l-209 -999h-272zM61 1133l279 288h270l156 -288h-207l-100 155l-170 -155h-228z" />
<glyph unicode="&#xef;" horiz-adv-x="591" d="M41 0l207 999h274l-209 -999h-272zM66 1268q0 60 48 104.5t115 44.5q59 0 98.5 -38t39.5 -91q0 -60 -49 -101.5t-117 -41.5q-59 0 -97 35t-38 88zM526 1268q0 60 47.5 104.5t114.5 44.5q59 0 99 -38t40 -91q0 -60 -48.5 -101.5t-116.5 -41.5q-60 0 -98 35t-38 88z" />
<glyph unicode="&#xf0;" horiz-adv-x="1292" d="M78 449q0 151 68 275t189 195.5t269 71.5q164 0 281 -102q-48 131 -183 266l-335 -96l-35 141l239 70q-62 49 -176 123l287 71q135 -96 158 -116l276 79l33 -141l-186 -55q215 -240 215 -574q0 -314 -166.5 -501t-442.5 -187q-226 0 -358.5 137.5t-132.5 342.5zM360 459 q0 -111 60.5 -185.5t165.5 -74.5q127 0 213 96.5t86 230.5q0 111 -63.5 182.5t-174.5 71.5q-124 0 -205.5 -93.5t-81.5 -227.5z" />
<glyph unicode="&#xf1;" horiz-adv-x="1251" d="M43 0l156 743q25 116 28 256h248q5 -54 -2 -127q83 74 161.5 117t168.5 43q134 0 227.5 -88.5t93.5 -226.5q0 -49 -22 -166l-117 -551h-274l118 555q1 7 7 33t10 51t4 43q0 58 -41 88.5t-100 30.5q-108 0 -252 -133l-142 -668h-272zM362 1210q86 108 158 154.5t146 46.5 q75 0 137 -51q5 -4 23.5 -18t25.5 -18t21 -9.5t26 -5.5q24 0 51.5 17.5t40.5 30t45 46.5l133 -82q-154 -205 -303 -205q-73 0 -131 47q-7 5 -20.5 16.5t-20 16.5t-17 11.5t-20 9t-20.5 2.5q-14 0 -27.5 -5t-28 -17.5t-23.5 -21t-26.5 -27.5t-23.5 -26z" />
<glyph unicode="&#xf2;" horiz-adv-x="1273" d="M76 459q0 158 77.5 289t215.5 207.5t307 76.5q226 0 359.5 -136.5t133.5 -346.5q0 -118 -45 -225t-123.5 -185t-190.5 -124t-239 -46q-227 0 -361 139t-134 351zM356 467q0 -116 61.5 -194t172.5 -78q133 0 217 101.5t84 244.5q0 114 -62 189t-174 75 q-130 0 -214.5 -99.5t-84.5 -238.5zM442 1430h277l184 -300h-239z" />
<glyph unicode="&#xf3;" horiz-adv-x="1273" d="M76 459q0 158 77.5 289t215.5 207.5t307 76.5q226 0 359.5 -136.5t133.5 -346.5q0 -118 -45 -225t-123.5 -185t-190.5 -124t-239 -46q-227 0 -361 139t-134 351zM356 467q0 -116 61.5 -194t172.5 -78q133 0 217 101.5t84 244.5q0 114 -62 189t-174 75 q-130 0 -214.5 -99.5t-84.5 -238.5zM575 1130l185 300h274l-221 -300h-238z" />
<glyph unicode="&#xf4;" horiz-adv-x="1273" d="M76 459q0 158 77.5 289t215.5 207.5t307 76.5q226 0 359.5 -136.5t133.5 -346.5q0 -118 -45 -225t-123.5 -185t-190.5 -124t-239 -46q-227 0 -361 139t-134 351zM356 467q0 -116 61.5 -194t172.5 -78q133 0 217 101.5t84 244.5q0 114 -62 189t-174 75 q-130 0 -214.5 -99.5t-84.5 -238.5zM387 1133l279 288h270l156 -288h-207l-101 155l-170 -155h-227z" />
<glyph unicode="&#xf5;" horiz-adv-x="1273" d="M76 459q0 158 77.5 289t215.5 207.5t307 76.5q226 0 359.5 -136.5t133.5 -346.5q0 -118 -45 -225t-123.5 -185t-190.5 -124t-239 -46q-227 0 -361 139t-134 351zM356 467q0 -116 61.5 -194t172.5 -78q133 0 217 101.5t84 244.5q0 114 -62 189t-174 75 q-130 0 -214.5 -99.5t-84.5 -238.5zM360 1210q86 108 158 154.5t146 46.5q75 0 137 -51q5 -4 23.5 -18t25.5 -18t21 -9.5t26 -5.5q24 0 51.5 17.5t40.5 30t45 46.5l133 -82q-154 -205 -303 -205q-73 0 -131 47q-7 5 -20.5 16.5t-20 16.5t-17 11.5t-20 9t-20.5 2.5 q-14 0 -27.5 -5t-28 -17.5t-23.5 -21t-26.5 -27.5t-23.5 -26z" />
<glyph unicode="&#xf6;" horiz-adv-x="1273" d="M76 459q0 158 77.5 289t215.5 207.5t307 76.5q226 0 359.5 -136.5t133.5 -346.5q0 -118 -45 -225t-123.5 -185t-190.5 -124t-239 -46q-227 0 -361 139t-134 351zM356 467q0 -116 61.5 -194t172.5 -78q133 0 217 101.5t84 244.5q0 114 -62 189t-174 75 q-130 0 -214.5 -99.5t-84.5 -238.5zM391 1268q0 60 48.5 104.5t115.5 44.5q59 0 98 -38t39 -91q0 -60 -49 -101.5t-117 -41.5q-59 0 -97 35t-38 88zM852 1268q0 60 47.5 104.5t114.5 44.5q59 0 99 -38t40 -91q0 -60 -49 -101.5t-117 -41.5q-59 0 -97 35t-38 88z" />
<glyph unicode="&#xf7;" d="M154 426v233h1189v-233h-1189zM571 141q0 65 52.5 111.5t128.5 46.5t128 -46.5t52 -111.5q0 -67 -51.5 -112t-128.5 -45t-129 45t-52 112zM571 942q0 66 52.5 112t128.5 46t128 -46t52 -112t-52 -112t-128 -46t-128.5 46t-52.5 112z" />
<glyph unicode="&#xf8;" horiz-adv-x="1273" d="M37 -20l145 159q-104 132 -104 320q0 158 77.5 289t215.5 207.5t307 76.5q148 0 262 -63l143 157l125 -104l-143 -158q106 -127 106 -315q0 -118 -45 -225t-123.5 -185t-190.5 -124t-239 -46q-147 0 -266 66l-145 -160zM348 465q0 -64 19 -123l411 449q-51 28 -119 28 q-136 0 -223.5 -104.5t-87.5 -249.5zM469 211q51 -31 121 -31q91 0 164 50.5t112 133t39 179.5q0 65 -22 123z" />
<glyph unicode="&#xf9;" horiz-adv-x="1251" d="M98 283q0 44 23 166l117 550h274l-119 -555q-20 -90 -20 -122q0 -63 41 -93t100 -30q110 0 252 131l141 669h273l-154 -733q-30 -144 -35 -266h-250q-3 34 7 125q-82 -73 -160.5 -115.5t-167.5 -42.5q-135 0 -228.5 89t-93.5 227zM446 1430h277l184 -300h-239z" />
<glyph unicode="&#xfa;" horiz-adv-x="1251" d="M98 283q0 44 23 166l117 550h274l-119 -555q-20 -90 -20 -122q0 -63 41 -93t100 -30q110 0 252 131l141 669h273l-154 -733q-30 -144 -35 -266h-250q-3 34 7 125q-82 -73 -160.5 -115.5t-167.5 -42.5q-135 0 -228.5 89t-93.5 227zM580 1130l184 300h274l-221 -300h-237z " />
<glyph unicode="&#xfb;" horiz-adv-x="1251" d="M98 283q0 44 23 166l117 550h274l-119 -555q-20 -90 -20 -122q0 -63 41 -93t100 -30q110 0 252 131l141 669h273l-154 -733q-30 -144 -35 -266h-250q-3 34 7 125q-82 -73 -160.5 -115.5t-167.5 -42.5q-135 0 -228.5 89t-93.5 227zM391 1133l279 288h270l156 -288h-207 l-101 155l-170 -155h-227z" />
<glyph unicode="&#xfc;" horiz-adv-x="1251" d="M98 283q0 44 23 166l117 550h274l-119 -555q-20 -90 -20 -122q0 -63 41 -93t100 -30q110 0 252 131l141 669h273l-154 -733q-30 -144 -35 -266h-250q-3 34 7 125q-82 -73 -160.5 -115.5t-167.5 -42.5q-135 0 -228.5 89t-93.5 227zM395 1268q0 60 48.5 104.5t115.5 44.5 q59 0 98 -38t39 -91q0 -60 -49 -101.5t-117 -41.5q-59 0 -97 35t-38 88zM856 1268q0 60 47.5 104.5t114.5 44.5q59 0 99 -38t40 -91q0 -60 -49 -101.5t-117 -41.5q-59 0 -97 35t-38 88z" />
<glyph unicode="&#xfd;" horiz-adv-x="1124" d="M-55 -424l379 533l-213 890h288l119 -596h12l390 596h299l-975 -1423h-299zM526 1130l185 300h274l-221 -300h-238z" />
<glyph unicode="&#xfe;" horiz-adv-x="1294" d="M-53 -424l397 1858h274l-114 -529q32 26 52.5 41t60.5 38.5t86 35.5t96 12q119 0 210.5 -62.5t138 -164t46.5 -223.5q0 -111 -41 -220t-111.5 -196t-175.5 -141t-223 -54q-90 0 -164 35.5t-143 110.5l-115 -541h-274zM381 309q43 -45 106 -76.5t129 -31.5 q122 -1 201.5 108t79.5 250q0 99 -46 170.5t-136 71.5q-130 0 -260 -133z" />
<glyph unicode="&#xff;" horiz-adv-x="1124" d="M-55 -424l379 533l-213 890h288l119 -596h12l390 596h299l-975 -1423h-299zM342 1268q0 60 48.5 104.5t115.5 44.5q59 0 98 -38t39 -91q0 -60 -49 -101.5t-117 -41.5q-59 0 -97 35t-38 88zM803 1268q0 60 47.5 104.5t114.5 44.5q59 0 99 -38t40 -91q0 -60 -49 -101.5 t-117 -41.5q-59 0 -97 35t-38 88z" />
<glyph unicode="&#x152;" horiz-adv-x="2557" d="M113 614q0 203 109 379.5t293 280.5t394 104q344 0 529 -250l49 209h1112l-51 -254h-822l-57 -260h494l-54 -252h-491l-70 -319h869l-56 -252h-1140l28 139q-198 -180 -458 -180q-145 0 -271.5 51t-215.5 138.5t-140 208.5t-51 257zM422 614q0 -167 115 -285t284 -118 q140 0 262 69.5t194.5 188.5t72.5 258q0 164 -125 280.5t-305 116.5q-204 0 -351 -150t-147 -360z" />
<glyph unicode="&#x153;" horiz-adv-x="2023" d="M76 459q0 117 47.5 223.5t128 183t191.5 121.5t233 45q120 0 222 -51.5t161 -140.5q69 89 177 140.5t228 51.5q91 0 172.5 -26t148 -77.5t105.5 -136.5t39 -194q0 -75 -16 -166h-760q8 -105 73 -174.5t177 -69.5q150 0 326 80l108 -178q-244 -121 -465 -121 q-126 0 -225 50.5t-156 138.5q-74 -88 -186.5 -138.5t-233.5 -50.5q-220 0 -357.5 140.5t-137.5 349.5zM356 467q0 -116 61.5 -194t172.5 -78q132 0 216.5 102t84.5 244q0 114 -62 189t-174 75q-130 0 -214.5 -99.5t-84.5 -238.5zM1178 614h485q6 98 -57.5 153.5 t-157.5 55.5q-96 0 -166 -57.5t-104 -151.5z" />
<glyph unicode="&#x178;" horiz-adv-x="1357" d="M164 1337h342l225 -465l424 465h369l-690 -731l-129 -606h-295l129 614zM526 1622q0 60 48.5 105t115.5 45q59 0 99 -38.5t40 -91.5q0 -60 -48.5 -101.5t-116.5 -41.5q-60 0 -99 35t-39 88zM987 1622q0 61 48 105.5t116 44.5q58 0 97.5 -38.5t39.5 -91.5 q0 -60 -49 -101.5t-117 -41.5q-59 0 -97 35t-38 88z" />
<glyph unicode="&#x2c6;" horiz-adv-x="1015" d="M276 1133l279 288h270l156 -288h-207l-100 155l-170 -155h-228z" />
<glyph unicode="&#x2dc;" horiz-adv-x="1015" d="M250 1210q86 108 157.5 154.5t145.5 46.5q75 0 137 -51q5 -4 23.5 -18t25.5 -18t21 -9.5t26 -5.5q24 0 51.5 17t41.5 31t45 46l133 -82q-154 -205 -303 -205q-73 0 -131 47q-6 5 -20 16.5t-20.5 16t-17.5 11.5t-20.5 9.5t-20.5 2.5q-14 0 -27.5 -5t-28 -17.5t-23.5 -21 t-26.5 -27.5t-23.5 -26z" />
<glyph unicode="&#x2000;" horiz-adv-x="935" />
<glyph unicode="&#x2001;" horiz-adv-x="1870" />
<glyph unicode="&#x2002;" horiz-adv-x="935" />
<glyph unicode="&#x2003;" horiz-adv-x="1870" />
<glyph unicode="&#x2004;" horiz-adv-x="623" />
<glyph unicode="&#x2005;" horiz-adv-x="467" />
<glyph unicode="&#x2006;" horiz-adv-x="311" />
<glyph unicode="&#x2007;" horiz-adv-x="311" />
<glyph unicode="&#x2008;" horiz-adv-x="233" />
<glyph unicode="&#x2009;" horiz-adv-x="374" />
<glyph unicode="&#x200a;" horiz-adv-x="103" />
<glyph unicode="&#x2010;" horiz-adv-x="827" d="M96 406l47 253h574l-49 -253h-572z" />
<glyph unicode="&#x2011;" horiz-adv-x="827" d="M96 406l47 253h574l-49 -253h-572z" />
<glyph unicode="&#x2012;" horiz-adv-x="827" d="M96 406l47 253h574l-49 -253h-572z" />
<glyph unicode="&#x2013;" horiz-adv-x="1286" d="M98 426l47 233h1031l-48 -233h-1030z" />
<glyph unicode="&#x2014;" horiz-adv-x="2217" d="M98 426l47 233h1962l-47 -233h-1962z" />
<glyph unicode="&#x2018;" horiz-adv-x="620" d="M180 954q0 75 27.5 140.5t69.5 112t100.5 86t111.5 63.5t111 43l49 -144q-86 -21 -173.5 -78t-94.5 -122v-17q44 11 59 11q60 0 101 -38.5t41 -95.5q0 -71 -60.5 -121.5t-142.5 -50.5q-84 0 -141.5 59.5t-57.5 151.5z" />
<glyph unicode="&#x2019;" horiz-adv-x="614" d="M174 864q85 21 172 79t94 122q2 8 2 16q-40 -10 -59 -10q-61 0 -101 39t-40 96q0 71 60 121.5t142 50.5q84 0 141.5 -60t57.5 -153q0 -75 -28 -140.5t-70 -111.5t-101 -85t-112 -63t-111 -42z" />
<glyph unicode="&#x201a;" horiz-adv-x="634" d="M-37 -209q85 21 172 79t94 122q2 8 2 16q-40 -10 -59 -10q-61 0 -101 39t-40 96q0 71 60 121.5t142 50.5q84 0 141.5 -60t57.5 -153q0 -75 -28 -140.5t-70 -111.5t-101 -85t-112 -63t-111 -42z" />
<glyph unicode="&#x201c;" horiz-adv-x="1185" d="M180 954q0 75 27.5 140.5t69.5 112t100.5 86t111.5 63.5t111 43l49 -144q-86 -21 -173.5 -78t-94.5 -122v-17q44 11 59 11q60 0 101 -38.5t41 -95.5q0 -71 -60.5 -121.5t-142.5 -50.5q-84 0 -141.5 59.5t-57.5 151.5zM745 954q0 75 27.5 140.5t69.5 112t100.5 86 t111.5 63.5t111 43l49 -144q-86 -21 -173.5 -78t-94.5 -122v-17q44 11 60 11q60 0 100.5 -38.5t40.5 -95.5q0 -71 -60.5 -121.5t-142.5 -50.5q-84 0 -141.5 59.5t-57.5 151.5z" />
<glyph unicode="&#x201d;" horiz-adv-x="1179" d="M174 864q85 21 172 79t94 122q2 8 2 16q-40 -10 -59 -10q-61 0 -101 39t-40 96q0 71 60 121.5t142 50.5q84 0 141.5 -60t57.5 -153q0 -75 -28 -140.5t-70 -111.5t-101 -85t-112 -63t-111 -42zM739 864q85 21 173.5 79t95.5 122v16q-40 -10 -58 -10q-61 0 -102 39t-41 96 q0 71 60.5 121.5t142.5 50.5q84 0 141 -60t57 -153q0 -75 -27.5 -140.5t-69.5 -111.5t-100.5 -85t-111.5 -63t-111 -42z" />
<glyph unicode="&#x201e;" horiz-adv-x="1200" d="M-37 -209q85 21 172 79t94 122q2 8 2 16q-40 -10 -59 -10q-61 0 -101 39t-40 96q0 71 60 121.5t142 50.5q84 0 141.5 -60t57.5 -153q0 -75 -28 -140.5t-70 -111.5t-101 -85t-112 -63t-111 -42zM528 -209q85 21 173.5 79t95.5 122v16q-40 -10 -58 -10q-61 0 -102 39 t-41 96q0 71 60.5 121.5t142.5 50.5q84 0 141 -60t57 -153q0 -75 -27.5 -140.5t-69.5 -111.5t-100 -85t-111 -63t-111 -42z" />
<glyph unicode="&#x2022;" horiz-adv-x="929" d="M113 598q0 139 103 236.5t249 97.5q145 0 248.5 -97.5t103.5 -236.5q0 -138 -103.5 -235t-248.5 -97q-146 0 -249 97t-103 235z" />
<glyph unicode="&#x2026;" horiz-adv-x="2048" d="M86 129q0 75 60.5 130.5t144.5 55.5q76 0 127 -47.5t51 -115.5q0 -75 -61 -129t-146 -54q-76 0 -126 46t-50 114zM752 129q0 76 60 131t144 55q76 0 127.5 -47.5t51.5 -115.5q0 -75 -61 -129t-146 -54q-76 0 -126 46t-50 114zM1417 129q0 75 60.5 130.5t144.5 55.5 q76 0 127 -47.5t51 -115.5q0 -75 -61 -129t-146 -54q-76 0 -126 46t-50 114z" />
<glyph unicode="&#x202f;" horiz-adv-x="374" />
<glyph unicode="&#x2039;" horiz-adv-x="708" d="M70 457l22 116l250 258h295l-313 -315l-5 -16l197 -299h-280z" />
<glyph unicode="&#x203a;" horiz-adv-x="710" d="M51 201l314 315l2 16l-197 299h283l163 -256l-20 -116l-252 -258h-293z" />
<glyph unicode="&#x205f;" horiz-adv-x="467" />
<glyph unicode="&#x20ac;" horiz-adv-x="1638" d="M78 375l31 147h137v8q0 58 12 117h-125l29 150h147q88 176 266.5 289.5t393.5 113.5q168 0 323.5 -64.5t259.5 -181.5l-209 -135q-71 63 -171 103.5t-205 40.5q-98 0 -186 -45t-148 -121h522l-29 -150h-569q-14 -49 -14 -106v-19h559l-31 -147h-487q46 -81 129 -128.5 t192 -47.5q201 0 402 123l147 -181q-113 -79 -257.5 -128.5t-301.5 -49.5q-229 0 -401.5 112t-227.5 300h-188z" />
<glyph unicode="&#x2122;" horiz-adv-x="1751" d="M233 1194l29 143h617l-29 -143h-221l-113 -526h-176l113 526h-220zM885 668l143 669h160l121 -333h2l264 333h178l-141 -669h-178l73 354h-4l-237 -299h-19l-114 299h-5l-75 -354h-168z" />
<glyph unicode="&#x25fc;" horiz-adv-x="1003" d="M0 0v1004h1004v-1004h-1004z" />
</font>
</defs>
</svg>
