<?xml version="1.0" encoding="utf-8"?>
<!-- Generator: Adobe Illustrator 20.1.0, SVG Export Plug-In . SVG Version: 6.00 Build 0)  -->
<svg version="1.1" id="Layer_1" xmlns="http://www.w3.org/2000/svg" xmlns:xlink="http://www.w3.org/1999/xlink" x="0px" y="0px"
	 viewBox="0 0 400 400" enable-background="new 0 0 400 400" xml:space="preserve">
<g>
	<path fill="#3ED307" d="M149.6,478.8c0.2,0.1,0.4,0.3,0.6,0.4c0.2,0.1,0.4,0.2,0.6,0.3s0.4,0.1,0.7,0.2c0.2,0,0.4,0.1,0.6,0.1
		c1.4,0,2.1-0.5,2.1-1.6c0-0.2,0-0.4-0.1-0.6c-0.1-0.2-0.2-0.3-0.4-0.5c-0.2-0.1-0.4-0.3-0.7-0.4c-0.3-0.1-0.5-0.2-0.9-0.4
		c-0.4-0.2-0.8-0.4-1.1-0.5c-0.3-0.2-0.6-0.4-0.8-0.6c-0.2-0.2-0.4-0.5-0.4-0.7c-0.1-0.3-0.1-0.6-0.1-0.9c0-0.4,0.1-0.8,0.3-1.1
		c0.2-0.3,0.4-0.6,0.7-0.8c0.3-0.2,0.7-0.4,1.1-0.5c0.4-0.1,0.8-0.2,1.3-0.2c0.8,0,1.5,0.2,2.1,0.5v1.2c-0.7-0.5-1.5-0.7-2.3-0.7
		c-0.3,0-0.6,0-0.8,0.1s-0.4,0.2-0.6,0.3c-0.2,0.1-0.3,0.3-0.4,0.5s-0.1,0.4-0.1,0.6c0,0.2,0,0.4,0.1,0.6s0.2,0.3,0.3,0.5
		c0.2,0.1,0.4,0.3,0.6,0.4c0.2,0.1,0.5,0.3,0.9,0.4c0.5,0.2,0.8,0.4,1.2,0.5c0.3,0.2,0.6,0.4,0.8,0.6c0.2,0.2,0.4,0.4,0.5,0.7
		c0.1,0.3,0.2,0.6,0.2,0.9c0,0.4-0.1,0.8-0.3,1.1c-0.2,0.3-0.4,0.6-0.7,0.8s-0.7,0.4-1.1,0.5s-0.9,0.2-1.4,0.2
		c-0.9,0-1.7-0.2-2.4-0.6V478.8z"/>
	<path fill="#3ED307" d="M158.3,476c0,0.6,0.1,1.1,0.2,1.5s0.4,0.8,0.6,1.2s0.6,0.6,1,0.7s0.8,0.3,1.3,0.3c1.1,0,2.1-0.4,3-1.1v1.2
		c-0.9,0.6-2,1-3.3,1c-0.6,0-1.2-0.1-1.7-0.3c-0.5-0.2-0.9-0.5-1.3-1c-0.4-0.4-0.6-0.9-0.8-1.5s-0.3-1.3-0.3-2.1
		c0-0.7,0.1-1.4,0.3-2c0.2-0.6,0.5-1.1,0.9-1.6s0.8-0.8,1.3-1c0.5-0.2,1.1-0.4,1.7-0.4c0.6,0,1.1,0.1,1.6,0.3
		c0.5,0.2,0.9,0.5,1.2,0.9s0.6,0.9,0.7,1.4c0.2,0.6,0.2,1.2,0.2,1.9v0.6H158.3z M163.9,475c0-1-0.3-1.7-0.7-2.3
		c-0.4-0.5-1.1-0.8-1.9-0.8c-0.4,0-0.8,0.1-1.1,0.2c-0.3,0.1-0.6,0.3-0.9,0.6s-0.5,0.6-0.6,1c-0.2,0.4-0.3,0.8-0.4,1.3H163.9z"/>
	<path fill="#3ED307" d="M168,476c0,0.6,0.1,1.1,0.2,1.5s0.4,0.8,0.6,1.2s0.6,0.6,1,0.7s0.8,0.3,1.3,0.3c1.1,0,2.1-0.4,3-1.1v1.2
		c-0.9,0.6-2,1-3.3,1c-0.6,0-1.2-0.1-1.7-0.3c-0.5-0.2-0.9-0.5-1.3-1c-0.4-0.4-0.6-0.9-0.8-1.5s-0.3-1.3-0.3-2.1
		c0-0.7,0.1-1.4,0.3-2c0.2-0.6,0.5-1.1,0.9-1.6s0.8-0.8,1.3-1c0.5-0.2,1.1-0.4,1.7-0.4c0.6,0,1.1,0.1,1.6,0.3
		c0.5,0.2,0.9,0.5,1.2,0.9s0.6,0.9,0.7,1.4c0.2,0.6,0.2,1.2,0.2,1.9v0.6H168z M173.5,475c0-1-0.3-1.7-0.7-2.3
		c-0.4-0.5-1.1-0.8-1.9-0.8c-0.4,0-0.8,0.1-1.1,0.2c-0.3,0.1-0.6,0.3-0.9,0.6s-0.5,0.6-0.6,1c-0.2,0.4-0.3,0.8-0.4,1.3H173.5z"/>
	<path fill="#3ED307" d="M182.5,480.5l-4.3-4.6h0v4.6H177v-13.9h1.2v8.9h0l4.1-4.4h1.5l-4.4,4.5l4.7,4.8H182.5z"/>
	<path fill="#3ED307" d="M185.8,480.5v-13.9h1.2v13.9H185.8z"/>
	<path fill="#3ED307" d="M193.9,480.7c-0.7,0-1.3-0.1-1.9-0.3c-0.6-0.2-1-0.6-1.4-1s-0.7-0.9-0.9-1.5c-0.2-0.6-0.3-1.2-0.3-2
		c0-0.8,0.1-1.5,0.3-2.1c0.2-0.6,0.5-1.1,0.9-1.6c0.4-0.4,0.9-0.8,1.5-1c0.6-0.2,1.2-0.3,1.9-0.3c0.7,0,1.3,0.1,1.8,0.3
		c0.5,0.2,1,0.5,1.4,1c0.4,0.4,0.7,0.9,0.9,1.5s0.3,1.3,0.3,2.1c0,0.7-0.1,1.4-0.3,2c-0.2,0.6-0.5,1.1-0.9,1.6
		c-0.4,0.4-0.9,0.8-1.4,1C195.2,480.6,194.6,480.7,193.9,480.7z M194,471.9c-0.5,0-1,0.1-1.4,0.3c-0.4,0.2-0.8,0.4-1.1,0.8
		c-0.3,0.3-0.5,0.8-0.7,1.2c-0.2,0.5-0.2,1-0.2,1.7c0,0.6,0.1,1.1,0.2,1.6c0.2,0.5,0.4,0.9,0.7,1.2s0.6,0.6,1.1,0.8
		c0.4,0.2,0.9,0.3,1.4,0.3c0.5,0,1-0.1,1.4-0.3c0.4-0.2,0.7-0.4,1-0.8c0.3-0.3,0.5-0.7,0.6-1.2c0.1-0.5,0.2-1,0.2-1.6
		c0-1.3-0.3-2.2-0.8-2.9C195.8,472.2,195,471.9,194,471.9z"/>
	<path fill="#3ED307" d="M208.5,479.8c0,1.7-0.4,3-1.2,3.9c-0.8,0.8-2,1.3-3.7,1.3c-1,0-2-0.2-2.9-0.7V483c1,0.6,2,0.9,2.9,0.9
		c2.4,0,3.7-1.3,3.7-3.9v-1.1h0c-0.7,1.2-1.8,1.8-3.3,1.8c-0.6,0-1.1-0.1-1.6-0.3s-0.9-0.5-1.2-0.9s-0.6-0.9-0.8-1.5
		c-0.2-0.6-0.3-1.2-0.3-2c0-0.8,0.1-1.5,0.3-2.1c0.2-0.6,0.5-1.2,0.9-1.6c0.4-0.5,0.8-0.8,1.4-1c0.5-0.2,1.1-0.4,1.8-0.4
		c1.3,0,2.3,0.5,2.9,1.6h0v-1.4h1.2V479.8z M207.4,474.8c0-0.4-0.1-0.8-0.2-1.1c-0.1-0.3-0.3-0.7-0.6-0.9c-0.2-0.3-0.5-0.5-0.9-0.6
		c-0.3-0.2-0.7-0.2-1.1-0.2c-0.5,0-0.9,0.1-1.3,0.3c-0.4,0.2-0.7,0.5-1,0.8c-0.3,0.3-0.5,0.8-0.6,1.3c-0.1,0.5-0.2,1.1-0.2,1.7
		c0,0.6,0.1,1.1,0.2,1.6s0.3,0.9,0.6,1.2c0.3,0.3,0.6,0.6,0.9,0.8s0.8,0.3,1.2,0.3c0.5,0,0.9-0.1,1.3-0.3c0.4-0.2,0.7-0.4,1-0.7
		c0.3-0.3,0.5-0.6,0.6-1c0.1-0.4,0.2-0.8,0.2-1.3V474.8z"/>
	<path fill="#3ED307" d="M215.4,480.7c-0.7,0-1.3-0.1-1.9-0.3c-0.6-0.2-1-0.6-1.4-1s-0.7-0.9-0.9-1.5c-0.2-0.6-0.3-1.2-0.3-2
		c0-0.8,0.1-1.5,0.3-2.1c0.2-0.6,0.5-1.1,0.9-1.6c0.4-0.4,0.9-0.8,1.5-1c0.6-0.2,1.2-0.3,1.9-0.3c0.7,0,1.3,0.1,1.8,0.3
		c0.5,0.2,1,0.5,1.4,1c0.4,0.4,0.7,0.9,0.9,1.5s0.3,1.3,0.3,2.1c0,0.7-0.1,1.4-0.3,2c-0.2,0.6-0.5,1.1-0.9,1.6
		c-0.4,0.4-0.9,0.8-1.4,1C216.7,480.6,216.1,480.7,215.4,480.7z M215.5,471.9c-0.5,0-1,0.1-1.4,0.3c-0.4,0.2-0.8,0.4-1.1,0.8
		c-0.3,0.3-0.5,0.8-0.7,1.2c-0.2,0.5-0.2,1-0.2,1.7c0,0.6,0.1,1.1,0.2,1.6c0.2,0.5,0.4,0.9,0.7,1.2s0.6,0.6,1.1,0.8
		c0.4,0.2,0.9,0.3,1.4,0.3c0.5,0,1-0.1,1.4-0.3c0.4-0.2,0.7-0.4,1-0.8c0.3-0.3,0.5-0.7,0.6-1.2c0.1-0.5,0.2-1,0.2-1.6
		c0-1.3-0.3-2.2-0.8-2.9C217.3,472.2,216.5,471.9,215.5,471.9z"/>
	<path fill="#3ED307" d="M222.8,480.7c-0.2,0-0.5-0.1-0.6-0.3s-0.3-0.4-0.3-0.6c0-0.3,0.1-0.5,0.3-0.6s0.4-0.3,0.6-0.3
		c0.1,0,0.2,0,0.3,0.1c0.1,0,0.2,0.1,0.3,0.2c0.1,0.1,0.1,0.2,0.2,0.3c0,0.1,0.1,0.2,0.1,0.4c0,0.1,0,0.2-0.1,0.3s-0.1,0.2-0.2,0.3
		c-0.1,0.1-0.2,0.1-0.3,0.2C223.1,480.6,223,480.7,222.8,480.7z"/>
	<path fill="#3ED307" d="M232.7,480.5v-5.4c0-2.1-0.8-3.2-2.3-3.2c-0.4,0-0.8,0.1-1.1,0.2c-0.3,0.2-0.6,0.4-0.9,0.7
		c-0.3,0.3-0.5,0.6-0.6,1c-0.1,0.4-0.2,0.8-0.2,1.3v5.4h-1.2v-9.4h1.2v1.6h0c0.7-1.2,1.7-1.8,3.1-1.8c1,0,1.8,0.3,2.3,1
		s0.8,1.6,0.8,2.9v5.7H232.7z"/>
	<path fill="#3ED307" d="M237.3,476c0,0.6,0.1,1.1,0.2,1.5s0.4,0.8,0.6,1.2s0.6,0.6,1,0.7c0.4,0.2,0.8,0.3,1.3,0.3
		c1.1,0,2.1-0.4,3-1.1v1.2c-0.9,0.6-2,1-3.3,1c-0.6,0-1.2-0.1-1.7-0.3c-0.5-0.2-0.9-0.5-1.3-1s-0.6-0.9-0.8-1.5s-0.3-1.3-0.3-2.1
		c0-0.7,0.1-1.4,0.3-2c0.2-0.6,0.5-1.1,0.9-1.6c0.4-0.4,0.8-0.8,1.3-1c0.5-0.2,1.1-0.4,1.7-0.4c0.6,0,1.1,0.1,1.6,0.3
		c0.5,0.2,0.9,0.5,1.2,0.9s0.6,0.9,0.7,1.4s0.2,1.2,0.2,1.9v0.6H237.3z M242.9,475c0-1-0.3-1.7-0.7-2.3s-1.1-0.8-1.9-0.8
		c-0.4,0-0.8,0.1-1.1,0.2c-0.3,0.1-0.6,0.3-0.9,0.6c-0.3,0.3-0.5,0.6-0.6,1c-0.2,0.4-0.3,0.8-0.4,1.3H242.9z"/>
	<path fill="#3ED307" d="M250.4,480.4c-0.4,0.2-0.8,0.3-1.3,0.3c-1.5,0-2.3-0.9-2.3-2.6v-5.9h-1.6v-1h1.6v-2.4l1.2-0.4v2.7h2.4v1
		H248v5.7c0,0.6,0.1,1.1,0.3,1.4c0.2,0.3,0.6,0.4,1.1,0.4c0.4,0,0.7-0.1,1.1-0.3V480.4z"/>
</g>
<g>
	<defs>
		<path id="SVGID_1_" d="M139.7,200c0-33.3,27-60.3,60.3-60.3c33.3,0,60.4,27,60.4,60.3c0,33.3-27,60.3-60.4,60.3
			C166.7,260.3,139.7,233.3,139.7,200 M107,200c0,51.3,41.6,93,93,93c51.4,0,93-41.6,93-93s-41.6-93-93-93
			C148.7,107,107,148.7,107,200 M274.9,103.4c0,12,9.7,21.7,21.7,21.7c12,0,21.7-9.7,21.7-21.7c0-12-9.7-21.7-21.7-21.7
			C284.6,81.6,274.9,91.4,274.9,103.4 M126.8,347.4c-17.7-0.8-27.2-3.7-33.6-6.2c-8.5-3.3-14.5-7.2-20.8-13.5
			c-6.3-6.3-10.3-12.4-13.5-20.8c-2.5-6.4-5.4-16-6.2-33.6c-0.9-19.1-1.1-24.8-1.1-73.2c0-48.3,0.2-54.1,1.1-73.2
			c0.8-17.6,3.8-27.2,6.2-33.6c3.3-8.5,7.2-14.5,13.5-20.8c6.3-6.3,12.4-10.3,20.8-13.5c6.4-2.5,16-5.4,33.6-6.2
			c19.1-0.9,24.8-1.1,73.2-1.1c48.3,0,54.1,0.2,73.2,1.1c17.6,0.8,27.2,3.8,33.6,6.2c8.5,3.3,14.5,7.2,20.8,13.5
			c6.3,6.3,10.3,12.4,13.5,20.8c2.5,6.4,5.4,16,6.2,33.6c0.9,19.1,1,24.8,1,73.2c0,48.3-0.2,54.1-1,73.2
			c-0.8,17.7-3.8,27.2-6.2,33.6c-3.3,8.5-7.2,14.5-13.5,20.8c-6.3,6.3-12.4,10.3-20.8,13.5c-6.4,2.5-16,5.4-33.6,6.2
			c-19.1,0.9-24.8,1.1-73.2,1.1C151.7,348.4,145.9,348.2,126.8,347.4 M125.4,20c-19.3,0.9-32.4,3.9-43.9,8.4
			c-11.9,4.6-22,10.8-32.1,20.9C39.3,59.4,33.1,69.5,28.5,81.4c-4.5,11.5-7.5,24.7-8.4,43.9C19.2,144.7,19,150.8,19,200
			s0.2,55.3,1.1,74.6c0.9,19.3,3.9,32.4,8.4,43.9c4.6,11.9,10.8,22,20.9,32.1c10.1,10.1,20.2,16.3,32.1,20.9
			c11.5,4.5,24.7,7.5,43.9,8.4c19.3,0.9,25.5,1.1,74.6,1.1c49.2,0,55.3-0.2,74.6-1.1c19.3-0.9,32.4-3.9,44-8.4
			c11.9-4.6,22-10.8,32.1-20.9c10.1-10.1,16.3-20.2,20.9-32.1c4.5-11.5,7.5-24.7,8.4-43.9c0.9-19.3,1.1-25.5,1.1-74.6
			s-0.2-55.3-1.1-74.6c-0.9-19.3-3.9-32.4-8.4-43.9c-4.6-11.9-10.8-22-20.9-32.1c-10.1-10.1-20.2-16.3-32.1-20.9
			c-11.5-4.5-24.7-7.5-44-8.4C255.3,19.2,249.2,19,200,19C150.8,19,144.7,19.2,125.4,20"/>
	</defs>
	<use xlink:href="#SVGID_1_"  overflow="visible" fill="#FFFFFF"/>
	<clipPath id="SVGID_2_">
		<use xlink:href="#SVGID_1_"  overflow="visible"/>
	</clipPath>
	<defs>
		<filter id="Adobe_OpacityMaskFilter" filterUnits="userSpaceOnUse" x="-853.4" y="-853.4" width="2107.7" height="2106.7">
			<feColorMatrix  type="matrix" values="1 0 0 0 0  0 1 0 0 0  0 0 1 0 0  0 0 0 1 0"/>
		</filter>
	</defs>
	<mask maskUnits="userSpaceOnUse" x="-853.4" y="-853.4" width="2107.7" height="2106.7" id="SVGID_3_">
		<g filter="url(#Adobe_OpacityMaskFilter)">
			<rect x="-853.4" y="-853.4" clip-path="url(#SVGID_2_)" width="2107.7" height="2106.7"/>
			<g enable-background="new    ">
				<rect x="-46.9" y="-46.9" clip-path="url(#SVGID_2_)" fill="#FFFFFF" width="493.8" height="493.8"/>
			</g>
		</g>
	</mask>
	<g clip-path="url(#SVGID_2_)" mask="url(#SVGID_3_)">
		<g>
			<defs>
				<rect id="SVGID_4_" x="-853.4" y="-853.3" width="2107.7" height="2106.7"/>
			</defs>
			<use xlink:href="#SVGID_4_"  overflow="visible" fill="#FFFFFF"/>
			<clipPath id="SVGID_5_">
				<use xlink:href="#SVGID_4_"  overflow="visible"/>
			</clipPath>
			<g clip-path="url(#SVGID_5_)">
				<defs>
					<rect id="SVGID_6_" x="-853.4" y="-853.4" width="2107.7" height="2106.7"/>
				</defs>
				<use xlink:href="#SVGID_6_"  overflow="visible" fill="#FFFFFF"/>
				<clipPath id="SVGID_7_">
					<use xlink:href="#SVGID_6_"  overflow="visible"/>
				</clipPath>
				<rect x="-853.4" y="-853.4" clip-path="url(#SVGID_7_)" fill="#FFFFFF" width="2106.7" height="2106.7"/>
			</g>
			<g clip-path="url(#SVGID_5_)">
				<defs>
					<rect id="SVGID_8_" x="-535.5" y="-507.7" width="1789.9" height="1575.9"/>
				</defs>
				<use xlink:href="#SVGID_8_"  overflow="visible" fill="#FFFFFF"/>
				<clipPath id="SVGID_9_">
					<use xlink:href="#SVGID_8_"  overflow="visible"/>
				</clipPath>
				<g clip-path="url(#SVGID_9_)">
					<defs>
						<rect id="SVGID_10_" x="-535.5" y="-507.7" width="1789.9" height="1575.9"/>
					</defs>
					<use xlink:href="#SVGID_10_"  overflow="visible" fill="#FFFFFF"/>
					<clipPath id="SVGID_11_">
						<use xlink:href="#SVGID_10_"  overflow="visible"/>
					</clipPath>
					<g clip-path="url(#SVGID_11_)">
						
							<image overflow="visible" width="435" height="383" xlink:href="12A1A5327AD1632.png"  transform="matrix(4.1146 0 0 4.1146 -535.4927 -507.7188)">
						</image>
					</g>
				</g>
			</g>
			<g clip-path="url(#SVGID_5_)">
				<defs>
					<rect id="SVGID_12_" x="-716.5" y="-421.3" width="1724" height="1662.3"/>
				</defs>
				<use xlink:href="#SVGID_12_"  overflow="visible" fill="#FFFFFF"/>
				<clipPath id="SVGID_13_">
					<use xlink:href="#SVGID_12_"  overflow="visible"/>
				</clipPath>
				<g clip-path="url(#SVGID_13_)">
					
						<image overflow="visible" width="419" height="404" xlink:href="12A1A5327AD1636.png"  transform="matrix(4.1146 0 0 4.1146 -716.537 -421.3113)">
					</image>
				</g>
			</g>
			<g clip-path="url(#SVGID_5_)">
				<defs>
					<rect id="SVGID_14_" x="-506.7" y="-104.5" width="1176.8" height="1176.8"/>
				</defs>
				<use xlink:href="#SVGID_14_"  overflow="visible" fill="#FFFFFF"/>
				<clipPath id="SVGID_15_">
					<use xlink:href="#SVGID_14_"  overflow="visible"/>
				</clipPath>
				<g clip-path="url(#SVGID_15_)">
					<defs>
						<rect id="SVGID_16_" x="-506.7" y="-104.5" width="1176.8" height="1176.8"/>
					</defs>
					<use xlink:href="#SVGID_16_"  overflow="visible" fill="#FFFFFF"/>
					<clipPath id="SVGID_17_">
						<use xlink:href="#SVGID_16_"  overflow="visible"/>
					</clipPath>
					<g clip-path="url(#SVGID_17_)">
						
							<image overflow="visible" width="286" height="286" xlink:href="12A1A5327AD1631.png"  transform="matrix(4.1146 0 0 4.1146 -506.6902 -104.4839)">
						</image>
					</g>
				</g>
			</g>
			<g clip-path="url(#SVGID_5_)">
				<defs>
					<rect id="SVGID_18_" x="-342.1" y="88.9" width="950.5" height="950.5"/>
				</defs>
				<use xlink:href="#SVGID_18_"  overflow="visible" fill="#FFFFFF"/>
				<clipPath id="SVGID_19_">
					<use xlink:href="#SVGID_18_"  overflow="visible"/>
				</clipPath>
				<g clip-path="url(#SVGID_19_)">
					<defs>
						<rect id="SVGID_20_" x="-342.1" y="88.9" width="950.5" height="950.5"/>
					</defs>
					<use xlink:href="#SVGID_20_"  overflow="visible" fill="#FFFFFF"/>
					<clipPath id="SVGID_21_">
						<use xlink:href="#SVGID_20_"  overflow="visible"/>
					</clipPath>
					<g clip-path="url(#SVGID_21_)">
						
							<image overflow="visible" width="231" height="231" xlink:href="12A1A5327AD1633.png"  transform="matrix(4.1146 0 0 4.1146 -342.1045 88.9043)">
						</image>
					</g>
				</g>
			</g>
			<g clip-path="url(#SVGID_5_)">
				<defs>
					<rect id="SVGID_22_" x="-403.8" y="150.6" width="938.1" height="909.3"/>
				</defs>
				<use xlink:href="#SVGID_22_"  overflow="visible" fill="#FFFFFF"/>
				<clipPath id="SVGID_23_">
					<use xlink:href="#SVGID_22_"  overflow="visible"/>
				</clipPath>
				<g clip-path="url(#SVGID_23_)">
					
						<image overflow="visible" width="228" height="221" xlink:href="12A1A5327AD1630.png"  transform="matrix(4.1146 0 0 4.1146 -403.8242 150.6239)">
					</image>
				</g>
			</g>
			<g clip-path="url(#SVGID_5_)">
				<defs>
					<rect id="SVGID_24_" x="-853.4" y="-853.4" width="2107.7" height="2106.7"/>
				</defs>
				<use xlink:href="#SVGID_24_"  overflow="visible" fill="#FFFFFF"/>
				<clipPath id="SVGID_25_">
					<use xlink:href="#SVGID_24_"  overflow="visible"/>
				</clipPath>
				<g opacity="0.45" clip-path="url(#SVGID_25_)">
					<g>
						<defs>
							<rect id="SVGID_26_" x="-823.5" y="-614.7" width="1678.8" height="864.1"/>
						</defs>
						<use xlink:href="#SVGID_26_"  overflow="visible" fill="#FFFFFF"/>
						<clipPath id="SVGID_27_">
							<use xlink:href="#SVGID_26_"  overflow="visible"/>
						</clipPath>
						<g clip-path="url(#SVGID_27_)">
							<defs>
								<rect id="SVGID_28_" x="-823.5" y="-614.7" width="1678.8" height="864.1"/>
							</defs>
							<use xlink:href="#SVGID_28_"  overflow="visible" fill="#FFFFFF"/>
							<clipPath id="SVGID_29_">
								<use xlink:href="#SVGID_28_"  overflow="visible"/>
							</clipPath>
							<g clip-path="url(#SVGID_29_)">
								
									<image overflow="visible" width="408" height="210" xlink:href="12A1A5327AD163E.png"  transform="matrix(4.1146 0 0 4.1146 -823.5176 -614.6995)">
								</image>
							</g>
						</g>
					</g>
				</g>
			</g>
		</g>
	</g>
</g>
</svg>
