<?xml version="1.0" encoding="utf-8"?>
<!-- Generator: Adobe Illustrator 21.1.0, SVG Export Plug-In . SVG Version: 6.00 Build 0)  -->
<svg version="1.1" id="Layer_1" xmlns="http://www.w3.org/2000/svg" xmlns:xlink="http://www.w3.org/1999/xlink" x="0px" y="0px"
	 viewBox="0 0 24 24" style="enable-background:new 0 0 24 24;" xml:space="preserve">
<style type="text/css">
	.st0{fill:#FFFFFF;}
	.st1{fill:#999999;}
	.st2{fill:#FFFFFF;stroke:#999999;stroke-width:0.8;stroke-miterlimit:10;}
</style>
<polygon class="st0" points="6,20.3 14.3,12 6,3.7 7.9,2 18,12 7.9,22 "/>
<polyline class="st1" points="7.9,2.3 17.6,12 7.9,21.7 6.4,20.3 14.7,12 6.4,3.7 7.9,2.3 "/>
<polygon class="st2" points="7.9,1.6 7.6,1.9 6.1,3.3 5.7,3.7 6,4.1 14,12 6,19.9 5.6,20.3 6,20.7 7.5,22.1 7.9,22.4 8.2,22.1 
	17.9,12.4 18.3,12 18,11.6 8.3,1.9 7.9,1.6 "/>
</svg>
