<?xml version="1.0" encoding="utf-8"?>
<!-- Generator: Adobe Illustrator 21.1.0, SVG Export Plug-In . SVG Version: 6.00 Build 0)  -->
<svg version="1.1" id="Layer_1" xmlns="http://www.w3.org/2000/svg" xmlns:xlink="http://www.w3.org/1999/xlink" x="0px" y="0px"
	 viewBox="0 0 24 24" style="enable-background:new 0 0 24 24;" xml:space="preserve">
<style type="text/css">
	.st0{fill:#FFFFFF;}
	.st1{fill:#FFFFFF;stroke:#999999;stroke-width:0.8;stroke-miterlimit:10;}
</style>
<polygon class="st0" points="4.7,12 14.8,1.9 16.6,3.7 8.3,12 16.6,20.3 14.8,22.1 "/>
<polyline class="st1" points="14.8,2.3 16.2,3.7 7.9,12 16.2,20.3 14.8,21.7 5.1,12 14.8,2.3 "/>
<polygon class="st1" points="14.8,1.6 14.4,2 4.7,11.7 4.4,12 4.8,12.4 14.5,22.1 14.9,22.5 15.3,22.1 16.7,20.7 17.1,20.3 
	16.7,19.9 8.6,12 16.5,4.1 16.9,3.7 16.5,3.3 15.1,1.9 14.8,1.6 "/>
</svg>
